<svg width="18352" height="14416" viewBox="0 0 18352 14416" fill="none" xmlns="http://www.w3.org/2000/svg">
<g clip-path="url(#clip0_3206_11566)">
<path d="M966.937 11718C12.8379 6265.07 286.322 4835.55 1118.57 4437.76C2290.24 3877.56 4115.88 5638.12 5849.57 5039.83C7635.81 4423.54 7132.23 2057.69 9204.23 721.251C10959.6 -410.781 13481.9 -106.8 15163.6 917.211C16417.2 1680.72 18254.7 3484.16 17728.9 5149.93C17466.1 5982.76 16616.8 5944.06 16150.2 6756.68C15612.6 7693.12 15841.9 9226.99 17514.5 11718H966.937Z" fill="#F5F5F9"/>
<path d="M8992.28 88.4258H3357.8V11593.3H8992.28V88.4258Z" fill="#EBEBEB"/>
<path d="M8811.95 265.893H3537.73V11416.2H8811.95V265.893Z" fill="#E6E6E6"/>
<path d="M4330.27 265.893H3537.73V11416.2H4330.27V265.893Z" fill="#E0E0E0"/>
<path d="M9784.84 88.4258H8992.3V11593.3H9784.84V88.4258Z" fill="#E0E0E0"/>
<path d="M8902.1 2351.51H3447.57V2528.61H8902.1V2351.51Z" fill="#EBEBEB"/>
<path d="M8902.1 4614.72H3447.57V4791.82H8902.1V4614.72Z" fill="#EBEBEB"/>
<path d="M8902.1 6878.29H3447.57V7055.39H8902.1V6878.29Z" fill="#EBEBEB"/>
<path d="M8902.1 9141.5H3447.57V9318.6H8902.1V9141.5Z" fill="#EBEBEB"/>
<path d="M5239.2 1066.63H3933.72V2351.51H5239.2V1066.63Z" fill="#F5F5F5"/>
<path d="M5239.2 1066.63H3933.72L4586.64 1709.26L5239.2 1066.63Z" fill="#EBEBEB"/>
<path d="M5665.86 1067H5239.62V2351.88H5665.86V1067Z" fill="#F0F0F0"/>
<path d="M6660.89 1066.63H5355.41V2351.51H6660.89V1066.63Z" fill="#F5F5F5"/>
<path d="M6660.39 1066.63H5355.41L6007.96 1709.26L6660.39 1066.63Z" fill="#EBEBEB"/>
<path d="M7087.12 1067H6660.88V2351.88H7087.12V1067Z" fill="#F0F0F0"/>
<path d="M8082.04 1066.63H6776.56V2351.51H8082.04V1066.63Z" fill="#F5F5F5"/>
<path d="M8082.03 1066.63H6776.67L7429.1 1709.26L8082.03 1066.63Z" fill="#EBEBEB"/>
<path d="M8508.31 1067H8082.07V2351.88H8508.31V1067Z" fill="#F0F0F0"/>
<path d="M5239.2 8456.5H3933.72V9141.5H5239.2V8456.5Z" fill="#F5F5F5"/>
<path d="M5239.2 8456.5H3933.72L4586.64 8798.82L5239.2 8456.5Z" fill="#FAFAFA"/>
<path d="M5665.86 8456.5H5239.62V9141.5H5665.86V8456.5Z" fill="#F0F0F0"/>
<path d="M6660.89 8456.5H5355.41V9141.5H6660.89V8456.5Z" fill="#F5F5F5"/>
<path d="M6660.39 8456.5H5355.41L6007.96 8798.82L6660.39 8456.5Z" fill="#FAFAFA"/>
<path d="M7087.12 8456.5H6660.88V9141.5H7087.12V8456.5Z" fill="#F0F0F0"/>
<path d="M8082.04 8456.5H6776.56V9141.5H8082.04V8456.5Z" fill="#F5F5F5"/>
<path d="M8082.03 8456.5H6776.67L7429.1 8798.82L8082.03 8456.5Z" fill="#FAFAFA"/>
<path d="M8508.31 8456.5H8082.07V9141.5H8508.31V8456.5Z" fill="#F0F0F0"/>
<path d="M5965.32 7771.5H4659.84V8456.5H5965.32V7771.5Z" fill="#F5F5F5"/>
<path d="M5965.32 7771.5H4659.84L5312.77 8113.82L5965.32 7771.5Z" fill="#FAFAFA"/>
<path d="M6391.91 7771.13H5965.67V8456.13H6391.91V7771.13Z" fill="#F0F0F0"/>
<path d="M7386.97 7771.5H6081.49V8456.5H7386.97V7771.5Z" fill="#F5F5F5"/>
<path d="M7386.6 7771.5H6081.49L6734.05 8113.82L7386.6 7771.5Z" fill="#FAFAFA"/>
<path d="M7813.17 7771.13H7386.93V8456.13H7813.17V7771.13Z" fill="#F0F0F0"/>
<path d="M4355.42 3072.52H4107.27L4048.44 3205.77C3973.46 3377.55 3934.92 3562.83 3935.22 3750.05V4517.84C3935.51 4543.64 3946.04 4568.28 3964.51 4586.41C3982.98 4604.55 4007.91 4614.72 4033.89 4614.72H4430.4C4443.29 4614.82 4456.08 4612.38 4468.02 4607.56C4479.96 4602.74 4490.83 4595.63 4500 4586.63C4509.16 4577.63 4516.45 4566.92 4521.44 4555.11C4526.43 4543.31 4529.02 4530.64 4529.07 4517.84V4517.84V3750.05C4529.37 3562.83 4490.83 3377.55 4415.85 3205.77L4355.42 3072.52Z" fill="white"/>
<path d="M4290.89 3843.62H3933.72V4315.88H4290.89V3843.62Z" fill="#F5F5F5"/>
<path d="M4086.59 3027.2H4375.68C4380.86 3027.2 4385.83 3029.24 4389.5 3032.86C4393.18 3036.49 4395.26 3041.41 4395.29 3046.55V3098.61C4395.26 3103.75 4393.18 3108.67 4389.5 3112.3C4385.83 3115.92 4380.86 3117.96 4375.68 3117.96H4086.59C4081.47 3117.86 4076.6 3115.78 4073 3112.17C4069.41 3108.55 4067.38 3103.69 4067.35 3098.61V3047.04C4067.3 3044.49 4067.76 3041.94 4068.7 3039.56C4069.64 3037.18 4071.04 3035.01 4072.83 3033.17C4074.61 3031.32 4076.75 3029.85 4079.11 3028.83C4081.47 3027.8 4084.01 3027.25 4086.59 3027.2V3027.2Z" fill="#F0F0F0"/>
<path d="M5139.2 3072.52H4891.05L4832.59 3205.77C4757.67 3377.57 4719.13 3562.83 4719.37 3750.05V4517.84C4719.66 4543.64 4730.19 4568.28 4748.66 4586.41C4767.13 4604.55 4792.06 4614.72 4818.04 4614.72H5215.54C5228.4 4614.82 5241.15 4612.4 5253.07 4607.6C5264.99 4602.8 5275.84 4595.72 5285 4586.76C5294.16 4577.8 5301.46 4567.13 5306.47 4555.37C5311.48 4543.61 5314.11 4530.98 5314.21 4518.21V3750.05C5314.55 3562.84 5276.05 3377.56 5201.11 3205.77L5139.2 3072.52Z" fill="white"/>
<path d="M5075.08 3843.62H4717.91V4315.88H5075.08V3843.62Z" fill="#F5F5F5"/>
<path d="M4870.34 3027.2H5160.05C5165.23 3027.2 5170.2 3029.24 5173.87 3032.86C5177.54 3036.49 5179.62 3041.41 5179.66 3046.55V3098.61C5179.62 3103.75 5177.54 3108.67 5173.87 3112.3C5170.2 3115.92 5165.23 3117.96 5160.05 3117.96H4870.34C4865.16 3117.96 4860.19 3115.92 4856.51 3112.3C4852.84 3108.67 4850.76 3103.75 4850.73 3098.61V3047.04C4850.68 3044.46 4851.15 3041.88 4852.11 3039.48C4853.08 3037.07 4854.51 3034.88 4856.34 3033.04C4858.16 3031.19 4860.34 3029.72 4862.75 3028.72C4865.15 3027.72 4867.73 3027.2 4870.34 3027.2V3027.2Z" fill="#F0F0F0"/>
<path d="M5923.51 3072.52H5675.24L5616.78 3205.77C5541.65 3377.5 5503.14 3562.82 5503.68 3750.05V4517.84C5503.73 4530.64 5506.32 4543.31 5511.31 4555.11C5516.3 4566.92 5523.59 4577.63 5532.75 4586.63C5541.92 4595.63 5552.79 4602.74 5564.73 4607.56C5576.67 4612.38 5589.45 4614.82 5602.35 4614.72H5999.85C6025.82 4614.72 6050.75 4604.55 6069.23 4586.41C6087.7 4568.28 6098.22 4543.64 6098.51 4517.84V3750.05C6098.75 3562.83 6060.22 3377.57 5985.29 3205.77L5923.51 3072.52Z" fill="white"/>
<path d="M5859.19 3843.62H5502.02V4315.88H5859.19V3843.62Z" fill="#F5F5F5"/>
<path d="M5654.53 3027.2H5944.24C5949.42 3027.2 5954.38 3029.24 5958.06 3032.86C5961.73 3036.49 5963.81 3041.41 5963.85 3046.55V3098.61C5963.81 3103.75 5961.73 3108.67 5958.06 3112.3C5954.38 3115.92 5949.42 3117.96 5944.24 3117.96H5654.53C5649.35 3117.96 5644.38 3115.92 5640.7 3112.3C5637.03 3108.67 5634.95 3103.75 5634.92 3098.61V3047.04C5634.87 3044.46 5635.34 3041.88 5636.3 3039.48C5637.26 3037.07 5638.7 3034.88 5640.53 3033.04C5642.35 3031.19 5644.53 3029.72 5646.93 3028.72C5649.34 3027.72 5651.92 3027.2 5654.53 3027.2V3027.2Z" fill="#F0F0F0"/>
<path d="M6707.64 3072.52H6459.99L6401.16 3205.77C6325.97 3377.51 6287.22 3562.78 6287.32 3750.05V4517.84C6287.37 4530.64 6289.97 4543.31 6294.96 4555.11C6299.94 4566.92 6307.23 4577.63 6316.4 4586.63C6325.57 4595.63 6336.43 4602.74 6348.37 4607.56C6360.32 4612.38 6373.1 4614.82 6385.99 4614.72H6783.62C6809.59 4614.72 6834.52 4604.55 6853 4586.41C6871.47 4568.28 6881.99 4543.64 6882.28 4517.84V3750.05C6882.54 3562.76 6843.74 3377.44 6768.32 3205.77L6707.64 3072.52Z" fill="white"/>
<path d="M6643.53 3843.62H6286.36V4315.88H6643.53V3843.62Z" fill="#F5F5F5"/>
<path d="M6438.64 3027.2H6728.35C6733.53 3027.2 6738.49 3029.24 6742.17 3032.86C6745.84 3036.49 6747.92 3041.41 6747.96 3046.55V3098.61C6747.92 3103.75 6745.84 3108.67 6742.17 3112.3C6738.49 3115.92 6733.53 3117.96 6728.35 3117.96H6438.64C6433.46 3117.96 6428.49 3115.92 6424.81 3112.3C6421.14 3108.67 6419.06 3103.75 6419.03 3098.61V3047.04C6418.98 3044.46 6419.45 3041.88 6420.41 3039.48C6421.38 3037.07 6422.81 3034.88 6424.64 3033.04C6426.46 3031.19 6428.64 3029.72 6431.05 3028.72C6433.45 3027.72 6436.03 3027.2 6438.64 3027.2V3027.2Z" fill="#F0F0F0"/>
<path d="M7491.79 3072.52H7243.27L7184.81 3205.77C7109.83 3377.55 7071.29 3562.83 7071.59 3750.05V4517.84C7071.64 4530.64 7074.23 4543.31 7079.22 4555.11C7084.21 4566.92 7091.5 4577.63 7100.67 4586.63C7109.83 4595.63 7120.7 4602.74 7132.64 4607.56C7144.58 4612.38 7157.37 4614.82 7170.26 4614.72H7564.92C7590.84 4614.72 7615.71 4604.6 7634.17 4586.54C7652.63 4568.49 7663.2 4543.94 7663.59 4518.21V3750.05C7663.83 3562.83 7625.29 3377.57 7550.37 3205.77L7491.79 3072.52Z" fill="white"/>
<path d="M7427.26 3843.62H7070.09V4315.88H7427.26V3843.62Z" fill="#F5F5F5"/>
<path d="M7222.83 3027.2H7512.54C7517.72 3027.2 7522.68 3029.24 7526.36 3032.86C7530.03 3036.49 7532.11 3041.41 7532.15 3046.55V3098.61C7532.11 3103.75 7530.03 3108.67 7526.36 3112.3C7522.68 3115.92 7517.72 3117.96 7512.54 3117.96H7222.83C7217.65 3117.96 7212.68 3115.92 7209 3112.3C7205.33 3108.67 7203.25 3103.75 7203.22 3098.61V3047.04C7203.17 3044.46 7203.64 3041.88 7204.6 3039.48C7205.56 3037.07 7207 3034.88 7208.83 3033.04C7210.65 3031.19 7212.83 3029.72 7215.24 3028.72C7217.64 3027.72 7220.22 3027.2 7222.83 3027.2V3027.2Z" fill="#F0F0F0"/>
<path d="M8275.57 3072.52H8027.43L7968.97 3205.77C7893.8 3377.49 7855.25 3562.81 7855.75 3750.05V4517.84C7856.04 4543.64 7866.56 4568.28 7885.04 4586.41C7903.51 4604.55 7928.44 4614.72 7954.41 4614.72H8351.92C8364.81 4614.82 8377.59 4612.38 8389.53 4607.56C8401.48 4602.74 8412.34 4595.63 8421.51 4586.63C8430.68 4577.63 8437.96 4566.92 8442.95 4555.11C8447.94 4543.31 8450.54 4530.64 8450.58 4517.84V4517.84V3750.05C8450.93 3562.84 8412.43 3377.56 8337.49 3205.77L8275.57 3072.52Z" fill="white"/>
<path d="M8211.45 3843.62H7854.28V4315.88H8211.45V3843.62Z" fill="#F5F5F5"/>
<path d="M8006.71 3027.2H8296.29C8301.47 3027.2 8306.44 3029.24 8310.12 3032.86C8313.79 3036.49 8315.87 3041.41 8315.9 3046.55V3098.61C8315.87 3103.75 8313.79 3108.67 8310.12 3112.3C8306.44 3115.92 8301.47 3117.96 8296.29 3117.96H8006.71C8001.53 3117.96 7996.56 3115.92 7992.88 3112.3C7989.21 3108.67 7987.13 3103.75 7987.1 3098.61V3047.04C7987.05 3044.46 7987.52 3041.88 7988.48 3039.48C7989.45 3037.07 7990.88 3034.88 7992.71 3033.04C7994.53 3031.19 7996.71 3029.72 7999.12 3028.72C8001.52 3027.72 8004.1 3027.2 8006.71 3027.2V3027.2Z" fill="#F0F0F0"/>
<path d="M4408.93 10550.1H4185.7L4132.91 10624.3C4067.45 10713.8 4031.48 10821.1 4029.93 10931.7V11365.6C4029.93 11396.1 4067.67 11420.6 4118.61 11420.6H4476.27C4525.61 11420.6 4564.95 11396.1 4564.95 11365.6V10932.8C4563.34 10822.3 4527.37 10714.9 4461.97 10625.4L4408.93 10550.1Z" fill="white"/>
<path d="M4351.34 10985.5H4029.93V11252.5H4351.34V10985.5Z" fill="#F5F5F5"/>
<path d="M4163.39 10524.5H4431.27C4434.94 10524.5 4438.47 10525.9 4441.08 10528.5C4443.69 10531.1 4445.17 10534.6 4445.21 10538.2V10562C4445.17 10565.6 4443.69 10569.1 4441.08 10571.7C4438.47 10574.2 4434.94 10575.7 4431.27 10575.7H4163.39C4159.71 10575.7 4156.19 10574.2 4153.58 10571.7C4150.97 10569.1 4149.49 10565.6 4149.45 10562V10538.2C4149.49 10534.6 4150.97 10531.1 4153.58 10528.5C4156.19 10525.9 4159.71 10524.5 4163.39 10524.5V10524.5Z" fill="#F0F0F0"/>
<path d="M5113.21 10550.1H4891.21L4838.8 10624.3C4773.4 10714.2 4737.67 10821.9 4736.55 10932.8V11366.5C4736.55 11396.9 4774.29 11421.4 4825.23 11421.4H5182.9C5232.23 11421.4 5271.57 11396.9 5271.57 11366.5V10932.8C5269.96 10822.3 5234 10714.9 5168.59 10625.4L5113.21 10550.1Z" fill="white"/>
<path d="M5056.69 10985.5H4735.28V11252.5H5056.69V10985.5Z" fill="#F5F5F5"/>
<path d="M4868.98 10524.5H5136.85C5140.53 10524.5 5144.06 10525.9 5146.67 10528.5C5149.28 10531.1 5150.76 10534.6 5150.79 10538.2V10562C5150.76 10565.6 5149.28 10569.1 5146.67 10571.7C5144.06 10574.2 5140.53 10575.7 5136.85 10575.7H4868.98C4865.3 10575.7 4861.77 10574.2 4859.16 10571.7C4856.55 10569.1 4855.07 10565.6 4855.04 10562V10538.2C4855.07 10534.6 4856.55 10531.1 4859.16 10528.5C4861.77 10525.9 4865.3 10524.5 4868.98 10524.5V10524.5Z" fill="#F0F0F0"/>
<path d="M5819.26 10550.1H5596.64L5543.85 10624.3C5478.39 10713.8 5442.42 10821.1 5440.87 10931.7V11365.6C5440.87 11396.1 5478.61 11420.6 5529.55 11420.6H5887.21C5935.81 11420.6 5975.89 11396.1 5975.89 11365.6V10932.8C5974.34 10822.2 5938.23 10714.8 5872.54 10625.4L5819.26 10550.1Z" fill="white"/>
<path d="M5761.66 10985.5H5440.25V11252.5H5761.66V10985.5Z" fill="#F5F5F5"/>
<path d="M5573.84 10524.5H5841.59C5845.27 10524.5 5848.79 10525.9 5851.4 10528.5C5854.01 10531.1 5855.49 10534.6 5855.53 10538.2V10562C5855.49 10565.6 5854.01 10569.1 5851.4 10571.7C5848.79 10574.2 5845.27 10575.7 5841.59 10575.7H5573.84C5572 10575.7 5570.19 10575.4 5568.49 10574.7C5566.8 10574 5565.25 10573 5563.94 10571.7C5562.64 10570.4 5561.6 10568.9 5560.88 10567.2C5560.17 10565.6 5559.79 10563.8 5559.78 10562V10538.2C5559.79 10536.4 5560.17 10534.6 5560.88 10532.9C5561.6 10531.2 5562.64 10529.7 5563.94 10528.5C5565.25 10527.2 5566.8 10526.2 5568.49 10525.5C5570.19 10524.8 5572 10524.5 5573.84 10524.5V10524.5Z" fill="#F0F0F0"/>
<path d="M6524.26 10550.1H6301.03L6248.24 10624.3C6182.78 10713.8 6146.81 10821.1 6145.26 10931.7V11365.6C6145.26 11396.1 6185.22 11420.6 6233.94 11420.6H6591.6C6640.94 11420.6 6680.28 11396.1 6680.28 11365.6V10932.8C6678.67 10822.3 6642.7 10714.9 6577.3 10625.4L6524.26 10550.1Z" fill="white"/>
<path d="M6466.67 10985.5H6145.26V11252.5H6466.67V10985.5Z" fill="#F5F5F5"/>
<path d="M6278.72 10524.5H6546.35C6550.03 10524.5 6553.55 10525.9 6556.16 10528.5C6558.77 10531.1 6560.26 10534.6 6560.29 10538.2V10562C6560.26 10565.6 6558.77 10569.1 6556.16 10571.7C6553.55 10574.2 6550.03 10575.7 6546.35 10575.7H6278.72C6275.04 10575.7 6271.52 10574.2 6268.91 10571.7C6266.3 10569.1 6264.82 10565.6 6264.78 10562V10538.2C6264.82 10534.6 6266.3 10531.1 6268.91 10528.5C6271.52 10525.9 6275.04 10524.5 6278.72 10524.5V10524.5Z" fill="#F0F0F0"/>
<path d="M7229.22 10550.1H7006.36L6953.33 10624.3C6887.86 10713.8 6851.89 10821.1 6850.34 10931.7V11365.6C6850.34 11396.1 6889.93 11420.6 6939.02 11420.6H7296.69C7346.02 11420.6 7385.36 11396.1 7385.36 11365.6V10932.8C7383.75 10822.3 7347.78 10714.9 7282.38 10625.4L7229.22 10550.1Z" fill="white"/>
<path d="M7172.02 10985.5H6850.61V11252.5H7172.02V10985.5Z" fill="#F5F5F5"/>
<path d="M6983.65 10524.5H7251.53C7255.2 10524.5 7258.73 10525.9 7261.34 10528.5C7263.95 10531.1 7265.43 10534.6 7265.46 10538.2V10562C7265.43 10565.6 7263.95 10569.1 7261.34 10571.7C7258.73 10574.2 7255.2 10575.7 7251.53 10575.7H6983.65C6979.97 10575.7 6976.45 10574.2 6973.84 10571.7C6971.23 10569.1 6969.75 10565.6 6969.71 10562V10538.2C6969.75 10534.6 6971.23 10531.1 6973.84 10528.5C6976.45 10525.9 6979.97 10524.5 6983.65 10524.5V10524.5Z" fill="#F0F0F0"/>
<path d="M7934.55 10550.1H7711.31L7658.53 10624.3C7593.06 10713.8 7557.09 10821.1 7555.54 10931.7V11365.6C7555.54 11396.1 7595.13 11420.6 7644.22 11420.6H8001.89C8050.48 11420.6 8090.56 11396.1 8090.56 11365.6V10932.8C8088.95 10822.3 8052.98 10714.9 7987.58 10625.4L7934.55 10550.1Z" fill="white"/>
<path d="M7876.95 10985.5H7555.54V11252.5H7876.95V10985.5Z" fill="#F5F5F5"/>
<path d="M7689.13 10524.5H7956.88C7960.56 10524.5 7964.09 10525.9 7966.7 10528.5C7969.31 10531.1 7970.79 10534.6 7970.82 10538.2V10562C7970.79 10565.6 7969.31 10569.1 7966.7 10571.7C7964.09 10574.2 7960.56 10575.7 7956.88 10575.7H7689.13C7687.3 10575.7 7685.48 10575.4 7683.79 10574.7C7682.09 10574 7680.54 10573 7679.24 10571.7C7677.93 10570.4 7676.89 10568.9 7676.18 10567.2C7675.46 10565.6 7675.08 10563.8 7675.07 10562V10538.2C7675.08 10536.4 7675.46 10534.6 7676.18 10532.9C7676.89 10531.2 7677.93 10529.7 7679.24 10528.5C7680.54 10527.2 7682.09 10526.2 7683.79 10525.5C7685.48 10524.8 7687.3 10524.5 7689.13 10524.5V10524.5Z" fill="#F0F0F0"/>
<path d="M4894.43 9634.09H4671.69L4618.91 9708.44C4553.5 9797.92 4517.53 9905.29 4515.92 10015.8V10449.8C4515.92 10479.9 4553.66 10504.4 4604.6 10504.4H4962.88C5012.22 10504.4 5051.56 10479.9 5051.56 10449.8V10016.9C5049.95 9906.39 5013.98 9799.02 4948.58 9709.54L4894.43 9634.09Z" fill="white"/>
<path d="M4836.83 10070H4515.42V10337H4836.83V10070Z" fill="#F5F5F5"/>
<path d="M4648.93 9608.5H4916.69C4920.36 9608.5 4923.89 9609.94 4926.5 9612.51C4929.11 9615.08 4930.59 9618.56 4930.62 9622.21V9645.97C4930.59 9649.63 4929.11 9653.14 4926.51 9655.72C4923.9 9658.31 4920.37 9659.78 4916.69 9659.81H4648.93C4645.22 9659.81 4641.67 9658.36 4639.03 9655.77C4636.4 9653.18 4634.9 9649.66 4634.87 9645.97V9622.21C4634.94 9618.55 4636.45 9615.06 4639.08 9612.5C4641.71 9609.93 4645.24 9608.5 4648.93 9608.5V9608.5Z" fill="#F0F0F0"/>
<path d="M5599.4 9634.09H5377.4L5324.61 9708.44C5259.2 9797.92 5223.24 9905.29 5221.62 10015.8V10449.8C5221.62 10479.9 5259.37 10504.4 5310.3 10504.4H5667.97C5717.3 10504.4 5756.65 10479.9 5756.65 10449.8V10016.9C5755.04 9906.39 5719.07 9799.02 5653.66 9709.54L5599.4 9634.09Z" fill="white"/>
<path d="M5541.76 10070H5220.35V10337H5541.76V10070Z" fill="#F5F5F5"/>
<path d="M5353.94 9608.5H5621.32C5625 9608.5 5628.52 9609.94 5631.13 9612.51C5633.74 9615.08 5635.23 9618.56 5635.26 9622.21V9645.97C5635.23 9649.63 5633.75 9653.14 5631.14 9655.72C5628.54 9658.31 5625.01 9659.78 5621.32 9659.81H5353.94C5350.23 9659.81 5346.67 9658.36 5344.04 9655.77C5341.41 9653.18 5339.91 9649.66 5339.88 9645.97V9622.21C5339.94 9618.55 5341.45 9615.06 5344.08 9612.5C5346.71 9609.93 5350.25 9608.5 5353.94 9608.5Z" fill="#F0F0F0"/>
<path d="M6304.33 9634.09H6081.09L6028.31 9708.44C5962.72 9797.83 5926.73 9905.25 5925.32 10015.8V10449.8C5925.32 10479.9 5963.06 10504.4 6014 10504.4H6371.67C6421 10504.4 6460.34 10479.9 6460.34 10449.8V10016.9C6458.68 9906.4 6422.71 9799.05 6357.36 9709.54L6304.33 9634.09Z" fill="white"/>
<path d="M6247.11 10070H5925.71V10337H6247.11V10070Z" fill="#F5F5F5"/>
<path d="M6058.91 9608.5H6326.66C6330.34 9608.5 6333.86 9609.94 6336.47 9612.51C6339.08 9615.08 6340.57 9618.56 6340.6 9622.21V9645.97C6340.57 9649.63 6339.09 9653.14 6336.48 9655.72C6333.87 9658.31 6330.35 9659.78 6326.66 9659.81H6058.91C6055.2 9659.81 6051.64 9658.36 6049.01 9655.77C6046.38 9653.18 6044.88 9649.66 6044.85 9645.97V9622.21C6044.91 9618.55 6046.42 9615.06 6049.05 9612.5C6051.68 9609.93 6055.22 9608.5 6058.91 9608.5V9608.5Z" fill="#F0F0F0"/>
<path d="M7009.8 9634.09H6786.45L6733.66 9708.44C6668.25 9797.92 6632.29 9905.29 6630.68 10015.8V10449.8C6630.68 10479.9 6670.27 10504.4 6719.35 10504.4H7077.02C7126.35 10504.4 7165.69 10479.9 7165.69 10449.8V10016.9C7164.2 9906.37 7128.23 9798.97 7062.71 9709.54L7009.8 9634.09Z" fill="white"/>
<path d="M6952.08 10070H6630.68V10337H6952.08V10070Z" fill="#F5F5F5"/>
<path d="M6764.26 9608.5H7032.02C7035.69 9608.5 7039.22 9609.94 7041.83 9612.51C7044.44 9615.08 7045.92 9618.56 7045.95 9622.21V9645.97C7045.92 9649.63 7044.44 9653.14 7041.84 9655.72C7039.23 9658.31 7035.7 9659.78 7032.02 9659.81H6764.26C6760.55 9659.81 6757 9658.36 6754.36 9655.77C6751.73 9653.18 6750.23 9649.66 6750.2 9645.97V9622.21C6750.27 9618.55 6751.78 9615.06 6754.41 9612.5C6757.04 9609.93 6760.57 9608.5 6764.26 9608.5Z" fill="#F0F0F0"/>
<path d="M6477.49 5988.03H4020.45V6878.29H6477.49V5988.03Z" fill="white"/>
<path d="M6477.84 5988.03H5642.39V6878.29H6477.84V5988.03Z" fill="#F5F5F5"/>
<g opacity="0.4">
<path opacity="0.4" d="M6477.48 6385.33H4020.43V6480.74H6477.48V6385.33Z" fill="#E0E0E0"/>
<path opacity="0.4" d="M6477.48 6650.37H4020.43V6745.77H6477.48V6650.37Z" fill="#E0E0E0"/>
<path opacity="0.4" d="M6477.5 6120.18H4020.46V6215.58H6477.5V6120.18Z" fill="#E0E0E0"/>
</g>
<path d="M8403.83 5988.03H5946.79V6878.29H8403.83V5988.03Z" fill="white"/>
<path d="M8404.22 5988.03H7568.76V6878.29H8404.22V5988.03Z" fill="#F5F5F5"/>
<g opacity="0.4">
<path opacity="0.4" d="M8403.81 6385.33H5946.77V6480.74H8403.81V6385.33Z" fill="#E0E0E0"/>
<path opacity="0.4" d="M8403.81 6650.37H5946.77V6745.77H8403.81V6650.37Z" fill="#E0E0E0"/>
<path opacity="0.4" d="M8403.83 6120.18H5946.79V6215.58H8403.83V6120.18Z" fill="#E0E0E0"/>
</g>
<path d="M7313.04 5097.76H4856V5988.03H7313.04V5097.76Z" fill="white"/>
<path d="M7313.32 5097.76H6477.86V5988.03H7313.32V5097.76Z" fill="#F5F5F5"/>
<g opacity="0.4">
<path opacity="0.4" d="M7313.04 5494.94H4856V5590.35H7313.04V5494.94Z" fill="#E0E0E0"/>
<path opacity="0.4" d="M7313.04 5760.1H4856V5855.51H7313.04V5760.1Z" fill="#E0E0E0"/>
<path opacity="0.4" d="M7313.06 5229.91H4856.02V5325.31H7313.06V5229.91Z" fill="#E0E0E0"/>
</g>
<path d="M12950.5 9687.69L10794.7 509.573C10774.6 424.613 10737.2 344.673 10684.6 274.751C10632 204.828 10565.5 146.428 10489.2 103.202C10331.8 12.6871 10145.4 -14.3628 9968.47 27.6353L9455.65 146.925L9464.29 142.516L6659.2 783.793C6705.09 772.902 6751.71 765.248 6798.69 760.89L5971.62 952.686C5598.41 1039.28 5362.35 1396.17 5444.12 1747.55L7599.98 10925.8C7670.28 11224.9 7949.26 11425.7 8260.8 11425.7C8316.61 11425.7 8372.22 11419.3 8426.56 11406.6L12422.6 10482.4C12796.3 10396.3 13032.9 10040.1 12950.5 9687.69ZM12392.3 10351.3L8396.35 11275.5C8096.03 11344.9 7798.3 11174.3 7732.69 10895.8L5576.21 1717.05C5510.84 1437.56 5702.01 1153.67 6002.45 1083.86L6953.35 863.402C7022.78 849.685 7089.88 889.611 7103.32 952.441L7134.77 1086.31C7164.12 1222.01 7303.98 1308.23 7446.93 1278.59L8962.07 927.456H8963.68C9030.61 910.698 9088.47 868.987 9125.24 810.983C9143.46 782.707 9155.63 751.016 9161 717.875C9166.36 684.734 9164.82 650.852 9156.45 618.33L9125.61 487.282V485.568C9121.78 470.714 9121.09 455.235 9123.57 440.101C9126.06 424.968 9131.66 410.509 9140.04 397.631C9158.41 369.005 9187.08 348.416 9220.21 340.068L9995.24 160.398L9999.68 159.173C10142.9 124.94 10293.9 146.643 10421.5 219.798C10481.7 253.867 10534.1 299.891 10575.6 354.996C10617 410.101 10646.6 473.103 10662.5 540.069L12818.5 9718.93C12883.8 9998.29 12692.7 10281.9 12392.3 10351.3Z" fill="#00B761"/>
<path d="M17755.3 11544.5H427.73C391.425 11544.5 361.994 11583.3 361.994 11631.2C361.994 11679.2 391.425 11718 427.73 11718H17755.3C17791.6 11718 17821 11679.2 17821 11631.2C17821 11583.3 17791.6 11544.5 17755.3 11544.5Z" fill="#0D8394"/>
<path d="M2269.53 5912.34C2269.53 5912.34 1961.2 5847.3 1893.61 6544.67C1826.03 7242.04 1845.14 7621.1 1845.14 7621.1C1845.14 7621.1 1814.56 7773.71 1699.37 7726.92C1584.17 7680.14 1378.7 7499.73 1252.04 7596C1120.19 7696.06 1136.6 7879.89 1260.67 8110.39C1384.74 8340.89 1637.7 8856.38 1660.39 8903.9C1683.09 8951.42 1682.84 9029.81 1598.73 9010.7C1514.61 8991.59 967.876 8719.33 853.547 8984.61C739.217 9249.89 1190.37 9836.18 1238.47 9901.21C1286.57 9966.25 1284.6 10002.7 1257.09 10034.3C1229.59 10065.9 1054.46 9957.18 895.85 9885.54C737.244 9813.89 540.034 9759.75 487.494 9918.6C434.954 10077.5 598.494 10585.2 1392.27 11204.6L1778.79 11467.7L2207.87 11273.1C3098.09 10800.5 3349.07 10328.6 3323.66 10162.6C3298.26 9996.5 3096.11 10017.1 2927.27 10059.6C2758.43 10102.1 2566.89 10178.9 2544.94 10143.1C2522.98 10107.3 2527.79 10070.8 2586.38 10015C2644.96 9959.14 3193.05 9460.43 3126.95 9179.1C3060.84 8897.78 2474.64 9071.32 2388.43 9075.86C2302.22 9080.39 2316.77 9001.15 2346.86 8959.87C2376.96 8918.6 2716.86 8454.42 2879.66 8248.79C3042.46 8043.15 3090.19 7865.44 2978.33 7743.7C2870.41 7626.61 2636.94 7769.17 2514.97 7794.77C2392.99 7820.37 2390.03 7665.44 2390.03 7665.44C2390.03 7665.44 2476.36 7295.57 2531.37 6596.97C2586.38 5898.38 2263.74 5911.11 2263.74 5911.11" fill="#66D4A0"/>
<path d="M1740.07 11573C1782.74 11060.3 1874.01 10150 1948.13 9368.45C2022.25 8586.94 2088.85 7879.15 2134.12 7366.6C2156.44 7110.87 2175.93 6902.79 2187.03 6759.61C2193.44 6688.33 2198.13 6632.73 2201.7 6594.52C2203.31 6576.02 2204.79 6561.82 2205.77 6551.53C2206.76 6541.24 2207.62 6536.96 2207.62 6536.96C2207.62 6536.96 2207.62 6541.85 2207.62 6551.53L2205.03 6594.76L2192.7 6759.74C2181.97 6903.15 2166.06 7109.89 2144.11 7367.21C2101.43 7879.89 2036.56 8587.79 1962.44 9369.67C1888.31 10151.5 1795.57 11061.3 1750.3 11573.8" fill="#008949"/>
<path d="M1527.68 7860.17C1535.97 7867.89 1543.48 7876.38 1550.13 7885.52C1563.94 7902.06 1583.43 7926.8 1606.74 7957.29C1653.73 8018.53 1717.74 8105.86 1784.58 8202.24L1957.25 8450.87L2009.79 8525.82C2016.52 8534.34 2022.27 8543.59 2026.93 8553.38C2018.38 8546.17 2010.76 8537.94 2004.24 8528.88C1990.3 8512.23 1970.94 8487.61 1947.88 8456.62C1901.26 8394.53 1839.34 8307.2 1771.76 8210.2L1597.86 7963.05L1544.7 7888.46C1537.74 7879.86 1532.01 7870.34 1527.68 7860.17V7860.17Z" fill="#008949"/>
<path d="M2071.73 8546.52C2069.39 8543.21 2243.65 8406.53 2460.84 8240.33C2678.03 8074.14 2856.37 7943.21 2858.72 7946.39C2861.06 7949.58 2686.91 8086.26 2469.72 8252.58C2252.53 8418.9 2075.06 8549.83 2071.73 8546.52Z" fill="#008949"/>
<path d="M1903.36 9741.99C1913.33 9735.66 1924.06 9730.6 1935.3 9726.93L2022.87 9693.13C2097.61 9664.71 2198.37 9625.77 2309.74 9576.04C2421.11 9526.32 2519.41 9481 2591.07 9446.46L2675.67 9405.43C2685.81 9399.92 2696.47 9395.41 2707.49 9391.96C2698.49 9399.08 2688.78 9405.28 2678.51 9410.45C2659.15 9421.48 2631.15 9437.15 2595.75 9455.65C2525.7 9492.51 2427.03 9540.77 2316.03 9589.76C2205.03 9638.75 2101.93 9676.84 2026.82 9703.05C1989.82 9715.29 1958.98 9726.19 1937.65 9732.69C1926.56 9736.9 1915.07 9740.02 1903.36 9741.99V9741.99Z" fill="#008949"/>
<path d="M1273.38 9228.83C1283.07 9233.6 1292.07 9239.66 1300.14 9246.83L1369.57 9299C1427.54 9343.22 1507.34 9405.56 1594.9 9475.12C1682.47 9544.69 1761.28 9608.01 1817.64 9654.55L1884.24 9710.15C1892.76 9716.63 1900.54 9724.03 1907.43 9732.2C1897.82 9727.53 1888.87 9721.64 1880.79 9714.68L1810.37 9663.24C1752.03 9618.79 1672.23 9556.57 1584.79 9487C1497.35 9417.44 1418.54 9354.12 1361.93 9307.45L1295.45 9251.85C1287.2 9245.07 1279.79 9237.34 1273.38 9228.83V9228.83Z" fill="#008949"/>
<path d="M989.822 10265.3C1001.62 10272 1012.87 10279.5 1023.49 10287.9L1113.03 10354.5C1188.02 10411.1 1291 10490.1 1403.73 10578.1C1516.45 10666.2 1618.82 10746.3 1691.83 10804.8L1778.91 10876.6C1789.94 10884.8 1800.22 10893.9 1809.62 10903.9C1797.49 10897.5 1786.08 10889.8 1775.58 10881L1686.04 10814.5C1611.17 10757.9 1508.07 10678.8 1395.46 10590.9C1282.86 10502.9 1180.13 10420.5 1106.5 10362.7L1019.42 10290.9C1008.67 10283.5 998.742 10274.9 989.822 10265.3V10265.3Z" fill="#008949"/>
<path d="M1793.2 10881.9C1805.76 10874.3 1819.01 10867.9 1832.79 10862.9L1942.31 10816C2034.93 10776.2 2162.21 10720.8 2301.83 10655C2441.44 10589.3 2565.39 10528 2655.05 10482.5L2761.49 10428.7C2774.05 10421.4 2787.21 10415.3 2800.83 10410.2C2789.22 10419.1 2776.84 10426.8 2763.83 10433.5C2739.17 10447.8 2703.77 10467.8 2659.37 10491.5C2570.57 10540.5 2447.36 10601.8 2307.62 10668C2167.89 10734.3 2039.87 10787.1 1946.26 10824.5C1899.51 10843.2 1861.4 10857.9 1834.39 10867C1821.04 10873 1807.27 10877.9 1793.2 10881.9V10881.9Z" fill="#008949"/>
<path d="M15954.7 7314.79C15954.7 7314.79 15693.5 7357.29 15787.2 7873.64C15881 8389.99 15976.1 8654.42 15976.1 8654.42C15976.1 8654.42 15984.1 8771.5 15884 8771.99C15784 8772.48 15585.8 8702.79 15507 8808.74C15425.4 8918.35 15476.2 9044.25 15621.8 9172.73C15767.5 9301.21 16074.1 9595.39 16101.2 9621.6C16128.4 9647.81 16145.6 9705 16075.8 9715.54C16006 9726.07 15520.8 9690.06 15487.9 9912.23C15455 10134.4 15931 10421.2 15982.2 10453.7C16033.4 10486.1 16039.6 10513 16024.6 10543.3C16009.7 10573.7 15850 10546.9 15710.9 10542.1C15571.8 10537.3 15407.4 10554.4 15398.6 10683.5C15389.9 10812.5 15625.2 11126.8 16375.8 11338.8L16735.3 11416L17028.3 11155.8C17624.7 10562.1 17721.2 10153.8 17667.3 10042.9C17613.4 9932.07 17458.6 10004.8 17335.8 10083.8C17213 10162.8 17079 10272.4 17054.4 10253.1C17029.7 10233.7 17026 10206.5 17060.2 10150C17094.3 10093.4 17416.8 9579.71 17306 9398.7C17195.1 9217.68 16773.5 9510.39 16707.3 9538.32C16641.1 9566.24 16634.9 9507.09 16650.3 9467.89C16665.7 9428.7 16833.5 9000.53 16917.2 8807.14C17001 8613.76 17001.3 8472.79 16888.1 8418.78C16779 8366.85 16626.9 8535.37 16536.9 8589.26C16446.8 8643.15 16411.3 8533.29 16411.3 8533.29C16411.3 8533.29 16400.6 8245.11 16296.8 7731.57C16193.1 7218.04 15949.4 7316.63 15949.4 7316.63" fill="#66D4A0"/>
<path d="M16765.7 11490.8C16693.2 11112.5 16554.5 10443.3 16439.9 9867.28C16325.3 9291.29 16223.2 8769.3 16152.9 8390.61C16117.1 8200.53 16089.7 8047.68 16071.1 7941.49L16050 7819.02L16045 7787.05C16043.9 7779.71 16043.6 7776.03 16043.6 7776.03C16043.6 7776.03 16044.5 7779.09 16046.1 7786.69C16047.7 7794.28 16049.8 7804.81 16052.4 7818.41C16057.9 7846.58 16065.6 7887.61 16075.8 7940.15C16094.8 8046.09 16125.1 8199.43 16161 8388.16C16233.6 8766.36 16336.8 9287.61 16451.5 9863.61C16566.2 10439.6 16703.6 11109.7 16773.9 11488.1" fill="#008949"/>
<path d="M16672.7 8685.89L16635.7 8750.56L16512.3 8964.4C16464.7 9048.3 16421 9123.62 16387.8 9178.12C16371.4 9205.06 16357.4 9227.11 16347.4 9241.56C16342.7 9249.58 16337.1 9257.05 16330.8 9263.85C16334.1 9255.61 16338.2 9247.73 16343.1 9240.34L16380.1 9175.43L16501.9 8960.73C16549.2 8877.32 16594.5 8801.51 16628 8747.62C16644.7 8721.04 16658.6 8699.37 16668.6 8684.55C16673.3 8676.56 16678.8 8669.01 16684.9 8662.01C16681.9 8670.47 16677.8 8678.5 16672.7 8685.89V8685.89Z" fill="#008949"/>
<path d="M15952.9 9108.92C15766.1 9019.27 15616.2 8944.56 15617.9 8941.62C15619.6 8938.68 15772.6 9008.86 15959.2 9098.51C16145.8 9188.16 16295.9 9262.87 16294.1 9265.69C16292.4 9268.51 16139.5 9198.57 15952.9 9108.92Z" fill="#008949"/>
<path d="M16485.7 10136C16468.1 10134.5 16442.2 10131.7 16411.7 10128C16349.4 10120.4 16263.7 10107.9 16170.7 10089.5C16077.7 10071 15994.9 10050.3 15935.7 10033.9C15905.8 10025.6 15882.1 10018.4 15865.7 10013.3C15857.2 10011.1 15848.9 10008 15841.1 10004C15850.1 10004.8 15859 10006.5 15867.7 10009.1L15938.7 10026.3C15998.6 10040.7 16081.3 10059 16174.6 10078.4C16267.8 10097.9 16351.8 10110.9 16413.9 10120.2L16487 10131.6C16496.1 10132.4 16505.1 10134.5 16513.7 10137.7C16504.4 10138 16495 10137.4 16485.7 10136Z" fill="#008949"/>
<path d="M16969.4 9671.08L16920 9723.62C16877.7 9767.83 16818.8 9828.09 16753.2 9895.09C16687.5 9962.08 16627.6 10021.2 16583.7 10064L16530.4 10113.8C16524.4 10120.4 16517.7 10126.3 16510.3 10131.3C16515.3 10124 16521 10117.2 16527.5 10111L16576.8 10058.5C16619 10014.4 16678.2 9954 16743.8 9887C16809.4 9820.01 16869.3 9761.22 16912.9 9718.23L16965.2 9667.77C16971.2 9661.17 16978.1 9655.29 16985.5 9650.26C16980.9 9657.77 16975.5 9664.75 16969.4 9671.08V9671.08Z" fill="#008949"/>
<path d="M17264.8 10408.1L17199.7 10476.1C17144.3 10531.5 17067.5 10610.1 16982.7 10694.4C16898 10778.6 16820.7 10854.7 16764.3 10909.4L16696.7 10973.7C16688.9 10982.1 16680.2 10989.7 16670.9 10996.5C16677.9 10987.4 16685.5 10978.9 16693.8 10971L16758.9 10902.9C16813.6 10847.2 16890.6 10770.3 16975.2 10686C17059.8 10601.8 17137.4 10525.7 17193.8 10471.1L17261.2 10406.5C17269.2 10398.4 17277.8 10390.9 17286.9 10384C17280.3 10392.7 17272.9 10400.8 17264.8 10408.1Z" fill="#008949"/>
<path d="M16648.2 10972.7C16625.9 10970.2 16594.1 10965.1 16555.1 10958.8C16477.1 10945.7 16370.1 10926.4 16253 10899.3C16135.8 10872.1 16032.1 10845.2 15957 10823.2C15920 10812.4 15889.4 10803.2 15868.6 10796.4C15857.9 10793.5 15847.4 10789.7 15837.3 10784.9C15848.5 10786.4 15859.6 10788.9 15870.4 10792.3L15959.9 10815.7C16035.3 10835.4 16139.5 10861.5 16256.7 10888.5C16373.8 10915.4 16480.3 10936.6 16557.7 10951.7L16649.2 10969.3C16660.5 10970.8 16671.6 10973.5 16682.4 10977.2C16670.9 10976.5 16659.5 10975.1 16648.2 10972.7V10972.7Z" fill="#008949"/>
<path d="M12947.9 2174.17C12948.1 2313.27 12893.4 2446.91 12795.6 2546.49C12748.1 2595.32 12691.2 2634.18 12628.3 2660.77C12565.3 2687.37 12497.7 2701.15 12429.3 2701.3H6389.55C6081.22 2701.3 5829.12 2464.06 5829.12 2174.66C5829.47 2104.71 5844.26 2035.58 5872.58 1971.54C5900.9 1907.5 5942.15 1849.91 5993.77 1802.33C6100.89 1702.33 6242.54 1646.93 6389.55 1647.53H12429.3C12714.7 1647.04 12947.9 1884.27 12947.9 2174.17Z" fill="#66D4A0"/>
<path d="M12947.9 2174.17C12948.1 2313.27 12893.4 2446.91 12795.6 2546.49C12748.1 2595.32 12691.2 2634.18 12628.3 2660.77C12565.4 2687.37 12497.7 2701.15 12429.3 2701.3H11336.6V1647.04H12429.3C12714.7 1647.04 12947.9 1884.27 12947.9 2174.17Z" fill="#00B761"/>
<path d="M6598.85 2078.15C6587.13 2058.67 6554.82 2040.18 6517.57 2040.18C6469.47 2040.18 6446.41 2060.14 6446.41 2085.5C6446.41 2115.13 6481.8 2123.46 6522.87 2128.24C6594.53 2137.06 6661.13 2155.55 6661.13 2236.87C6661.13 2312.81 6593.54 2345.39 6517.08 2345.39C6446.9 2345.39 6393 2323.95 6367.6 2261.61L6421.49 2233.93C6436.66 2271.41 6476.38 2287.95 6518.06 2287.95C6559.75 2287.95 6596.87 2273.86 6596.87 2236.87C6596.87 2204.66 6563.08 2191.56 6517.57 2186.66C6447.39 2178.45 6382.77 2159.96 6382.77 2083.54C6382.77 2013.48 6452.33 1984.7 6515.6 1984.21C6569 1984.21 6624.38 1999.4 6650.4 2051.94L6598.85 2078.15Z" fill="white"/>
<path d="M6773.32 2237.85C6777.27 2267.49 6803.17 2288.93 6845.34 2288.93C6868.91 2289.25 6891.84 2281.32 6910.09 2266.51L6948.33 2303.99C6920.08 2329.89 6882.79 2343.86 6844.36 2342.94C6761.11 2342.94 6711.53 2291.86 6711.53 2214.95C6711.53 2141.47 6761.6 2089.41 6839.92 2089.41C6920.82 2089.41 6971.27 2139.02 6962.02 2237.85H6773.32ZM6904.67 2188.86C6900.72 2157.75 6876.3 2142.2 6841.89 2142.2C6809.58 2142.2 6783.19 2157.75 6774.31 2188.86H6904.67Z" fill="white"/>
<path d="M7200.04 2096.64H7257.39V2336.57H7200.04L7197.2 2301.54C7183.39 2329.83 7145.65 2343.43 7118.76 2343.92C7047.23 2343.92 6994.2 2300.56 6994.2 2216.42C6994.2 2132.28 7049.57 2090.4 7120.24 2090.89C7135.33 2090.35 7150.31 2093.63 7163.78 2100.42C7177.24 2107.21 7188.74 2117.29 7197.2 2129.71L7200.04 2096.64ZM7054.51 2216.79C7053.84 2226.4 7055.22 2236.04 7058.55 2245.09C7061.88 2254.14 7067.08 2262.4 7073.82 2269.32C7080.56 2276.25 7088.7 2281.69 7097.69 2285.3C7106.69 2288.91 7116.34 2290.61 7126.04 2290.27C7220.14 2290.27 7220.14 2144.77 7126.04 2144.77C7116.45 2144.38 7106.9 2145.99 7097.97 2149.48C7089.05 2152.98 7080.96 2158.29 7074.23 2165.07C7067.49 2171.85 7062.26 2179.95 7058.86 2188.86C7055.47 2197.77 7053.98 2207.28 7054.51 2216.79V2216.79Z" fill="white"/>
<path d="M7362.68 2096.64L7367.12 2124.44C7385.74 2094.68 7410.65 2090.39 7435.2 2090.39C7457.88 2090.18 7479.84 2098.29 7496.86 2113.18L7469.85 2164.86C7464.06 2159.54 7457.26 2155.41 7449.85 2152.72C7442.44 2150.03 7434.57 2148.83 7426.69 2149.18C7395.36 2149.18 7366.5 2165.84 7366.5 2210.42V2336.94H7307.3V2096.64H7362.68Z" fill="white"/>
<path d="M7727.24 2305.95C7715.23 2318.36 7700.75 2328.14 7684.71 2334.68C7668.68 2341.22 7651.45 2344.36 7634.13 2343.92C7564.07 2343.92 7505.74 2302.03 7505.74 2216.91C7505.74 2131.79 7564.07 2089.9 7634.13 2089.9C7650.37 2089.34 7666.54 2092.21 7681.58 2098.34C7696.61 2104.46 7710.16 2113.69 7721.32 2125.42L7683.58 2164.86C7670.34 2152.81 7653.08 2146.04 7635.11 2145.87C7625.74 2145.63 7616.41 2147.31 7607.72 2150.81C7599.03 2154.32 7591.16 2159.57 7584.61 2166.25C7578.07 2172.92 7572.98 2180.86 7569.68 2189.58C7566.38 2198.3 7564.93 2207.61 7565.43 2216.91C7564.76 2226.12 7566.06 2235.38 7569.25 2244.05C7572.44 2252.73 7577.44 2260.64 7583.93 2267.26C7590.42 2273.88 7598.25 2279.06 7606.9 2282.45C7615.56 2285.85 7624.83 2287.39 7634.13 2286.97C7643.84 2287.32 7653.53 2285.74 7662.62 2282.31C7671.71 2278.88 7680.01 2273.68 7687.04 2267L7727.24 2305.95Z" fill="white"/>
<path d="M7813.45 1996.33V2129.59C7822.09 2117.92 7833.47 2108.54 7846.61 2102.27C7859.75 2095.99 7874.24 2093.01 7888.8 2093.58C7957.5 2093.58 7987.47 2139.87 7987.47 2210.42V2336.94H7927.65V2210.54C7927.65 2166.7 7904.71 2148.2 7872.77 2148.2C7837.5 2148.2 7813.08 2177.96 7813.08 2213.97V2336.45H7753.26V1996.33H7813.45Z" fill="white"/>
<path d="M8107.32 2305.95C8107.32 2352.12 8036.78 2352.12 8036.78 2305.95C8036.78 2259.78 8107.32 2259.65 8107.32 2305.95Z" fill="white"/>
<path d="M8225.88 2305.95C8225.88 2352.12 8155.34 2352.12 8155.34 2305.95C8155.34 2259.78 8225.88 2259.65 8225.88 2305.95Z" fill="white"/>
<path d="M8344.57 2305.95C8344.57 2352.12 8273.9 2352.12 8273.9 2305.95C8273.9 2259.78 8344.57 2259.65 8344.57 2305.95Z" fill="white"/>
<path d="M11726.4 2473.98C11730.8 2478.38 11736.9 2480.85 11743.2 2480.85C11749.4 2480.85 11755.5 2478.38 11759.9 2473.98L11936 2301.17C11986.1 2338.12 12048.5 2354.55 12110.4 2347.05C12172.2 2339.56 12228.9 2308.72 12268.5 2260.93C12308.1 2213.13 12327.7 2152.03 12323.2 2090.29C12318.7 2028.54 12290.5 1970.88 12244.3 1929.24C12198.2 1887.59 12137.7 1865.16 12075.4 1866.59C12013.1 1868.01 11953.7 1893.18 11909.5 1936.89C11865.4 1980.59 11839.8 2039.48 11838.2 2101.37C11836.6 2163.25 11859 2223.39 11900.8 2269.33L11725.9 2440.79C11721.6 2445.29 11719.2 2451.29 11719.3 2457.49C11719.4 2463.69 11722 2469.61 11726.4 2473.98V2473.98ZM12081.1 2301.66C12042.6 2301.66 12004.9 2290.32 11972.9 2269.07C11940.9 2247.82 11915.9 2217.62 11901.2 2182.28C11886.4 2146.94 11882.6 2108.06 11890.1 2070.55C11897.6 2033.03 11916.1 1998.58 11943.4 1971.53C11970.6 1944.48 12005.3 1926.07 12043.1 1918.6C12080.9 1911.14 12120 1914.97 12155.6 1929.61C12191.2 1944.25 12221.6 1969.03 12243 2000.83C12264.4 2032.64 12275.8 2070.03 12275.8 2108.27C12275.7 2159.54 12255.2 2208.68 12218.6 2244.91C12182.1 2281.14 12132.6 2301.51 12081 2301.54L12081.1 2301.66Z" fill="white"/>
<path d="M12280.9 3312.32H6308.86C6050.57 3312.32 5841.18 3520.25 5841.18 3776.75V4740.99C5841.18 4997.48 6050.57 5205.41 6308.86 5205.41H12280.9C12539.2 5205.41 12748.6 4997.48 12748.6 4740.99V3776.75C12748.6 3520.25 12539.2 3312.32 12280.9 3312.32Z" fill="#008949"/>
<path d="M12172.5 3251.09H6200.44C5942.14 3251.09 5732.76 3459.02 5732.76 3715.51V4679.75C5732.76 4936.25 5942.14 5144.17 6200.44 5144.17H12172.5C12430.8 5144.17 12640.1 4936.25 12640.1 4679.75V3715.51C12640.1 3459.02 12430.8 3251.09 12172.5 3251.09Z" fill="#F5F5F9"/>
<path d="M12280.9 5974.43H6308.86C6050.57 5974.43 5841.18 6182.36 5841.18 6438.86V7403.1C5841.18 7659.59 6050.57 7867.52 6308.86 7867.52H12280.9C12539.2 7867.52 12748.6 7659.59 12748.6 7403.1V6438.86C12748.6 6182.36 12539.2 5974.43 12280.9 5974.43Z" fill="#008949"/>
<path d="M12172.5 5913.32H6200.44C5942.14 5913.32 5732.76 6121.25 5732.76 6377.74V7341.98C5732.76 7598.48 5942.14 7806.41 6200.44 7806.41H12172.5C12430.8 7806.41 12640.1 7598.48 12640.1 7341.98V6377.74C12640.1 6121.25 12430.8 5913.32 12172.5 5913.32Z" fill="#F5F5F9"/>
<path d="M12280.9 8435.8H6308.86C6050.57 8435.8 5841.18 8643.73 5841.18 8900.22V9864.47C5841.18 10121 6050.57 10328.9 6308.86 10328.9H12280.9C12539.2 10328.9 12748.6 10121 12748.6 9864.47V8900.22C12748.6 8643.73 12539.2 8435.8 12280.9 8435.8Z" fill="#008949"/>
<path d="M12172.5 8374.69H6200.44C5942.14 8374.69 5732.76 8582.62 5732.76 8839.11V9803.35C5732.76 10059.8 5942.14 10267.8 6200.44 10267.8H12172.5C12430.8 10267.8 12640.1 10059.8 12640.1 9803.35V8839.11C12640.1 8582.62 12430.8 8374.69 12172.5 8374.69Z" fill="#F5F5F9"/>
<path d="M8985.5 3791.2H6692.25C6641.84 3791.2 6600.98 3831.78 6600.98 3881.83V3881.95C6600.98 3932.01 6641.84 3972.58 6692.25 3972.58H8985.5C9035.91 3972.58 9076.77 3932.01 9076.77 3881.95V3881.83C9076.77 3831.78 9035.91 3791.2 8985.5 3791.2Z" fill="#00B761"/>
<path d="M11170.7 3791.2H9437.53C9387.12 3791.2 9346.26 3831.78 9346.26 3881.83V3881.95C9346.26 3932.01 9387.12 3972.58 9437.53 3972.58H11170.7C11221.1 3972.58 11262 3932.01 11262 3881.95V3881.83C11262 3831.78 11221.1 3791.2 11170.7 3791.2Z" fill="#00B761"/>
<path d="M8985.5 6482.33H6692.25C6641.84 6482.33 6600.98 6522.91 6600.98 6572.96V6573.09C6600.98 6623.14 6641.84 6663.72 6692.25 6663.72H8985.5C9035.91 6663.72 9076.77 6623.14 9076.77 6573.09V6572.96C9076.77 6522.91 9035.91 6482.33 8985.5 6482.33Z" fill="#00B761"/>
<path d="M11170.7 6482.33H9437.53C9387.12 6482.33 9346.26 6522.91 9346.26 6572.96V6573.09C9346.26 6623.14 9387.12 6663.72 9437.53 6663.72H11170.7C11221.1 6663.72 11262 6623.14 11262 6573.09V6572.96C11262 6522.91 11221.1 6482.33 11170.7 6482.33Z" fill="#00B761"/>
<path d="M8985.5 8885.41H6692.25C6641.84 8885.41 6600.98 8925.99 6600.98 8976.04V8976.16C6600.98 9026.21 6641.84 9066.79 6692.25 9066.79H8985.5C9035.91 9066.79 9076.77 9026.21 9076.77 8976.16V8976.04C9076.77 8925.99 9035.91 8885.41 8985.5 8885.41Z" fill="#00B761"/>
<path d="M11170.7 8885.41H9437.53C9387.12 8885.41 9346.26 8925.98 9346.26 8976.04V8976.16C9346.26 9026.21 9387.12 9066.79 9437.53 9066.79H11170.7C11221.1 9066.79 11262 9026.21 11262 8976.16V8976.04C11262 8925.98 11221.1 8885.41 11170.7 8885.41Z" fill="#00B761"/>
<path d="M7808.66 4704.74H6672.64C6633.05 4704.74 6600.98 4667.99 6600.98 4622.92C6600.98 4577.73 6633.05 4540.99 6672.64 4540.99H7808.66C7848.25 4540.99 7880.32 4577.73 7880.32 4622.92C7880.32 4668.12 7848.25 4704.74 7808.66 4704.74Z" fill="#00B761"/>
<path d="M8682.84 4197.69H6663.27C6628.87 4197.69 6600.98 4225.38 6600.98 4259.54V4299.59C6600.98 4333.75 6628.87 4361.44 6663.27 4361.44H8682.84C8717.24 4361.44 8745.13 4333.75 8745.13 4299.59V4259.54C8745.13 4225.38 8717.24 4197.69 8682.84 4197.69Z" fill="#00B761"/>
<path d="M10880.5 4197.69H9002.93C8968.53 4197.69 8940.64 4225.38 8940.64 4259.54V4299.59C8940.64 4333.75 8968.53 4361.44 9002.93 4361.44H10880.5C10914.9 4361.44 10942.8 4333.75 10942.8 4299.59V4259.54C10942.8 4225.38 10914.9 4197.69 10880.5 4197.69Z" fill="#00B761"/>
<path d="M9225.53 4704.74H8089.51C8049.92 4704.74 8017.86 4667.99 8017.86 4622.92C8017.86 4577.73 8049.92 4540.99 8089.51 4540.99H9225.53C9265.12 4540.99 9297.19 4577.73 9297.19 4622.92C9296.7 4668.12 9265.12 4704.74 9225.53 4704.74Z" fill="#00B761"/>
<path d="M7808.66 7365.87H6672.64C6633.05 7365.87 6600.98 7329.12 6600.98 7283.93C6600.98 7238.74 6633.05 7202.12 6672.64 7202.12H7808.66C7848.25 7202.12 7880.32 7238.86 7880.32 7283.93C7880.32 7329.25 7848.25 7365.87 7808.66 7365.87Z" fill="#00B761"/>
<path d="M8682.84 6858.7H6663.27C6628.87 6858.7 6600.98 6886.39 6600.98 6920.55V6960.6C6600.98 6994.76 6628.87 7022.45 6663.27 7022.45H8682.84C8717.24 7022.45 8745.13 6994.76 8745.13 6960.6V6920.55C8745.13 6886.39 8717.24 6858.7 8682.84 6858.7Z" fill="#00B761"/>
<path d="M10880.5 6858.7H9002.93C8968.53 6858.7 8940.64 6886.39 8940.64 6920.55V6960.6C8940.64 6994.75 8968.53 7022.44 9002.93 7022.44H10880.5C10914.9 7022.44 10942.8 6994.75 10942.8 6960.6V6920.55C10942.8 6886.39 10914.9 6858.7 10880.5 6858.7Z" fill="#00B761"/>
<path d="M9225.53 7365.87H8089.51C8049.92 7365.87 8017.86 7329.12 8017.86 7283.93C8017.86 7238.74 8049.92 7202.12 8089.51 7202.12H9225.53C9265.12 7202.12 9297.19 7238.86 9297.19 7283.93C9296.7 7329.25 9265.12 7365.87 9225.53 7365.87Z" fill="#00B761"/>
<path d="M7808.66 9784.13H6672.64C6633.05 9784.13 6600.98 9747.38 6600.98 9702.31C6600.98 9657.12 6633.05 9620.5 6672.64 9620.5H7808.66C7848.25 9620.5 7880.32 9657.24 7880.32 9702.31C7880.32 9747.51 7848.25 9784.13 7808.66 9784.13Z" fill="#00B761"/>
<path d="M8682.84 9277.08H6663.27C6628.87 9277.08 6600.98 9304.77 6600.98 9338.93V9378.98C6600.98 9413.14 6628.87 9440.83 6663.27 9440.83H8682.84C8717.24 9440.83 8745.13 9413.14 8745.13 9378.98V9338.93C8745.13 9304.77 8717.24 9277.08 8682.84 9277.08Z" fill="#00B761"/>
<path d="M10880.5 9277.08H9002.93C8968.53 9277.08 8940.64 9304.77 8940.64 9338.93V9378.98C8940.64 9413.14 8968.53 9440.83 9002.93 9440.83H10880.5C10914.9 9440.83 10942.8 9413.14 10942.8 9378.98V9338.93C10942.8 9304.77 10914.9 9277.08 10880.5 9277.08Z" fill="#00B761"/>
<path d="M9225.53 9784.13H8089.51C8049.92 9784.13 8017.86 9747.38 8017.86 9702.31C8017.86 9657.12 8049.92 9620.5 8089.51 9620.5H9225.53C9265.12 9620.5 9297.19 9657.24 9297.19 9702.31C9296.7 9747.51 9265.12 9784.13 9225.53 9784.13Z" fill="#00B761"/>
<path d="M12441.6 4018.63C12441.6 4018.63 12407.4 3942.09 12385.2 3905.84C12363 3869.58 12268.1 3763.4 12252 3787.4C12235.8 3811.41 12171.3 3973.32 12205.6 4018.63C12239.9 4063.95 12203.4 4142.7 12373.9 4190.1L12441.6 4018.63Z" fill="#F9C29D"/>
<path d="M14337.3 3535.23C14337.3 3535.23 13464 4259.17 13123.4 4192.06C12857.2 4139.76 12448.6 4000.51 12448.6 4000.51L12366.9 4208.1C12366.9 4208.1 12733.3 4701.8 13115.4 4704.98C13712.6 4710.12 14153.9 4447.78 14153.9 4447.78L14337.3 3535.23Z" fill="#008949"/>
<path d="M15868.8 11131.7C15868.8 11131.7 15844.1 11537.8 15764.3 11543.6C15753.8 11544.4 15363.1 11544.4 15363.1 11544.4L14864.2 11541.5C14864.2 11541.5 14867.5 11422.2 15013.3 11397C15159.1 11371.7 15403.2 11270 15491.5 11078.5C15584.5 10877.2 15868.8 11131.7 15868.8 11131.7Z" fill="#1C1C1C"/>
<path d="M15897.5 11198.7C15897.5 11198.7 15745.9 11249.2 15627.5 11249.2C15542.3 11248.1 15457.5 11236 15375.4 11213.4C15375.4 11213.4 15346.9 10939.2 15190.4 10335.1C15108 10018.5 14990.4 9611.43 14823.1 9105.61C14360.4 7707.57 14219.7 6889.68 14206.5 6812.28C14206.5 6808.11 14205.5 6806.16 14205.5 6806.16L14207.1 6805.42L15629.2 6184.96C15629.2 6184.96 15453.5 8111.86 15677.7 8851.36C15711.8 8967.79 15739 9086.1 15759.1 9205.68C15900.8 10009.4 15897.5 11198.7 15897.5 11198.7Z" fill="#0D8394"/>
<path d="M15189.9 10335.1C15107.5 10018.5 14989.8 9611.44 14822.6 9105.62C14359.8 7707.57 14219.1 6889.68 14205.9 6812.28C14205.8 6809.99 14205.8 6807.71 14205.9 6805.42L15629.3 6184.96C15629.3 6184.96 15453.6 8111.86 15677.8 8851.36C15709.2 8954.97 15189.9 10335.1 15189.9 10335.1Z" fill="#0E747C"/>
<path d="M14757.7 11131.7C14757.7 11131.7 14733.1 11537.8 14653.3 11543.6C14642.8 11544.4 14252 11544.4 14252 11544.4L13753.2 11541.5C13753.2 11541.5 13756.5 11422.2 13902.3 11397C14048.1 11371.7 14292.2 11270 14380.5 11078.5C14473.3 10877.2 14757.7 11131.7 14757.7 11131.7Z" fill="#1C1C1C"/>
<path d="M13951.3 6230.65C13951.3 6230.65 13932.8 7479.28 14150.3 9012.29C14367.9 10545.3 14294.1 11196.1 14294.1 11196.1C14294.1 11196.1 14443.6 11244.3 14503.8 11249.2C14657.5 11261.4 14815.1 11213.3 14815.1 11213.3C14815.1 11213.3 15126.4 9679.66 15037.1 8912.35C14947.8 8145.05 15463.4 6279.15 15463.4 6279.15L13951.3 6230.65Z" fill="#0D8394"/>
<path d="M14959.9 3308.77L14682.3 3489.54L14429.3 3418.51C14383.1 3352.98 14370.9 3226.71 14370.3 3117.34C14369.9 3050.39 14373.2 2983.46 14380.1 2916.85L14754.8 2752.61L14894.6 2691.38C14894.6 2693.58 14883.7 2805.4 14882.2 2821.69C14856.1 3111.71 14959.9 3308.77 14959.9 3308.77Z" fill="#E2B596"/>
<path d="M13944.8 6577.74C14290.2 6909.16 15598.5 6853.43 15679 6488.33C15759.6 6123.24 15591.2 3380.42 15000.7 3208.1C14878.2 3172.33 14223.7 3382.5 14223.7 3382.5C14151.5 3580.19 14094.6 3783.07 14053.5 3989.36C14040.4 4055.62 14002.3 4756.54 13973.7 5412.27C13960.4 5718.46 13949 6015.83 13943.4 6232.85C13937.7 6436.77 13937.4 6570.51 13944.8 6577.74Z" fill="#00B761"/>
<path d="M14854.1 2826.96C14778.1 2954.57 14511.5 3066.15 14370.3 3117.34C14369.9 3050.38 14373.2 2983.46 14380.1 2916.85L14754.8 2752.61C14837.6 2751.63 14888 2770 14854.1 2826.96Z" fill="#E2B596"/>
<path d="M14238.8 2894.19C14238.8 2894.19 14842.4 3081.21 14954.1 2706.07C15065.8 2330.93 15218.5 2102.52 14837.9 1967.31C14457.3 1832.1 14339.5 1953.22 14271.6 2069.33C14203.6 2185.43 14084.7 2835.9 14238.8 2894.19Z" fill="#F9C29D"/>
<path d="M14295.2 2033.08C14295.2 2033.08 14333.7 2469.57 14424.6 2450.59C14515.4 2431.61 14615.5 2391.19 14602.2 2522.73C14588.8 2654.27 14690.6 2879.86 14821.6 2879.25C15102.6 2878.15 15408.1 2161.8 15331.2 2025.97C15109.2 1634.18 13974.1 1555.42 14295.2 2033.08Z" fill="#151515"/>
<path d="M14383.8 3217.53C14391.7 3214.34 14833.2 3017.53 14884.9 3034.55C14936.6 3051.57 15000.8 3208.1 15000.8 3208.1L14223.8 3382.62C14223.8 3382.62 14284.5 3259.04 14383.8 3217.53Z" fill="#00B761"/>
<path d="M13024 6640.45L14110.2 7656.01C14158.6 7701.32 14219.8 7715.77 14245.8 7688.09L14329.3 7599.91C14355.6 7572.23 14337.5 7512.47 14288.9 7467.15L13202.7 6451.59L13024 6640.45Z" fill="#D1D1D1"/>
<path d="M11572.3 5198.19C11314.9 5438.7 10991.5 5598.02 10642.9 5655.99C10294.3 5713.96 9936.25 5667.98 9613.99 5523.86C9291.72 5379.74 9019.73 5143.96 8832.41 4846.33C8645.08 4548.71 8550.85 4202.6 8561.61 3851.79C8572.37 3500.97 8687.66 3161.21 8892.88 2875.46C9098.1 2589.71 9384.04 2370.8 9714.55 2246.44C10045.1 2122.07 10405.3 2097.82 10749.7 2176.76C11094 2255.7 11407.1 2434.27 11649.3 2689.91C11810.3 2859.49 11936.1 3058.96 12019.4 3276.88C12102.7 3494.81 12141.9 3726.91 12134.8 3959.9C12127.6 4192.89 12074.3 4422.19 11977.7 4634.67C11881.2 4847.16 11743.5 5038.65 11572.3 5198.19V5198.19ZM11760.8 2585.68C11586.2 2401.42 11376.8 2253.12 11144.6 2149.23C10912.3 2045.34 10661.7 1987.9 10407 1980.2C10152.4 1972.51 9898.75 2014.69 9660.54 2104.35C9422.33 2194.01 9204.24 2329.4 9018.72 2502.77C9008.36 2512.32 8998.12 2521.99 8988.26 2531.91C8715.81 2797.75 8528.44 3137.52 8449.62 3508.65C8370.81 3879.79 8404.07 4265.77 8545.22 4618.21C8686.38 4970.65 8929.15 5273.88 9243.11 5489.89C9557.08 5705.9 9928.26 5825.07 10310.1 5832.48C10692 5839.88 11067.6 5735.19 11389.8 5531.52C11712 5327.85 11966.6 5034.26 12121.5 4687.56C12276.4 4340.86 12324.8 3956.46 12260.6 3582.56C12196.4 3208.65 12022.6 2861.87 11760.8 2585.68V2585.68Z" fill="#151515"/>
<g opacity="0.6">
<path opacity="0.6" d="M9046.45 5121.64C9288.56 5377.33 9601.6 5555.98 9945.96 5635C10290.3 5714.02 10650.5 5689.85 10981.1 5565.56C11311.6 5441.28 11597.6 5222.45 11802.9 4936.74C12008.2 4651.04 12123.6 4311.31 12134.4 3960.5C12145.3 3609.69 12051.1 3263.56 11863.9 2965.89C11676.6 2668.21 11404.7 2432.37 11082.4 2288.17C10760.2 2143.97 10402.2 2097.9 10053.6 2155.79C9704.97 2213.67 9381.49 2372.91 9124.02 2613.36C8952.18 2772.46 8813.76 2963.77 8716.76 3176.27C8619.77 3388.77 8566.12 3618.25 8558.91 3851.45C8551.69 4084.65 8591.06 4316.96 8674.74 4534.97C8758.42 4752.98 8884.75 4952.37 9046.45 5121.64V5121.64Z" fill="#FAFAFC"/>
</g>
<path d="M11634.8 5341.73L14110.1 7656.5C14158.6 7701.81 14219.8 7716.26 14245.8 7688.58L14329.3 7600.4C14355.6 7572.72 14337.4 7512.96 14288.8 7467.64L11813.7 5152.87C11765.2 5107.56 11704 5093.1 11678 5120.78L11594.4 5208.84C11568.1 5236.64 11586.4 5296.41 11634.8 5341.73Z" fill="#151515"/>
<path d="M13943 6233.1C15306.8 5268.12 15193.5 3980.42 15193.5 3980.42C14695 4259.54 14200.3 4876.94 13973.3 5412.4C13960 5719.56 13948.7 6015.83 13943 6233.1Z" fill="#008949"/>
<path d="M12597 5793.66C12500.8 5771.61 12436.7 5699.35 12422.7 5686.74C12422.7 5686.74 12381.8 5689.56 12429.5 5776.51C12433.5 5783.74 12441.8 5802.35 12449 5815.58C12449.6 5816.84 12449.9 5818.23 12449.9 5819.64C12449.9 5821.04 12449.5 5822.41 12448.8 5823.63C12448.1 5824.85 12447 5825.87 12445.8 5826.6C12444.6 5827.33 12443.3 5827.76 12441.8 5827.83C12386.3 5831.99 12330.8 5810.19 12223.7 5832.36C12208.9 5835.42 12204.7 5870.57 12205.2 5885.51C12206.2 5910.74 12204.3 5939.16 12233.9 5977.98C12251.2 6000.52 12299.3 6024.77 12406.6 6067.63C12447.3 6083.92 12563.9 6071.55 12673.2 6034.32L12760.5 5994.15L12733.4 5833.1L12711.4 5837.63C12676.1 5844.73 12633.3 5802.48 12597 5793.66Z" fill="#F9C29D"/>
<path d="M14770.2 3382.62C14770.2 3382.62 15995.6 3614.34 14409.6 5376.63C14156 5658.32 12785.5 6025.75 12785.5 6025.75C12785.5 6025.75 12646.5 5908.29 12716.6 5813.25C12716.6 5813.25 13660.2 5132.78 13867.8 5024.64C13961.1 4975.65 14230.2 3938.66 14382.5 3688.81C14534.9 3438.96 14770.2 3382.62 14770.2 3382.62Z" fill="#00B761"/>
<path d="M12408.2 4039.95C12408.2 4039.95 12368.2 3963.89 12360.4 3923.72C12352.6 3883.55 12302.1 3766.58 12281.3 3746.01C12272.9 3737.68 12245.6 3748.46 12242.2 3783.85C12240.9 3799.28 12248.5 3827.33 12262 3860.89C12283.9 3915.27 12280.2 3989.12 12287.9 4013.74C12306.9 4075.1 12408.2 4039.95 12408.2 4039.95Z" fill="#F9C29D"/>
</g>
<path d="M8083.48 14087.7V14403H7932.2V13857.5H8076.37V13953.8H8082.77C8094.84 13922.1 8115.08 13897 8143.49 13878.5C8171.9 13859.8 8206.35 13850.4 8246.83 13850.4C8284.71 13850.4 8317.73 13858.7 8345.9 13875.3C8374.08 13891.9 8395.98 13915.5 8411.6 13946.3C8427.23 13976.9 8435.04 14013.3 8435.04 14055.7V14403H8283.76V14082.7C8284 14049.3 8275.47 14023.3 8258.19 14004.6C8240.91 13985.6 8217.12 13976.2 8186.81 13976.2C8166.45 13976.2 8148.46 13980.5 8132.84 13989.3C8117.45 13998.1 8105.37 14010.8 8096.62 14027.6C8088.09 14044.2 8083.71 14064.2 8083.48 14087.7ZM8802.85 14413.7C8746.74 14413.7 8698.44 14402.3 8657.96 14379.6C8617.71 14356.6 8586.7 14324.2 8564.92 14282.3C8543.14 14240.1 8532.25 14190.3 8532.25 14132.8C8532.25 14076.7 8543.14 14027.4 8564.92 13985C8586.7 13942.7 8617.36 13909.6 8656.9 13886C8696.67 13862.3 8743.31 13850.4 8796.81 13850.4C8832.8 13850.4 8866.29 13856.2 8897.31 13867.8C8928.56 13879.2 8955.78 13896.4 8978.98 13919.3C9002.42 13942.3 9020.65 13971.2 9033.67 14006C9046.69 14040.5 9053.2 14081 9053.2 14127.4V14169H8592.62V14075.2H8910.8C8910.8 14053.4 8906.07 14034.2 8896.6 14017.3C8887.13 14000.5 8873.99 13987.4 8857.18 13977.9C8840.61 13968.2 8821.31 13963.4 8799.3 13963.4C8776.33 13963.4 8755.97 13968.7 8738.22 13979.3C8720.7 13989.8 8706.97 14003.9 8697.02 14021.6C8687.08 14039.1 8681.99 14058.7 8681.75 14080.2V14169.3C8681.75 14196.3 8686.73 14219.6 8696.67 14239.3C8706.85 14258.9 8721.17 14274.1 8739.64 14284.7C8758.1 14295.4 8780 14300.7 8805.33 14300.7C8822.14 14300.7 8837.53 14298.4 8851.5 14293.6C8865.47 14288.9 8877.42 14281.8 8887.36 14272.3C8897.31 14262.8 8904.88 14251.2 8910.09 14237.5L9050.01 14246.8C9042.9 14280.4 9028.34 14309.7 9006.33 14334.8C8984.55 14359.7 8956.37 14379.1 8921.81 14393.1C8887.48 14406.8 8847.83 14413.7 8802.85 14413.7ZM9400.5 14413.7C9344.4 14413.7 9296.1 14402.3 9255.62 14379.6C9215.37 14356.6 9184.36 14324.2 9162.58 14282.3C9140.8 14240.1 9129.91 14190.3 9129.91 14132.8C9129.91 14076.7 9140.8 14027.4 9162.58 13985C9184.36 13942.7 9215.02 13909.6 9254.55 13886C9294.32 13862.3 9340.96 13850.4 9394.47 13850.4C9430.45 13850.4 9463.95 13856.2 9494.96 13867.8C9526.21 13879.2 9553.44 13896.4 9576.64 13919.3C9600.08 13942.3 9618.31 13971.2 9631.33 14006C9644.35 14040.5 9650.86 14081 9650.86 14127.4V14169H9190.28V14075.2H9508.46C9508.46 14053.4 9503.72 14034.2 9494.25 14017.3C9484.78 14000.5 9471.64 13987.4 9454.84 13977.9C9438.26 13968.2 9418.97 13963.4 9396.95 13963.4C9373.99 13963.4 9353.63 13968.7 9335.87 13979.3C9318.35 13989.8 9304.62 14003.9 9294.68 14021.6C9284.74 14039.1 9279.65 14058.7 9279.41 14080.2V14169.3C9279.41 14196.3 9284.38 14219.6 9294.32 14239.3C9304.5 14258.9 9318.83 14274.1 9337.29 14284.7C9355.76 14295.4 9377.66 14300.7 9402.99 14300.7C9419.8 14300.7 9435.19 14298.4 9449.15 14293.6C9463.12 14288.9 9475.08 14281.8 9485.02 14272.3C9494.96 14262.8 9502.54 14251.2 9507.75 14237.5L9647.66 14246.8C9640.56 14280.4 9626 14309.7 9603.98 14334.8C9582.2 14359.7 9554.03 14379.1 9519.47 14393.1C9485.14 14406.8 9445.48 14413.7 9400.5 14413.7ZM9950.57 14411.9C9909.14 14411.9 9871.62 14401.2 9838 14379.9C9804.62 14358.4 9778.11 14326.8 9758.46 14285.1C9739.05 14243.2 9729.34 14191.8 9729.34 14131C9729.34 14068.5 9739.4 14016.5 9759.52 13975.1C9779.65 13933.4 9806.4 13902.3 9839.78 13881.7C9873.4 13860.9 9910.21 13850.4 9950.22 13850.4C9980.76 13850.4 10006.2 13855.7 10026.6 13866.1C10047.2 13876.2 10063.7 13889 10076.3 13904.4C10089.1 13919.6 10098.8 13934.5 10105.4 13949.2H10110V13675.7H10260.9V14403H10111.8V14315.6H10105.4C10098.3 14330.8 10088.2 14345.8 10075.2 14360.7C10062.4 14375.4 10045.7 14387.6 10025.1 14397.3C10004.8 14407 9979.93 14411.9 9950.57 14411.9ZM9998.51 14291.5C10022.9 14291.5 10043.5 14284.9 10060.3 14271.6C10077.4 14258.1 10090.4 14239.3 10099.4 14215.1C10108.6 14191 10113.2 14162.7 10113.2 14130.3C10113.2 14097.8 10108.7 14069.7 10099.7 14045.8C10090.7 14021.8 10077.7 14003.4 10060.7 13990.4C10043.6 13977.3 10022.9 13970.8 9998.51 13970.8C9973.66 13970.8 9952.71 13977.6 9935.66 13991.1C9918.61 14004.6 9905.71 14023.3 9896.95 14047.2C9888.19 14071.1 9883.81 14098.8 9883.81 14130.3C9883.81 14162 9888.19 14190.1 9896.95 14214.4C9905.95 14238.6 9918.85 14257.5 9935.66 14271.3C9952.71 14284.7 9973.66 14291.5 9998.51 14291.5ZM10566.1 13675.7L10552.2 14185H10422.3L10408 13675.7H10566.1ZM10487.2 14412.2C10463.8 14412.2 10443.7 14403.9 10426.9 14387.4C10410.1 14370.6 10401.8 14350.4 10402 14327C10401.8 14303.8 10410.1 14283.9 10426.9 14267.3C10443.7 14250.8 10463.8 14242.5 10487.2 14242.5C10509.7 14242.5 10529.5 14250.8 10546.5 14267.3C10563.6 14283.9 10572.2 14303.8 10572.5 14327C10572.2 14342.6 10568.1 14357 10560 14370C10552.2 14382.8 10541.9 14393.1 10529.1 14400.9C10516.4 14408.4 10502.4 14412.2 10487.2 14412.2Z" fill="#00B761"/>
<path d="M2465.88 13054L2257.78 12326.7H2425.75L2546.13 12832.1H2552.17L2684.98 12326.7H2828.8L2961.26 12833.1H2967.65L3088.04 12326.7H3256.01L3047.91 13054H2898.05L2759.56 12578.5H2753.88L2615.74 13054H2465.88ZM3525.45 13064.7C3469.34 13064.7 3421.05 13053.3 3380.56 13030.6C3340.32 13007.6 3309.3 12975.2 3287.52 12933.3C3265.74 12891.1 3254.85 12841.3 3254.85 12783.8C3254.85 12727.7 3265.74 12678.4 3287.52 12636C3309.3 12593.7 3339.96 12560.6 3379.5 12537C3419.27 12513.3 3465.91 12501.4 3519.41 12501.4C3555.4 12501.4 3588.9 12507.2 3619.91 12518.8C3651.16 12530.2 3678.38 12547.4 3701.59 12570.3C3725.02 12593.3 3743.25 12622.2 3756.27 12657C3769.29 12691.5 3775.8 12732 3775.8 12778.4V12820H3315.22V12726.2H3633.4C3633.4 12704.4 3628.67 12685.2 3619.2 12668.3C3609.73 12651.5 3596.59 12638.4 3579.78 12628.9C3563.21 12619.2 3543.91 12614.4 3521.9 12614.4C3498.93 12614.4 3478.57 12619.7 3460.82 12630.3C3443.3 12640.8 3429.57 12654.9 3419.62 12672.6C3409.68 12690.1 3404.59 12709.7 3404.36 12731.2V12820.3C3404.36 12847.3 3409.33 12870.6 3419.27 12890.3C3429.45 12909.9 3443.77 12925.1 3462.24 12935.7C3480.7 12946.4 3502.6 12951.7 3527.93 12951.7C3544.74 12951.7 3560.13 12949.4 3574.1 12944.6C3588.07 12939.9 3600.02 12932.8 3609.97 12923.3C3619.91 12913.8 3627.48 12902.2 3632.69 12888.5L3772.61 12897.8C3765.51 12931.4 3750.95 12960.7 3728.93 12985.8C3707.15 13010.7 3678.98 13030.1 3644.41 13044.1C3610.08 13057.8 3570.43 13064.7 3525.45 13064.7ZM4351.71 13269.9C4302.7 13269.9 4260.68 13263.2 4225.64 13249.7C4190.84 13236.4 4163.14 13218.3 4142.55 13195.3C4121.95 13172.4 4108.58 13146.6 4102.42 13117.9L4242.33 13099.1C4246.6 13110 4253.34 13120.2 4262.58 13129.6C4271.81 13139.1 4284 13146.7 4299.15 13152.4C4314.54 13158.3 4333.24 13161.2 4355.26 13161.2C4388.17 13161.2 4415.27 13153.2 4436.58 13137.1C4458.13 13121.2 4468.9 13094.6 4468.9 13057.2V12957.4H4462.5C4455.88 12972.6 4445.93 12986.9 4432.68 13000.4C4419.42 13013.9 4402.37 13024.9 4381.54 13033.4C4360.71 13041.9 4335.85 13046.2 4306.97 13046.2C4266.01 13046.2 4228.72 13036.7 4195.1 13017.8C4161.72 12998.6 4135.09 12969.4 4115.2 12930.1C4095.55 12890.5 4085.73 12840.6 4085.73 12780.2C4085.73 12718.4 4095.79 12666.8 4115.91 12625.4C4136.04 12583.9 4162.79 12552.9 4196.17 12532.3C4229.79 12511.7 4266.6 12501.4 4306.61 12501.4C4337.15 12501.4 4362.72 12506.7 4383.31 12517.1C4403.91 12527.2 4420.48 12540 4433.03 12555.4C4445.81 12570.6 4455.64 12585.5 4462.5 12600.2H4468.19V12508.5H4618.4V13059.3C4618.4 13105.7 4607.04 13144.6 4584.31 13175.8C4561.58 13207.1 4530.09 13230.5 4489.85 13246.1C4449.84 13262 4403.79 13269.9 4351.71 13269.9ZM4354.91 12932.6C4379.29 12932.6 4399.89 12926.5 4416.7 12914.4C4433.74 12902.1 4446.76 12884.6 4455.76 12861.9C4464.99 12838.9 4469.61 12811.5 4469.61 12779.5C4469.61 12747.5 4465.11 12719.8 4456.11 12696.4C4447.12 12672.7 4434.1 12654.4 4417.05 12641.4C4400 12628.3 4379.29 12621.8 4354.91 12621.8C4330.05 12621.8 4309.1 12628.6 4292.05 12642.1C4275 12655.3 4262.1 12673.8 4253.34 12697.5C4244.58 12721.1 4240.2 12748.5 4240.2 12779.5C4240.2 12811 4244.58 12838.2 4253.34 12861.2C4262.34 12883.9 4275.24 12901.5 4292.05 12914.1C4309.1 12926.4 4330.05 12932.6 4354.91 12932.6ZM4985.23 13064.7C4930.07 13064.7 4882.37 13052.9 4842.12 13029.5C4802.11 13005.8 4771.22 12972.9 4749.44 12930.8C4727.66 12888.4 4716.77 12839.3 4716.77 12783.4C4716.77 12727.1 4727.66 12677.8 4749.44 12635.7C4771.22 12593.3 4802.11 12560.4 4842.12 12537C4882.37 12513.3 4930.07 12501.4 4985.23 12501.4C5040.39 12501.4 5087.98 12513.3 5127.99 12537C5168.23 12560.4 5199.25 12593.3 5221.03 12635.7C5242.81 12677.8 5253.7 12727.1 5253.7 12783.4C5253.7 12839.3 5242.81 12888.4 5221.03 12930.8C5199.25 12972.9 5168.23 13005.8 5127.99 13029.5C5087.98 13052.9 5040.39 13064.7 4985.23 13064.7ZM4985.94 12947.5C5011.04 12947.5 5031.99 12940.4 5048.8 12926.2C5065.61 12911.7 5078.27 12892.1 5086.79 12867.2C5095.55 12842.4 5099.93 12814.1 5099.93 12782.3C5099.93 12750.6 5095.55 12722.3 5086.79 12697.5C5078.27 12672.6 5065.61 12653 5048.8 12638.5C5031.99 12624.1 5011.04 12616.9 4985.94 12616.9C4960.61 12616.9 4939.3 12624.1 4922.02 12638.5C4904.98 12653 4892.07 12672.6 4883.31 12697.5C4874.79 12722.3 4870.53 12750.6 4870.53 12782.3C4870.53 12814.1 4874.79 12842.4 4883.31 12867.2C4892.07 12892.1 4904.98 12911.7 4922.02 12926.2C4939.3 12940.4 4960.61 12947.5 4985.94 12947.5ZM5642.19 12508.5V12622.2H5313.71V12508.5H5642.19ZM5388.29 12377.9H5539.56V12886.4C5539.56 12900.4 5541.7 12911.2 5545.96 12919.1C5550.22 12926.6 5556.14 12932 5563.71 12935C5571.52 12938.1 5580.52 12939.7 5590.7 12939.7C5597.8 12939.7 5604.91 12939.1 5612.01 12937.9C5619.11 12936.5 5624.56 12935.4 5628.34 12934.7L5652.14 13047.3C5644.56 13049.6 5633.91 13052.3 5620.18 13055.4C5606.44 13058.7 5589.75 13060.7 5570.1 13061.5C5533.65 13062.9 5501.69 13058 5474.22 13046.9C5447 13035.8 5425.81 13018.5 5410.66 12995.1C5395.51 12971.6 5388.05 12942 5388.29 12906.3V12377.9ZM6220.76 13064.7C6164.65 13064.7 6116.36 13053.3 6075.88 13030.6C6035.63 13007.6 6004.62 12975.2 5982.84 12933.3C5961.05 12891.1 5950.16 12841.3 5950.16 12783.8C5950.16 12727.7 5961.05 12678.4 5982.84 12636C6004.62 12593.7 6035.27 12560.6 6074.81 12537C6114.58 12513.3 6161.22 12501.4 6214.72 12501.4C6250.71 12501.4 6284.21 12507.2 6315.22 12518.8C6346.47 12530.2 6373.7 12547.4 6396.9 12570.3C6420.34 12593.3 6438.56 12622.2 6451.59 12657C6464.61 12691.5 6471.12 12732 6471.12 12778.4V12820H6010.53V12726.2H6328.72C6328.72 12704.4 6323.98 12685.2 6314.51 12668.3C6305.04 12651.5 6291.9 12638.4 6275.09 12628.9C6258.52 12619.2 6239.23 12614.4 6217.21 12614.4C6194.25 12614.4 6173.89 12619.7 6156.13 12630.3C6138.61 12640.8 6124.88 12654.9 6114.94 12672.6C6104.99 12690.1 6099.9 12709.7 6099.67 12731.2V12820.3C6099.67 12847.3 6104.64 12870.6 6114.58 12890.3C6124.76 12909.9 6139.09 12925.1 6157.55 12935.7C6176.02 12946.4 6197.92 12951.7 6223.25 12951.7C6240.06 12951.7 6255.44 12949.4 6269.41 12944.6C6283.38 12939.9 6295.34 12932.8 6305.28 12923.3C6315.22 12913.8 6322.8 12902.2 6328.01 12888.5L6467.92 12897.8C6460.82 12931.4 6446.26 12960.7 6424.24 12985.8C6402.46 13010.7 6374.29 13030.1 6339.72 13044.1C6305.4 13057.8 6265.74 13064.7 6220.76 13064.7ZM7063.71 12508.5L6873.02 13054H6702.56L6511.87 12508.5H6671.67L6784.95 12898.8H6790.63L6903.56 12508.5H7063.71ZM7372.13 13064.7C7316.02 13064.7 7267.73 13053.3 7227.24 13030.6C7187 13007.6 7155.98 12975.2 7134.2 12933.3C7112.42 12891.1 7101.53 12841.3 7101.53 12783.8C7101.53 12727.7 7112.42 12678.4 7134.2 12636C7155.98 12593.7 7186.64 12560.6 7226.18 12537C7265.95 12513.3 7312.59 12501.4 7366.09 12501.4C7402.08 12501.4 7435.58 12507.2 7466.59 12518.8C7497.84 12530.2 7525.06 12547.4 7548.26 12570.3C7571.7 12593.3 7589.93 12622.2 7602.95 12657C7615.97 12691.5 7622.48 12732 7622.48 12778.4V12820H7161.9V12726.2H7480.08C7480.08 12704.4 7475.35 12685.2 7465.88 12668.3C7456.41 12651.5 7443.27 12638.4 7426.46 12628.9C7409.89 12619.2 7390.59 12614.4 7368.58 12614.4C7345.61 12614.4 7325.25 12619.7 7307.5 12630.3C7289.98 12640.8 7276.25 12654.9 7266.3 12672.6C7256.36 12690.1 7251.27 12709.7 7251.03 12731.2V12820.3C7251.03 12847.3 7256.01 12870.6 7265.95 12890.3C7276.13 12909.9 7290.45 12925.1 7308.92 12935.7C7327.38 12946.4 7349.28 12951.7 7374.61 12951.7C7391.42 12951.7 7406.81 12949.4 7420.78 12944.6C7434.75 12939.9 7446.7 12932.8 7456.65 12923.3C7466.59 12913.8 7474.16 12902.2 7479.37 12888.5L7619.29 12897.8C7612.19 12931.4 7597.63 12960.7 7575.61 12985.8C7553.83 13010.7 7525.66 13030.1 7491.09 13044.1C7456.76 13057.8 7417.11 13064.7 7372.13 13064.7ZM7721.21 13054V12508.5H7867.87V12603.7H7873.55C7883.49 12569.9 7900.18 12544.3 7923.62 12527C7947.06 12509.5 7974.05 12500.7 8004.59 12500.7C8012.16 12500.7 8020.33 12501.2 8029.09 12502.2C8037.85 12503.1 8045.54 12504.4 8052.17 12506.1V12640.3C8045.07 12638.2 8035.24 12636.3 8022.7 12634.6C8010.15 12633 7998.67 12632.1 7988.25 12632.1C7966 12632.1 7946.11 12637 7928.59 12646.7C7911.31 12656.2 7897.58 12669.4 7887.4 12686.5C7877.46 12703.5 7872.48 12723.2 7872.48 12745.4V13054H7721.21ZM8240.38 13258.5C8221.21 13258.5 8203.21 13257 8186.4 13253.9C8169.83 13251.1 8156.1 13247.4 8145.21 13242.9L8179.3 13130C8197.06 13135.4 8213.04 13138.4 8227.24 13138.9C8241.68 13139.3 8254.11 13136 8264.53 13128.9C8275.18 13121.8 8283.82 13109.8 8290.45 13092.7L8299.33 13069.6L8103.66 12508.5H8262.75L8375.68 12909.1H8381.36L8495.35 12508.5H8655.51L8443.51 13112.9C8433.33 13142.3 8419.48 13167.9 8401.96 13189.7C8384.68 13211.7 8362.78 13228.6 8336.26 13240.4C8309.75 13252.5 8277.79 13258.5 8240.38 13258.5ZM9023.05 12508.5V12622.2H8694.57V12508.5H9023.05ZM8769.15 12377.9H8920.42V12886.4C8920.42 12900.4 8922.55 12911.2 8926.82 12919.1C8931.08 12926.6 8937 12932 8944.57 12935C8952.38 12938.1 8961.38 12939.7 8971.56 12939.7C8978.66 12939.7 8985.76 12939.1 8992.87 12937.9C8999.97 12936.5 9005.41 12935.4 9009.2 12934.7L9033 13047.3C9025.42 13049.6 9014.77 13052.3 9001.03 13055.4C8987.3 13058.7 8970.61 13060.7 8950.96 13061.5C8914.51 13062.9 8882.55 13058 8855.08 13046.9C8827.86 13035.8 8806.67 13018.5 8791.52 12995.1C8776.37 12971.6 8768.91 12942 8769.15 12906.3V12377.9ZM9284.59 12738.7V13054H9133.31V12326.7H9280.33V12604.8H9286.72C9299.03 12572.6 9318.92 12547.4 9346.38 12529.1C9373.84 12510.7 9408.29 12501.4 9449.72 12501.4C9487.6 12501.4 9520.63 12509.7 9548.8 12526.3C9577.21 12542.6 9599.22 12566.2 9614.85 12597C9630.71 12627.5 9638.52 12664.1 9638.29 12706.7V13054H9487.01V12733.7C9487.24 12700.1 9478.72 12673.9 9461.44 12655.2C9444.39 12636.5 9420.48 12627.2 9389.71 12627.2C9369.11 12627.2 9350.88 12631.5 9335.02 12640.3C9319.39 12649.1 9307.08 12661.8 9298.09 12678.6C9289.33 12695.2 9284.83 12715.2 9284.59 12738.7ZM9757.34 13054V12508.5H9908.62V13054H9757.34ZM9833.33 12438.2C9810.84 12438.2 9791.55 12430.8 9775.45 12415.9C9759.59 12400.7 9751.66 12382.6 9751.66 12361.5C9751.66 12340.7 9759.59 12322.8 9775.45 12307.9C9791.55 12292.8 9810.84 12285.2 9833.33 12285.2C9855.82 12285.2 9875 12292.8 9890.86 12307.9C9906.96 12322.8 9915.01 12340.7 9915.01 12361.5C9915.01 12382.6 9906.96 12400.7 9890.86 12415.9C9875 12430.8 9855.82 12438.2 9833.33 12438.2ZM10181.1 12738.7V13054H10029.8V12508.5H10174V12604.8H10180.4C10192.4 12573.1 10212.7 12548 10241.1 12529.5C10269.5 12510.8 10303.9 12501.4 10344.4 12501.4C10382.3 12501.4 10415.3 12509.7 10443.5 12526.3C10471.7 12542.9 10493.6 12566.5 10509.2 12597.3C10524.8 12627.9 10532.6 12664.3 10532.6 12706.7V13054H10381.4V12733.7C10381.6 12700.3 10373.1 12674.3 10355.8 12655.6C10338.5 12636.6 10314.7 12627.2 10284.4 12627.2C10264.1 12627.2 10246.1 12631.5 10230.4 12640.3C10215 12649.1 10203 12661.8 10194.2 12678.6C10185.7 12695.2 10181.3 12715.2 10181.1 12738.7ZM10897.6 13269.9C10848.6 13269.9 10806.6 13263.2 10771.5 13249.7C10736.7 13236.4 10709 13218.3 10688.4 13195.3C10667.8 13172.4 10654.5 13146.6 10648.3 13117.9L10788.2 13099.1C10792.5 13110 10799.2 13120.2 10808.5 13129.6C10817.7 13139.1 10829.9 13146.7 10845.1 13152.4C10860.4 13158.3 10879.1 13161.2 10901.2 13161.2C10934.1 13161.2 10961.2 13153.2 10982.5 13137.1C11004 13121.2 11014.8 13094.6 11014.8 13057.2V12957.4H11008.4C11001.8 12972.6 10991.8 12986.9 10978.6 13000.4C10965.3 13013.9 10948.3 13024.9 10927.4 13033.4C10906.6 13041.9 10881.7 13046.2 10852.9 13046.2C10811.9 13046.2 10774.6 13036.7 10741 13017.8C10707.6 12998.6 10681 12969.4 10661.1 12930.1C10641.5 12890.5 10631.6 12840.6 10631.6 12780.2C10631.6 12718.4 10641.7 12666.8 10661.8 12625.4C10681.9 12583.9 10708.7 12552.9 10742.1 12532.3C10775.7 12511.7 10812.5 12501.4 10852.5 12501.4C10883 12501.4 10908.6 12506.7 10929.2 12517.1C10949.8 12527.2 10966.4 12540 10978.9 12555.4C10991.7 12570.6 11001.5 12585.5 11008.4 12600.2H11014.1V12508.5H11164.3V13059.3C11164.3 13105.7 11152.9 13144.6 11130.2 13175.8C11107.5 13207.1 11076 13230.5 11035.7 13246.1C10995.7 13262 10949.7 13269.9 10897.6 13269.9ZM10900.8 12932.6C10925.2 12932.6 10945.8 12926.5 10962.6 12914.4C10979.6 12902.1 10992.7 12884.6 11001.7 12861.9C11010.9 12838.9 11015.5 12811.5 11015.5 12779.5C11015.5 12747.5 11011 12719.8 11002 12696.4C10993 12672.7 10980 12654.4 10962.9 12641.4C10945.9 12628.3 10925.2 12621.8 10900.8 12621.8C10875.9 12621.8 10855 12628.6 10837.9 12642.1C10820.9 12655.3 10808 12673.8 10799.2 12697.5C10790.5 12721.1 10786.1 12748.5 10786.1 12779.5C10786.1 12811 10790.5 12838.2 10799.2 12861.2C10808.2 12883.9 10821.1 12901.5 10837.9 12914.1C10855 12926.4 10875.9 12932.6 10900.8 12932.6ZM11609.5 13258.5C11590.3 13258.5 11572.4 13257 11555.5 13253.9C11539 13251.1 11525.2 13247.4 11514.4 13242.9L11548.4 13130C11566.2 13135.4 11582.2 13138.4 11596.4 13138.9C11610.8 13139.3 11623.3 13136 11633.7 13128.9C11644.3 13121.8 11653 13109.8 11659.6 13092.7L11668.5 13069.6L11472.8 12508.5H11631.9L11744.8 12909.1H11750.5L11864.5 12508.5H12024.6L11812.6 13112.9C11802.5 13142.3 11788.6 13167.9 11771.1 13189.7C11753.8 13211.7 11731.9 13228.6 11705.4 13240.4C11678.9 13252.5 11646.9 13258.5 11609.5 13258.5ZM12330.9 13064.7C12275.8 13064.7 12228.1 13052.9 12187.8 13029.5C12147.8 13005.8 12116.9 12972.9 12095.1 12930.8C12073.4 12888.4 12062.5 12839.3 12062.5 12783.4C12062.5 12727.1 12073.4 12677.8 12095.1 12635.7C12116.9 12593.3 12147.8 12560.4 12187.8 12537C12228.1 12513.3 12275.8 12501.4 12330.9 12501.4C12386.1 12501.4 12433.7 12513.3 12473.7 12537C12513.9 12560.4 12545 12593.3 12566.7 12635.7C12588.5 12677.8 12599.4 12727.1 12599.4 12783.4C12599.4 12839.3 12588.5 12888.4 12566.7 12930.8C12545 12972.9 12513.9 13005.8 12473.7 13029.5C12433.7 13052.9 12386.1 13064.7 12330.9 13064.7ZM12331.6 12947.5C12356.7 12947.5 12377.7 12940.4 12394.5 12926.2C12411.3 12911.7 12424 12892.1 12432.5 12867.2C12441.3 12842.4 12445.6 12814.1 12445.6 12782.3C12445.6 12750.6 12441.3 12722.3 12432.5 12697.5C12424 12672.6 12411.3 12653 12394.5 12638.5C12377.7 12624.1 12356.7 12616.9 12331.6 12616.9C12306.3 12616.9 12285 12624.1 12267.7 12638.5C12250.7 12653 12237.8 12672.6 12229 12697.5C12220.5 12722.3 12216.2 12750.6 12216.2 12782.3C12216.2 12814.1 12220.5 12842.4 12229 12867.2C12237.8 12892.1 12250.7 12911.7 12267.7 12926.2C12285 12940.4 12306.3 12947.5 12331.6 12947.5ZM13047.6 12821.8V12508.5H13198.8V13054H13053.6V12954.9H13047.9C13035.6 12986.9 13015.1 13012.6 12986.5 13032C12958.1 13051.4 12923.4 13061.1 12882.4 13061.1C12846 13061.1 12813.9 13052.8 12786.2 13036.2C12758.5 13019.7 12736.8 12996.1 12721.2 12965.6C12705.8 12935 12698 12898.5 12697.8 12855.8V12508.5H12849V12828.9C12849.3 12861.1 12857.9 12886.5 12875 12905.2C12892 12923.9 12914.9 12933.3 12943.5 12933.3C12961.7 12933.3 12978.8 12929.1 12994.6 12920.8C13010.5 12912.3 13023.3 12899.8 13033 12883.2C13042.9 12866.6 13047.8 12846.1 13047.6 12821.8ZM13702.6 12738.7V13054H13551.3V12508.5H13695.5V12604.8H13701.9C13713.9 12573.1 13734.2 12548 13762.6 12529.5C13791 12510.8 13825.4 12501.4 13865.9 12501.4C13903.8 12501.4 13936.8 12509.7 13965 12526.3C13993.2 12542.9 14015.1 12566.5 14030.7 12597.3C14046.3 12627.9 14054.1 12664.3 14054.1 12706.7V13054H13902.8V12733.7C13903.1 12700.3 13894.6 12674.3 13877.3 12655.6C13860 12636.6 13836.2 12627.2 13805.9 12627.2C13785.5 12627.2 13767.5 12631.5 13751.9 12640.3C13736.5 12649.1 13724.5 12661.8 13715.7 12678.6C13707.2 12695.2 13702.8 12715.2 13702.6 12738.7ZM14421.9 13064.7C14365.8 13064.7 14317.5 13053.3 14277 13030.6C14236.8 13007.6 14205.8 12975.2 14184 12933.3C14162.2 12891.1 14151.3 12841.3 14151.3 12783.8C14151.3 12727.7 14162.2 12678.4 14184 12636C14205.8 12593.7 14236.4 12560.6 14276 12537C14315.8 12513.3 14362.4 12501.4 14415.9 12501.4C14451.9 12501.4 14485.4 12507.2 14516.4 12518.8C14547.6 12530.2 14574.9 12547.4 14598.1 12570.3C14621.5 12593.3 14639.7 12622.2 14652.8 12657C14665.8 12691.5 14672.3 12732 14672.3 12778.4V12820H14211.7V12726.2H14529.9C14529.9 12704.4 14525.2 12685.2 14515.7 12668.3C14506.2 12651.5 14493.1 12638.4 14476.3 12628.9C14459.7 12619.2 14440.4 12614.4 14418.4 12614.4C14395.4 12614.4 14375.1 12619.7 14357.3 12630.3C14339.8 12640.8 14326.1 12654.9 14316.1 12672.6C14306.2 12690.1 14301.1 12709.7 14300.8 12731.2V12820.3C14300.8 12847.3 14305.8 12870.6 14315.8 12890.3C14325.9 12909.9 14340.3 12925.1 14358.7 12935.7C14377.2 12946.4 14399.1 12951.7 14424.4 12951.7C14441.2 12951.7 14456.6 12949.4 14470.6 12944.6C14484.6 12939.9 14496.5 12932.8 14506.5 12923.3C14516.4 12913.8 14524 12902.2 14529.2 12888.5L14669.1 12897.8C14662 12931.4 14647.4 12960.7 14625.4 12985.8C14603.6 13010.7 14575.5 13030.1 14540.9 13044.1C14506.6 13057.8 14466.9 13064.7 14421.9 13064.7ZM15019.6 13064.7C14963.5 13064.7 14915.2 13053.3 14874.7 13030.6C14834.5 13007.6 14803.4 12975.2 14781.7 12933.3C14759.9 12891.1 14749 12841.3 14749 12783.8C14749 12727.7 14759.9 12678.4 14781.7 12636C14803.4 12593.7 14834.1 12560.6 14873.6 12537C14913.4 12513.3 14960 12501.4 15013.6 12501.4C15049.5 12501.4 15083 12507.2 15114 12518.8C15145.3 12530.2 15172.5 12547.4 15195.7 12570.3C15219.2 12593.3 15237.4 12622.2 15250.4 12657C15263.4 12691.5 15269.9 12732 15269.9 12778.4V12820H14809.4V12726.2H15127.5C15127.5 12704.4 15122.8 12685.2 15113.3 12668.3C15103.9 12651.5 15090.7 12638.4 15073.9 12628.9C15057.3 12619.2 15038.1 12614.4 15016 12614.4C14993.1 12614.4 14972.7 12619.7 14955 12630.3C14937.4 12640.8 14923.7 12654.9 14913.8 12672.6C14903.8 12690.1 14898.7 12709.7 14898.5 12731.2V12820.3C14898.5 12847.3 14903.5 12870.6 14913.4 12890.3C14923.6 12909.9 14937.9 12925.1 14956.4 12935.7C14974.8 12946.4 14996.7 12951.7 15022.1 12951.7C15038.9 12951.7 15054.3 12949.4 15068.2 12944.6C15082.2 12939.9 15094.2 12932.8 15104.1 12923.3C15114 12913.8 15121.6 12902.2 15126.8 12888.5L15266.7 12897.8C15259.6 12931.4 15245.1 12960.7 15223.1 12985.8C15201.3 13010.7 15173.1 13030.1 15138.6 13044.1C15104.2 13057.8 15064.6 13064.7 15019.6 13064.7ZM15569.7 13062.9C15528.2 13062.9 15490.7 13052.2 15457.1 13030.9C15423.7 13009.4 15397.2 12977.8 15377.5 12936.1C15358.1 12894.2 15348.4 12842.8 15348.4 12782C15348.4 12719.5 15358.5 12667.5 15378.6 12626.1C15398.7 12584.4 15425.5 12553.3 15458.9 12532.7C15492.5 12511.9 15529.3 12501.4 15569.3 12501.4C15599.8 12501.4 15625.3 12506.7 15645.7 12517.1C15666.3 12527.2 15682.8 12540 15695.4 12555.4C15708.2 12570.6 15717.9 12585.5 15724.5 12600.2H15729.1V12326.7H15880V13054H15730.9V12966.6H15724.5C15717.4 12981.8 15707.3 12996.8 15694.3 13011.7C15681.5 13026.4 15664.8 13038.6 15644.2 13048.3C15623.9 13058 15599 13062.9 15569.7 13062.9ZM15617.6 12942.5C15642 12942.5 15662.6 12935.9 15679.4 12922.6C15696.4 12909.1 15709.5 12890.3 15718.5 12866.1C15727.7 12842 15732.3 12813.7 15732.3 12781.3C15732.3 12748.8 15727.8 12720.7 15718.8 12696.8C15709.8 12672.8 15696.8 12654.4 15679.7 12641.4C15662.7 12628.3 15642 12621.8 15617.6 12621.8C15592.7 12621.8 15571.8 12628.6 15554.7 12642.1C15537.7 12655.6 15524.8 12674.3 15516 12698.2C15507.3 12722.1 15502.9 12749.8 15502.9 12781.3C15502.9 12813 15507.3 12841.1 15516 12865.4C15525 12889.6 15537.9 12908.5 15554.7 12922.3C15571.8 12935.7 15592.7 12942.5 15617.6 12942.5Z" fill="#00B761"/>
<defs>
<clipPath id="clip0_3206_11566">
<rect width="17459" height="11718" fill="white" transform="translate(362)"/>
</clipPath>
</defs>
</svg>
