<svg width="18183" height="11356" viewBox="0 0 18183 11356" fill="none" xmlns="http://www.w3.org/2000/svg">
<path d="M4484.92 11343L4276.82 10615.7H4444.79L4565.18 11121.1H4571.21L4704.03 10615.7H4847.85L4980.31 11122.1H4986.7L5107.08 10615.7H5275.05L5066.95 11343H4917.09L4778.6 10867.5H4772.92L4634.78 11343H4484.92ZM5544.49 11353.7C5488.38 11353.7 5440.09 11342.3 5399.61 11319.6C5359.36 11296.6 5328.35 11264.2 5306.57 11222.3C5284.79 11180.1 5273.9 11130.3 5273.9 11072.8C5273.9 11016.7 5284.79 10967.4 5306.57 10925C5328.35 10882.7 5359 10849.6 5398.54 10826C5438.31 10802.3 5484.95 10790.4 5538.45 10790.4C5574.44 10790.4 5607.94 10796.2 5638.95 10807.8C5670.2 10819.2 5697.43 10836.4 5720.63 10859.3C5744.07 10882.3 5762.29 10911.2 5775.32 10946C5788.34 10980.5 5794.85 11021 5794.85 11067.4V11109H5334.26V11015.2H5652.45C5652.45 10993.4 5647.71 10974.2 5638.24 10957.3C5628.77 10940.5 5615.63 10927.4 5598.82 10917.9C5582.25 10908.2 5562.96 10903.4 5540.94 10903.4C5517.98 10903.4 5497.62 10908.7 5479.86 10919.3C5462.34 10929.8 5448.61 10943.9 5438.67 10961.6C5428.72 10979.1 5423.63 10998.7 5423.4 11020.2V11109.3C5423.4 11136.3 5428.37 11159.6 5438.31 11179.3C5448.49 11198.9 5462.82 11214.1 5481.28 11224.7C5499.75 11235.4 5521.65 11240.7 5546.98 11240.7C5563.79 11240.7 5579.17 11238.4 5593.14 11233.6C5607.11 11228.9 5619.07 11221.8 5629.01 11212.3C5638.95 11202.8 5646.53 11191.2 5651.74 11177.5L5791.65 11186.8C5784.55 11220.4 5769.99 11249.7 5747.97 11274.8C5726.19 11299.7 5698.02 11319.1 5663.45 11333.1C5629.13 11346.8 5589.47 11353.7 5544.49 11353.7ZM6276.29 10615.7V11343H6125.01V10615.7H6276.29ZM6397.47 11343V10797.5H6548.75V11343H6397.47ZM6473.47 10727.2C6450.98 10727.2 6431.68 10719.8 6415.59 10704.9C6399.72 10689.7 6391.79 10671.6 6391.79 10650.5C6391.79 10629.7 6399.72 10611.8 6415.59 10596.9C6431.68 10581.8 6450.98 10574.2 6473.47 10574.2C6495.96 10574.2 6515.14 10581.8 6531 10596.9C6547.1 10611.8 6555.15 10629.7 6555.15 10650.5C6555.15 10671.6 6547.1 10689.7 6531 10704.9C6515.14 10719.8 6495.96 10727.2 6473.47 10727.2ZM7178.46 10797.5L6987.76 11343H6817.31L6626.61 10797.5H6786.41L6899.69 11187.8H6905.38L7018.3 10797.5H7178.46ZM7486.87 11353.7C7430.77 11353.7 7382.47 11342.3 7341.99 11319.6C7301.74 11296.6 7270.73 11264.2 7248.95 11222.3C7227.17 11180.1 7216.28 11130.3 7216.28 11072.8C7216.28 11016.7 7227.17 10967.4 7248.95 10925C7270.73 10882.7 7301.39 10849.6 7340.92 10826C7380.7 10802.3 7427.33 10790.4 7480.84 10790.4C7516.82 10790.4 7550.32 10796.2 7581.33 10807.8C7612.58 10819.2 7639.81 10836.4 7663.01 10859.3C7686.45 10882.3 7704.68 10911.2 7717.7 10946C7730.72 10980.5 7737.23 11021 7737.23 11067.4V11109H7276.65V11015.2H7594.83C7594.83 10993.4 7590.09 10974.2 7580.62 10957.3C7571.15 10940.5 7558.02 10927.4 7541.21 10917.9C7524.64 10908.2 7505.34 10903.4 7483.32 10903.4C7460.36 10903.4 7440 10908.7 7422.24 10919.3C7404.73 10929.8 7390.99 10943.9 7381.05 10961.6C7371.11 10979.1 7366.02 10998.7 7365.78 11020.2V11109.3C7365.78 11136.3 7370.75 11159.6 7380.7 11179.3C7390.88 11198.9 7405.2 11214.1 7423.66 11224.7C7442.13 11235.4 7464.03 11240.7 7489.36 11240.7C7506.17 11240.7 7521.56 11238.4 7535.53 11233.6C7549.49 11228.9 7561.45 11221.8 7571.39 11212.3C7581.33 11202.8 7588.91 11191.2 7594.12 11177.5L7734.03 11186.8C7726.93 11220.4 7712.37 11249.7 7690.35 11274.8C7668.57 11299.7 7640.4 11319.1 7605.84 11333.1C7571.51 11346.8 7531.86 11353.7 7486.87 11353.7ZM8357.52 10797.5V10911.2H8029.04V10797.5H8357.52ZM8103.62 10666.9H8254.9V11175.4C8254.9 11189.4 8257.03 11200.2 8261.29 11208.1C8265.55 11215.6 8271.47 11221 8279.04 11224C8286.86 11227.1 8295.85 11228.7 8306.03 11228.7C8313.14 11228.7 8320.24 11228.1 8327.34 11226.9C8334.44 11225.5 8339.89 11224.4 8343.68 11223.7L8367.47 11336.3C8359.89 11338.6 8349.24 11341.3 8335.51 11344.4C8321.78 11347.7 8305.09 11349.7 8285.44 11350.5C8248.98 11351.9 8217.02 11347 8189.56 11335.9C8162.33 11324.8 8141.14 11307.5 8125.99 11284.1C8110.84 11260.6 8103.38 11231 8103.62 11195.3V10666.9ZM8696.66 11353.7C8641.5 11353.7 8593.79 11341.9 8553.55 11318.5C8513.54 11294.8 8482.64 11261.9 8460.86 11219.8C8439.08 11177.4 8428.19 11128.3 8428.19 11072.4C8428.19 11016.1 8439.08 10966.8 8460.86 10924.7C8482.64 10882.3 8513.54 10849.4 8553.55 10826C8593.79 10802.3 8641.5 10790.4 8696.66 10790.4C8751.82 10790.4 8799.4 10802.3 8839.41 10826C8879.66 10849.4 8910.67 10882.3 8932.45 10924.7C8954.23 10966.8 8965.12 11016.1 8965.12 11072.4C8965.12 11128.3 8954.23 11177.4 8932.45 11219.8C8910.67 11261.9 8879.66 11294.8 8839.41 11318.5C8799.4 11341.9 8751.82 11353.7 8696.66 11353.7ZM8697.37 11236.5C8722.46 11236.5 8743.41 11229.4 8760.22 11215.2C8777.03 11200.7 8789.7 11181.1 8798.22 11156.2C8806.98 11131.4 8811.36 11103.1 8811.36 11071.3C8811.36 11039.6 8806.98 11011.3 8798.22 10986.5C8789.7 10961.6 8777.03 10942 8760.22 10927.5C8743.41 10913.1 8722.46 10905.9 8697.37 10905.9C8672.04 10905.9 8650.73 10913.1 8633.45 10927.5C8616.4 10942 8603.5 10961.6 8594.74 10986.5C8586.22 11011.3 8581.96 11039.6 8581.96 11071.3C8581.96 11103.1 8586.22 11131.4 8594.74 11156.2C8603.5 11181.1 8616.4 11200.7 8633.45 11215.2C8650.73 11229.4 8672.04 11236.5 8697.37 11236.5ZM9748.77 10953.1L9610.28 10961.6C9607.91 10949.8 9602.82 10939.1 9595.01 10929.6C9587.19 10919.9 9576.9 10912.2 9564.11 10906.6C9551.56 10900.6 9536.53 10897.7 9519.01 10897.7C9495.57 10897.7 9475.81 10902.7 9459.71 10912.6C9443.61 10922.3 9435.56 10935.3 9435.56 10951.7C9435.56 10964.7 9440.77 10975.7 9451.19 10984.7C9461.6 10993.7 9479.48 11000.9 9504.81 11006.4L9603.53 11026.2C9656.56 11037.1 9696.1 11054.6 9722.14 11078.8C9748.18 11102.9 9761.2 11134.7 9761.2 11174C9761.2 11209.7 9750.66 11241.1 9729.59 11268.1C9708.76 11295.1 9680.12 11316.1 9643.66 11331.3C9607.44 11346.2 9565.65 11353.7 9518.3 11353.7C9446.1 11353.7 9388.57 11338.6 9345.72 11308.6C9303.1 11278.3 9278.13 11237.1 9270.79 11185L9419.58 11177.2C9424.08 11199.2 9434.97 11216 9452.25 11227.6C9469.53 11239 9491.67 11244.6 9518.66 11244.6C9545.17 11244.6 9566.48 11239.5 9582.58 11229.4C9598.91 11218.9 9607.2 11205.6 9607.44 11189.2C9607.2 11175.5 9601.4 11164.3 9590.04 11155.5C9578.67 11146.5 9561.15 11139.6 9537.48 11134.9L9443.02 11116.1C9389.75 11105.4 9350.1 11087 9324.06 11060.7C9298.25 11034.4 9285.35 11000.9 9285.35 10960.2C9285.35 10925.1 9294.82 10895 9313.76 10869.6C9332.93 10844.3 9359.8 10824.8 9394.37 10811C9429.17 10797.3 9469.89 10790.4 9516.53 10790.4C9585.42 10790.4 9639.63 10805 9679.17 10834.1C9718.94 10863.2 9742.14 10902.9 9748.77 10953.1ZM10012 11353.3C9977.2 11353.3 9946.18 11347.3 9918.96 11335.2C9891.73 11322.9 9870.19 11304.8 9854.33 11280.9C9838.7 11256.7 9830.89 11226.6 9830.89 11190.7C9830.89 11160.4 9836.45 11134.9 9847.58 11114.3C9858.71 11093.7 9873.86 11077.1 9893.04 11064.6C9912.21 11052 9933.99 11042.6 9958.38 11036.2C9983 11029.8 10008.8 11025.3 10035.8 11022.7C10067.5 11019.4 10093.1 11016.3 10112.5 11013.5C10131.9 11010.4 10146 11005.9 10154.8 11000C10163.5 10994 10167.9 10985.3 10167.9 10973.7V10971.6C10167.9 10949.1 10160.8 10931.7 10146.6 10919.3C10132.6 10907 10112.7 10900.9 10086.9 10900.9C10059.7 10900.9 10038 10906.9 10021.9 10919C10005.8 10930.8 9995.19 10945.7 9989.98 10963.7L9850.07 10952.4C9857.17 10919.2 9871.14 10890.6 9891.97 10866.4C9912.8 10842.1 9939.67 10823.4 9972.58 10810.3C10005.7 10797.1 10044.1 10790.4 10087.6 10790.4C10117.9 10790.4 10146.9 10794 10174.6 10801.1C10202.6 10808.2 10227.3 10819.2 10248.9 10834.1C10270.6 10849 10287.8 10868.2 10300.4 10891.7C10312.9 10914.9 10319.2 10942.7 10319.2 10975.1V11343H10175.7V11267.4H10171.4C10162.7 11284.4 10151 11299.4 10136.3 11312.5C10121.6 11325.2 10104 11335.3 10083.4 11342.6C10062.8 11349.7 10039 11353.3 10012 11353.3ZM10055.3 11248.9C10077.6 11248.9 10097.2 11244.5 10114.3 11235.8C10131.3 11226.8 10144.7 11214.7 10154.4 11199.5C10164.1 11184.4 10169 11167.2 10169 11148V11090.2C10164.2 11093.2 10157.7 11096.1 10149.4 11098.7C10141.4 11101 10132.3 11103.3 10122.1 11105.4C10111.9 11107.3 10101.7 11109.1 10091.5 11110.8C10081.4 11112.2 10072.1 11113.5 10063.8 11114.7C10046.1 11117.3 10030.6 11121.4 10017.3 11127.1C10004.1 11132.8 9993.77 11140.5 9986.43 11150.2C9979.09 11159.6 9975.42 11171.5 9975.42 11185.7C9975.42 11206.3 9982.88 11222 9997.79 11232.9C10012.9 11243.6 10032.1 11248.9 10055.3 11248.9ZM10925.5 10797.5L10734.8 11343H10564.4L10373.7 10797.5H10533.5L10646.8 11187.8H10652.4L10765.4 10797.5H10925.5ZM11233.9 11353.7C11177.8 11353.7 11129.5 11342.3 11089.1 11319.6C11048.8 11296.6 11017.8 11264.2 10996 11222.3C10974.2 11180.1 10963.3 11130.3 10963.3 11072.8C10963.3 11016.7 10974.2 10967.4 10996 10925C11017.8 10882.7 11048.5 10849.6 11088 10826C11127.8 10802.3 11174.4 10790.4 11227.9 10790.4C11263.9 10790.4 11297.4 10796.2 11328.4 10807.8C11359.7 10819.2 11386.9 10836.4 11410.1 10859.3C11433.5 10882.3 11451.7 10911.2 11464.8 10946C11477.8 10980.5 11484.3 11021 11484.3 11067.4V11109H11023.7V11015.2H11341.9C11341.9 10993.4 11337.2 10974.2 11327.7 10957.3C11318.2 10940.5 11305.1 10927.4 11288.3 10917.9C11271.7 10908.2 11252.4 10903.4 11230.4 10903.4C11207.4 10903.4 11187.1 10908.7 11169.3 10919.3C11151.8 10929.8 11138.1 10943.9 11128.1 10961.6C11118.2 10979.1 11113.1 10998.7 11112.9 11020.2V11109.3C11112.9 11136.3 11117.8 11159.6 11127.8 11179.3C11137.9 11198.9 11152.3 11214.1 11170.7 11224.7C11189.2 11235.4 11211.1 11240.7 11236.4 11240.7C11253.2 11240.7 11268.6 11238.4 11282.6 11233.6C11296.6 11228.9 11308.5 11221.8 11318.5 11212.3C11328.4 11202.8 11336 11191.2 11341.2 11177.5L11481.1 11186.8C11474 11220.4 11459.4 11249.7 11437.4 11274.8C11415.6 11299.7 11387.5 11319.1 11352.9 11333.1C11318.6 11346.8 11278.9 11353.7 11233.9 11353.7ZM12104.6 10797.5V10911.2H11776.1V10797.5H12104.6ZM11850.7 10666.9H12002V11175.4C12002 11189.4 12004.1 11200.2 12008.4 11208.1C12012.6 11215.6 12018.5 11221 12026.1 11224C12033.9 11227.1 12042.9 11228.7 12053.1 11228.7C12060.2 11228.7 12067.3 11228.1 12074.4 11226.9C12081.5 11225.5 12087 11224.4 12090.7 11223.7L12114.5 11336.3C12107 11338.6 12096.3 11341.3 12082.6 11344.4C12068.8 11347.7 12052.2 11349.7 12032.5 11350.5C11996 11351.9 11964.1 11347 11936.6 11335.9C11909.4 11324.8 11888.2 11307.5 11873.1 11284.1C11857.9 11260.6 11850.5 11231 11850.7 11195.3V10666.9ZM12203.1 11343V10797.5H12354.4V11343H12203.1ZM12279.1 10727.2C12256.6 10727.2 12237.3 10719.8 12221.2 10704.9C12205.4 10689.7 12197.5 10671.6 12197.5 10650.5C12197.5 10629.7 12205.4 10611.8 12221.2 10596.9C12237.3 10581.8 12256.6 10574.2 12279.1 10574.2C12301.6 10574.2 12320.8 10581.8 12336.7 10596.9C12352.8 10611.8 12360.8 10629.7 12360.8 10650.5C12360.8 10671.6 12352.8 10689.7 12336.7 10704.9C12320.8 10719.8 12301.6 10727.2 12279.1 10727.2ZM12475.6 11343V10797.5H12619.8V10893.8H12626.2C12637.5 10861.8 12656.5 10836.6 12683 10818.1C12709.5 10799.7 12741.2 10790.4 12778.2 10790.4C12815.6 10790.4 12847.4 10799.8 12873.7 10818.5C12900 10837 12917.5 10862.1 12926.2 10893.8H12931.9C12943 10862.5 12963.2 10837.6 12992.3 10818.9C13021.6 10799.9 13056.3 10790.4 13096.3 10790.4C13147.2 10790.4 13188.5 10806.7 13220.3 10839.1C13252.2 10871.3 13268.2 10917 13268.2 10976.2V11343H13117.3V11006C13117.3 10975.7 13109.2 10953 13093.1 10937.8C13077 10922.7 13056.9 10915.1 13032.8 10915.1C13005.3 10915.1 12983.9 10923.8 12968.5 10941.4C12953.1 10958.6 12945.4 10981.5 12945.4 11009.9V11343H12798.8V11002.8C12798.8 10976 12791.1 10954.7 12775.7 10938.9C12760.5 10923 12740.5 10915.1 12715.7 10915.1C12698.8 10915.1 12683.7 10919.3 12670.2 10927.9C12656.9 10936.2 12646.4 10947.9 12638.6 10963C12630.8 10977.9 12626.9 10995.5 12626.9 11015.6V11343H12475.6ZM13636.3 11353.7C13580.2 11353.7 13531.9 11342.3 13491.4 11319.6C13451.2 11296.6 13420.1 11264.2 13398.4 11222.3C13376.6 11180.1 13365.7 11130.3 13365.7 11072.8C13365.7 11016.7 13376.6 10967.4 13398.4 10925C13420.1 10882.7 13450.8 10849.6 13490.3 10826C13530.1 10802.3 13576.7 10790.4 13630.3 10790.4C13666.2 10790.4 13699.7 10796.2 13730.7 10807.8C13762 10819.2 13789.2 10836.4 13812.4 10859.3C13835.9 10882.3 13854.1 10911.2 13867.1 10946C13880.1 10980.5 13886.6 11021 13886.6 11067.4V11109H13426.1V11015.2H13744.2C13744.2 10993.4 13739.5 10974.2 13730 10957.3C13720.6 10940.5 13707.4 10927.4 13690.6 10917.9C13674 10908.2 13654.8 10903.4 13632.7 10903.4C13609.8 10903.4 13589.4 10908.7 13571.7 10919.3C13554.1 10929.8 13540.4 10943.9 13530.5 10961.6C13520.5 10979.1 13515.4 10998.7 13515.2 11020.2V11109.3C13515.2 11136.3 13520.2 11159.6 13530.1 11179.3C13540.3 11198.9 13554.6 11214.1 13573.1 11224.7C13591.5 11235.4 13613.4 11240.7 13638.8 11240.7C13655.6 11240.7 13671 11238.4 13684.9 11233.6C13698.9 11228.9 13710.9 11221.8 13720.8 11212.3C13730.7 11202.8 13738.3 11191.2 13743.5 11177.5L13883.4 11186.8C13876.3 11220.4 13861.8 11249.7 13839.8 11274.8C13818 11299.7 13789.8 11319.1 13755.3 11333.1C13720.9 11346.8 13681.3 11353.7 13636.3 11353.7Z" fill="#00B761"/>
<g clip-path="url(#clip0_3206_11567)">
<path d="M1116.93 9957.46C69.3861 6786.93 157.355 5763.09 559.077 5348.39C1228.85 4656.74 3615.82 6151.15 4162.28 5391.72C4408.09 5050.61 4010.84 4630 3950.3 3747.94C3860.81 2444.04 4492.8 515.863 5549.57 91.4199C7180.42 -563.643 8650.7 2532.55 10986.9 2060.95C12325.8 1790.63 12374 734.241 13615.1 633.494C15519.6 478.021 17857.1 2766.28 17726.9 4613C17648.5 5725.36 17404.7 6112.46 16975.5 8074.96C16849 8656.38 16903.5 9362.04 16917.3 9957.46H1116.93Z" fill="#F5F5F9"/>
<path d="M15202.8 4030.53H11440.9V9584.96H15202.8V4030.53Z" fill="#EBEBEB"/>
<path d="M12163.3 3254.19V4030.53H12459.9H14183.6H14480.5V3254.19H12163.3Z" fill="#EBEBEB"/>
<path d="M12163.5 4235.91H11681.9V4647.07H12163.5V4235.91Z" fill="#FAFAFA"/>
<path d="M13096.3 4235.91H12614.8V4647.07H13096.3V4235.91Z" fill="#FAFAFA"/>
<path d="M14028.9 4235.91H13547.4V4647.07H14028.9V4235.91Z" fill="#FAFAFA"/>
<path d="M14962.1 4235.91H14480.5V4647.07H14962.1V4235.91Z" fill="#FAFAFA"/>
<path d="M12163.5 4983.27H11681.9V5394.43H12163.5V4983.27Z" fill="#FAFAFA"/>
<path d="M13096.3 4983.27H12614.8V5394.43H13096.3V4983.27Z" fill="#FAFAFA"/>
<path d="M14028.9 4983.27H13547.4V5394.43H14028.9V4983.27Z" fill="#FAFAFA"/>
<path d="M14962.1 4983.27H14480.5V5394.43H14962.1V4983.27Z" fill="#FAFAFA"/>
<path d="M12163.5 5730.33H11681.9V6141.49H12163.5V5730.33Z" fill="#FAFAFA"/>
<path d="M13096.3 5730.33H12614.8V6141.49H13096.3V5730.33Z" fill="#FAFAFA"/>
<path d="M14028.9 5730.33H13547.4V6141.49H14028.9V5730.33Z" fill="#FAFAFA"/>
<path d="M13096.3 3590.09H12614.8V4001.25H13096.3V3590.09Z" fill="#FAFAFA"/>
<path d="M14028.9 3590.09H13547.4V4001.25H14028.9V3590.09Z" fill="#FAFAFA"/>
<path d="M14962.1 5730.33H14480.5V6141.49H14962.1V5730.33Z" fill="#FAFAFA"/>
<path d="M12163.5 6477.69H11681.9V6888.85H12163.5V6477.69Z" fill="#FAFAFA"/>
<path d="M13096.3 6477.69H12614.8V6888.85H13096.3V6477.69Z" fill="#FAFAFA"/>
<path d="M14028.9 6477.69H13547.4V6888.85H14028.9V6477.69Z" fill="#FAFAFA"/>
<path d="M14962.1 6477.69H14480.5V6888.85H14962.1V6477.69Z" fill="#FAFAFA"/>
<path d="M12163.5 7225.15H11681.9V7636.31H12163.5V7225.15Z" fill="#FAFAFA"/>
<path d="M13096.3 7225.15H12614.8V7636.31H13096.3V7225.15Z" fill="#FAFAFA"/>
<path d="M14028.9 7225.15H13547.4V7636.31H14028.9V7225.15Z" fill="#FAFAFA"/>
<path d="M14962.1 7225.15H14480.5V7636.31H14962.1V7225.15Z" fill="#FAFAFA"/>
<path d="M12163.5 7972.21H11681.9V8383.37H12163.5V7972.21Z" fill="#FAFAFA"/>
<path d="M13096.3 7972.21H12614.8V8383.37H13096.3V7972.21Z" fill="#FAFAFA"/>
<path d="M14028.9 7972.21H13547.4V8383.37H14028.9V7972.21Z" fill="#FAFAFA"/>
<path d="M14962.1 7972.21H14480.5V8383.37H14962.1V7972.21Z" fill="#FAFAFA"/>
<path d="M12163.5 8719.57H11681.9V9130.73H12163.5V8719.57Z" fill="#FAFAFA"/>
<path d="M13096.3 8719.57H12614.8V9130.73H13096.3V8719.57Z" fill="#FAFAFA"/>
<path d="M14028.9 8719.57H13547.4V9130.73H14028.9V8719.57Z" fill="#FAFAFA"/>
<path d="M14962.1 8719.57H14480.5V9130.73H14962.1V8719.57Z" fill="#FAFAFA"/>
<path d="M15280.4 3950.84H11362.9V4034.56H15280.4V3950.84Z" fill="#F5F5F5"/>
<path d="M11545.7 2981.89H7073.55V9584.66H11545.7V2981.89Z" fill="#E6E6E6"/>
<path d="M7932.14 2059.34V2981.89H8284.87H10333.9H10686.4V2059.34H7932.14Z" fill="#E6E6E6"/>
<path d="M11637.9 2887H6981.08V2986.82H11637.9V2887Z" fill="#F5F5F5"/>
<path d="M10803.8 1959.42H7815.24V2059.24H10803.8V1959.42Z" fill="#F5F5F5"/>
<path d="M10613.2 2981.89H6141.02V9584.66H10613.2V2981.89Z" fill="#F0F0F0"/>
<path d="M6999.88 2059.34V2981.89H7352.72H9401.78H9754.15V2059.34H6999.88Z" fill="#F0F0F0"/>
<path d="M6999.86 3226.62H6427.34V3715.47H6999.86V3226.62Z" fill="white"/>
<path d="M8108.71 3226.62H7536.2V3715.47H8108.71V3226.62Z" fill="white"/>
<path d="M9217.68 3226.62H8645.17V3715.47H9217.68V3226.62Z" fill="white"/>
<path d="M10326.7 3226.62H9754.17V3715.47H10326.7V3226.62Z" fill="white"/>
<path d="M6999.86 4114.86H6427.34V4603.7H6999.86V4114.86Z" fill="white"/>
<path d="M8108.71 4114.86H7536.2V4603.7H8108.71V4114.86Z" fill="white"/>
<path d="M9217.68 4114.86H8645.17V4603.7H9217.68V4114.86Z" fill="white"/>
<path d="M10326.7 4114.86H9754.17V4603.7H10326.7V4114.86Z" fill="white"/>
<path d="M6999.86 5003.1H6427.34V5491.95H6999.86V5003.1Z" fill="white"/>
<path d="M8108.71 5003.1H7536.2V5491.95H8108.71V5003.1Z" fill="white"/>
<path d="M9217.68 5003.1H8645.17V5491.95H9217.68V5003.1Z" fill="white"/>
<path d="M8108.71 2458.73H7536.2V2947.58H8108.71V2458.73Z" fill="white"/>
<path d="M9217.68 2458.73H8645.17V2947.58H9217.68V2458.73Z" fill="white"/>
<path d="M10326.7 5003.1H9754.17V5491.95H10326.7V5003.1Z" fill="white"/>
<path d="M6999.86 5891.44H6427.34V6380.28H6999.86V5891.44Z" fill="white"/>
<path d="M8108.71 5891.44H7536.2V6380.28H8108.71V5891.44Z" fill="white"/>
<path d="M9217.68 5891.44H8645.17V6380.28H9217.68V5891.44Z" fill="white"/>
<path d="M10326.7 5891.44H9754.17V6380.28H10326.7V5891.44Z" fill="white"/>
<path d="M6999.86 6779.67H6427.34V7268.52H6999.86V6779.67Z" fill="white"/>
<path d="M8108.71 6779.67H7536.2V7268.52H8108.71V6779.67Z" fill="white"/>
<path d="M9217.68 6779.67H8645.17V7268.52H9217.68V6779.67Z" fill="white"/>
<path d="M10326.7 6779.67H9754.17V7268.52H10326.7V6779.67Z" fill="white"/>
<path d="M6999.86 7667.91H6427.34V8156.76H6999.86V7667.91Z" fill="white"/>
<path d="M8108.71 7667.91H7536.2V8156.76H8108.71V7667.91Z" fill="white"/>
<path d="M9217.68 7667.91H8645.17V8156.76H9217.68V7667.91Z" fill="white"/>
<path d="M10326.7 7667.91H9754.17V8156.76H10326.7V7667.91Z" fill="white"/>
<path d="M6999.86 8556.15H6427.34V9045H6999.86V8556.15Z" fill="white"/>
<path d="M8108.71 8556.15H7536.2V9045H8108.71V8556.15Z" fill="white"/>
<path d="M9217.68 8556.15H8645.17V9045H9217.68V8556.15Z" fill="white"/>
<path d="M10326.7 8556.15H9754.17V9045H10326.7V8556.15Z" fill="white"/>
<path d="M10705.8 2887H6049.01V2986.82H10705.8V2887Z" fill="#F5F5F5"/>
<path d="M9871.41 1959.42H6882.86V2059.24H9871.41V1959.42Z" fill="#F5F5F5"/>
<path d="M3890.39 6199.35H1387.03V9556.38H5381.9V6199.35V4710.67L3890.39 6199.35Z" fill="#FAFAFA"/>
<path d="M6127.55 4710.67H5381.8V9556.79H6127.55V4710.67Z" fill="#E6E6E6"/>
<path d="M2167.8 6879.8H1573.25V7387.47H2167.8V6879.8Z" fill="#E0E0E0"/>
<path opacity="0.3" d="M2167.69 6879.8H1639.25V7387.47H2167.69V6879.8Z" fill="white"/>
<path d="M2167.8 7733.82H1573.25V8241.49H2167.8V7733.82Z" fill="#E0E0E0"/>
<path opacity="0.3" d="M2167.69 7733.82H1639.25V8241.49H2167.69V7733.82Z" fill="white"/>
<path d="M2167.8 8588.05H1573.25V9095.72H2167.8V8588.05Z" fill="#E0E0E0"/>
<path opacity="0.3" d="M2167.69 8588.05H1639.25V9095.72H2167.69V8588.05Z" fill="white"/>
<path opacity="0.2" d="M2233.8 8588.05H1639.25V9095.72H2233.8V8588.05Z" fill="white"/>
<path d="M3170.08 6879.8H2575.52V7387.47H3170.08V6879.8Z" fill="#E0E0E0"/>
<path opacity="0.3" d="M3170.31 6879.8H2641.88V7387.47H3170.31V6879.8Z" fill="white"/>
<path d="M3170.08 7733.82H2575.52V8241.49H3170.08V7733.82Z" fill="#E0E0E0"/>
<path opacity="0.3" d="M3170.31 7733.82H2641.88V8241.49H3170.31V7733.82Z" fill="white"/>
<path d="M3170.08 8588.05H2575.52V9095.72H3170.08V8588.05Z" fill="#E0E0E0"/>
<path opacity="0.3" d="M3170.31 8588.05H2641.88V9095.72H3170.31V8588.05Z" fill="white"/>
<path opacity="0.2" d="M3236.43 8588.05H2641.88V9095.72H3236.43V8588.05Z" fill="white"/>
<path d="M4172.35 6879.8H3577.8V7387.47H4172.35V6879.8Z" fill="#E0E0E0"/>
<path opacity="0.3" d="M4172.36 6879.8H3643.92V7387.47H4172.36V6879.8Z" fill="white"/>
<path d="M4172.35 7733.82H3577.8V8241.49H4172.35V7733.82Z" fill="#E0E0E0"/>
<path opacity="0.3" d="M4172.36 7733.82H3643.92V8241.49H4172.36V7733.82Z" fill="white"/>
<path d="M4172.35 8588.05H3577.8V9095.72H4172.35V8588.05Z" fill="#E0E0E0"/>
<path opacity="0.3" d="M4172.36 8588.05H3643.92V9095.72H4172.36V8588.05Z" fill="white"/>
<path opacity="0.2" d="M4238.47 8588.05H3643.92V9095.72H4238.47V8588.05Z" fill="white"/>
<path d="M5174.7 6879.8H4580.15V7387.47H5174.7V6879.8Z" fill="#E0E0E0"/>
<path opacity="0.3" d="M5174.83 6879.8H4646.39V7387.47H5174.83V6879.8Z" fill="white"/>
<path d="M5174.7 7733.82H4580.15V8241.49H5174.7V7733.82Z" fill="#E0E0E0"/>
<path opacity="0.3" d="M5174.83 7733.82H4646.39V8241.49H5174.83V7733.82Z" fill="white"/>
<path d="M5174.7 8588.05H4580.15V9095.72H5174.7V8588.05Z" fill="#E0E0E0"/>
<path opacity="0.3" d="M5174.83 8588.05H4646.39V9095.72H5174.83V8588.05Z" fill="white"/>
<path opacity="0.2" d="M5240.94 8588.05H4646.39V9095.72H5240.94V8588.05Z" fill="white"/>
<path d="M8648.96 1227.66L9697.82 1217.59C9735.06 1217.33 9771.58 1226.31 9802.95 1243.45V1243.45C10134.5 1512.43 10516.8 1357.16 10686.1 1262.98C10750.6 1226.74 10825.9 1206.92 10903.1 1205.82L12071.3 1194.45C12510 1190.02 12608.8 664.847 12192.9 545.906L12176.8 541.478C12630 211.32 11615.8 -467.11 10537.3 496.095C10616.1 178.012 9649.39 302.086 9356.06 737.601C9248.93 454.737 8330.41 957.371 8648.96 1227.66Z" fill="#EBEBEB"/>
<path d="M13075.8 2103.11H14817C15040.2 2103.11 15092.7 1836.55 14883.1 1773.96L14875.2 1771.65C15108 1605.91 14596.9 1256.23 14041.3 1740.35C14084.6 1579.35 13591.3 1637.21 13440.3 1857.38C13386.6 1712.98 12915.6 1965.56 13075.8 2103.11Z" fill="#EBEBEB"/>
<path d="M2013.87 2428.44H4971.9C5350.67 2428.44 5442 1975.62 5084.09 1869.36L5070.3 1865.33C5466.39 1583.57 4597.84 991.18 3652.8 1811.9C3726.46 1537.89 2887.84 1637.01 2631.52 2010.94C2540.77 1765.51 1741.75 2192.07 2013.87 2428.44Z" fill="#EBEBEB"/>
<path d="M16484 9546.93H16636.3V5351.77C16636.1 5238.86 16583.5 5130.62 16490 5050.78C16396.5 4970.94 16269.7 4926 16137.5 4925.81H16001.6V5058.64H16137.5C16228.9 5058.91 16316.5 5090.06 16381.1 5145.28C16445.7 5200.51 16482.1 5275.32 16482.3 5353.38L16484 9546.93Z" fill="#F0F0F0"/>
<path d="M16002.9 4252.42H15420.2V5657.38H16002.9V4252.42Z" fill="#EBEBEB"/>
<path d="M15420.5 5657.38H16002.8C16002.8 5684.07 15990.4 5709.66 15968.3 5728.53C15946.2 5747.4 15916.2 5758 15885 5758H15535.7C15504.4 5758 15474.4 5747.4 15452.3 5728.53C15430.2 5709.66 15417.8 5684.07 15417.8 5657.38H15420.5Z" fill="#E6E6E6"/>
<path d="M15531.3 4542.83C15531.3 4573.37 15541.9 4603.22 15561.7 4628.62C15581.6 4654.02 15609.8 4673.82 15642.9 4685.52C15675.9 4697.22 15712.3 4700.28 15747.3 4694.33C15782.4 4688.38 15814.6 4673.67 15839.9 4652.08C15865.2 4630.48 15882.4 4602.97 15889.4 4573.02C15896.4 4543.06 15892.8 4512.02 15879.1 4483.81C15865.4 4455.6 15842.2 4431.49 15812.5 4414.54C15782.7 4397.58 15747.8 4388.55 15712 4388.57V4388.57C15664.1 4388.57 15618.1 4404.82 15584.2 4433.75C15550.4 4462.68 15531.3 4501.91 15531.3 4542.83V4542.83Z" fill="#F0F0F0"/>
<path d="M15531.3 4505.19C15531.3 4535.73 15541.9 4565.59 15561.7 4590.99C15581.6 4616.39 15609.8 4636.19 15642.9 4647.88C15675.9 4659.58 15712.3 4662.65 15747.3 4656.69C15782.4 4650.74 15814.6 4636.04 15839.9 4614.44C15865.2 4592.85 15882.4 4565.33 15889.4 4535.38C15896.4 4505.43 15892.8 4474.38 15879.1 4446.17C15865.4 4417.96 15842.2 4393.86 15812.5 4376.9C15782.7 4359.95 15747.8 4350.91 15712 4350.93V4350.93C15664.2 4350.93 15618.3 4367.15 15584.5 4396.02C15550.7 4424.9 15531.7 4464.06 15531.7 4504.89L15531.3 4505.19Z" fill="#FAFAFA"/>
<path d="M15531.3 4964.46C15531.3 4994.99 15542 5024.82 15561.9 5050.2C15581.7 5075.57 15610 5095.34 15643 5107.01C15676.1 5118.67 15712.4 5121.71 15747.5 5115.73C15782.6 5109.76 15814.8 5095.04 15840 5073.43C15865.3 5051.83 15882.5 5024.32 15889.4 4994.37C15896.4 4964.42 15892.8 4933.39 15879.1 4905.19C15865.4 4876.99 15842.2 4852.9 15812.4 4835.95C15782.7 4819.01 15747.7 4809.97 15712 4809.99V4809.99C15688.2 4809.98 15664.7 4813.97 15642.8 4821.73C15620.8 4829.49 15600.9 4840.87 15584.1 4855.22C15567.3 4869.56 15554 4886.6 15545 4905.34C15535.9 4924.09 15531.3 4944.18 15531.3 4964.46V4964.46Z" fill="#F0F0F0"/>
<path d="M15531.3 4926.82C15531.2 4957.36 15541.7 4987.23 15561.5 5012.67C15581.3 5038.1 15609.5 5057.95 15642.5 5069.7C15675.6 5081.45 15711.9 5084.58 15747 5078.68C15782.1 5072.79 15814.3 5058.14 15839.7 5036.59C15865 5015.03 15882.3 4987.55 15889.3 4957.61C15896.4 4927.67 15892.9 4896.62 15879.2 4868.38C15865.6 4840.15 15842.5 4816 15812.8 4799C15783.1 4782 15748.1 4772.9 15712.3 4772.86H15711.6C15663.8 4772.86 15618 4789.08 15584.1 4817.95C15550.3 4846.83 15531.3 4885.99 15531.3 4926.82V4926.82Z" fill="#FAFAFA"/>
<path d="M15531.3 5386.08C15531.3 5416.61 15541.9 5446.46 15561.8 5471.85C15581.7 5497.24 15609.9 5517.02 15643 5528.7C15676 5540.38 15712.3 5543.43 15747.4 5537.47C15782.5 5531.5 15814.7 5516.79 15840 5495.2C15865.3 5473.6 15882.5 5446.08 15889.4 5416.13C15896.4 5386.18 15892.8 5355.14 15879.1 5326.94C15865.4 5298.73 15842.2 5274.63 15812.5 5257.68C15782.7 5240.73 15747.7 5231.7 15712 5231.72V5231.72C15688.3 5231.72 15664.8 5235.7 15643 5243.45C15621.1 5251.19 15601.2 5262.54 15584.4 5276.85C15567.7 5291.15 15554.4 5308.14 15545.4 5326.83C15536.3 5345.52 15531.7 5365.55 15531.7 5385.78L15531.3 5386.08Z" fill="#F0F0F0"/>
<path d="M15531.3 5348.75C15531.3 5379.29 15541.9 5409.13 15561.8 5434.52C15581.7 5459.91 15609.9 5479.69 15643 5491.37C15676 5503.05 15712.3 5506.11 15747.4 5500.14C15782.5 5494.18 15814.7 5479.47 15840 5457.87C15865.3 5436.27 15882.5 5408.75 15889.4 5378.8C15896.4 5348.85 15892.8 5317.81 15879.1 5289.61C15865.4 5261.41 15842.2 5237.3 15812.5 5220.36C15782.7 5203.41 15747.7 5194.37 15712 5194.39V5194.39C15688.3 5194.39 15664.7 5198.38 15642.8 5206.14C15620.9 5213.9 15601 5225.27 15584.2 5239.61C15567.4 5253.94 15554.1 5270.96 15545 5289.69C15536 5308.42 15531.3 5328.49 15531.3 5348.75Z" fill="#FAFAFA"/>
<path d="M2134.67 9722.02C1841.88 9545.65 1775.93 9216.71 1787.39 8921.94C1789.3 8872.67 1783.06 8820.63 1810.05 8777.42C1837.04 8734.21 1900.31 8704.56 1951.36 8725.39C1993.62 8742.59 2012.08 8785.25 2035.63 8820.41C2067.25 8867.33 2113.54 8905.55 2169.17 8930.65C2205.45 8946.96 2250.14 8956.88 2286.04 8939.8C2335.05 8916.43 2340.9 8857.67 2340.52 8808.62C2339.93 8716.9 2339.29 8625.56 2338.61 8534.58C2338.61 8485.52 2338.61 8435.37 2355.54 8389.07C2372.47 8342.77 2412.19 8299.34 2466.04 8286.33C2519.89 8273.32 2586.47 8300 2597.67 8348.06C2602.51 8368.01 2597.67 8388.63 2599.45 8409.02C2601.24 8429.41 2612.19 8451.9 2634.21 8457.52C2656.23 8463.14 2679.4 8449.47 2696.33 8435.47C2754.76 8385.54 2794.48 8322.37 2831.53 8259.1C2868.57 8195.82 2904.6 8130.79 2957.56 8076.77C3010.52 8022.76 3083.84 7980.1 3164.93 7976.13C3246.03 7972.16 3332.34 8015.48 3352.58 8084.38C3372.82 8153.27 3327.12 8223.6 3276.2 8279.6C3200.96 8362.5 3112.34 8435.6 3013.06 8496.66C2995.24 8507.68 2975.89 8519.47 2969.01 8537.66C2956.28 8570.73 2992.57 8602.81 3029.87 8613.5C3072 8625.96 3117.83 8621.88 3162.01 8625.96C3206.18 8630.04 3253.79 8647.35 3270.47 8683.39C3293.76 8733.44 3245.01 8786.02 3198.29 8820.97C3102.91 8889.85 2994.57 8944.03 2877.99 8981.14C2836.37 8994.25 2792.45 9006.05 2758.96 9031.07C2725.48 9056.1 2705.12 9100.52 2725.36 9135.02C2745.6 9169.53 2797.54 9180.55 2840.82 9173.5C2884.1 9166.44 2923.44 9146.05 2965.07 9132.49C3042.85 9107.47 3143.29 9111.76 3193.19 9169.97C3225.78 9208.22 3228.71 9261.57 3212.16 9307.54C3195.61 9353.51 3162.01 9392.42 3126.23 9428.8C3001.48 9554.8 2841.33 9656.76 2661.45 9711C2481.57 9765.24 2313.66 9779.79 2134.42 9723.46" fill="#66D4A0"/>
<path d="M2135.34 9907.7C2150.8 9773.95 2180.84 9641.79 2225.04 9513.02C2279.83 9355.7 2344.96 9201.27 2420.11 9050.51C2439.85 9010.4 2459.09 8970.6 2478.34 8931.89C2497.59 8893.18 2516.71 8854.14 2537.93 8817.37C2579.13 8746.75 2624.68 8678.13 2674.39 8611.83C2721.4 8548.42 2768.66 8489.54 2813.32 8434.87C2857.98 8380.2 2900.92 8330.05 2942.25 8285.84C3007.02 8215.61 3078.02 8149.95 3154.59 8089.47C3181.61 8067.9 3203.33 8052.81 3218.13 8041.59L3235.16 8029.3C3236.94 8027.79 3238.93 8026.49 3241.08 8025.42C3239.47 8027.06 3237.69 8028.57 3235.77 8029.94L3219.37 8041.81C3205.42 8052.59 3183.83 8069.3 3157.68 8090.76C3082.23 8152.03 3012.12 8218.14 2947.93 8288.54C2907.21 8332.97 2864.77 8383.22 2820.23 8438C2775.69 8492.78 2729.05 8551.66 2682.41 8615.07C2632.95 8681.16 2587.64 8749.55 2546.69 8819.96C2525.6 8856.62 2506.84 8895.44 2487.47 8934.05C2468.1 8972.65 2449.1 9012.88 2429.36 9052.67C2354.22 9203.11 2288.81 9357.13 2233.43 9513.99C2189.08 9642.51 2158.72 9774.41 2142.75 9907.92" fill="#008949"/>
<path d="M2542.61 8818.05C2540.7 8811.19 2539.41 8804.09 2538.76 8796.88C2536.62 8783.18 2534.21 8763.46 2531.35 8738.61C2525.8 8689.36 2519.82 8620.84 2513.47 8545.41C2507.13 8469.99 2500.51 8401.69 2494.35 8352.55C2491.31 8328.04 2488.72 8307.99 2486.75 8294.62C2485.34 8287.58 2484.59 8280.37 2484.52 8273.11C2486.76 8279.78 2488.44 8286.73 2489.52 8293.84C2492.29 8307.32 2495.69 8327.26 2499.62 8351.55C2507.13 8400.46 2514.63 8468.87 2520.89 8544.41C2527.15 8619.95 2532.33 8686.36 2536.62 8737.83C2538.58 8761.12 2540.28 8780.72 2541.62 8796.32C2542.57 8803.5 2542.9 8810.78 2542.61 8818.05Z" fill="#008949"/>
<path d="M3241.1 8719.64C3231.98 8721.14 3222.69 8722 3213.36 8722.21C3195.52 8723.31 3169.61 8724.96 3137.59 8727.81C3073.56 8732.96 2985.09 8742.52 2889.04 8756.11C2793 8769.71 2705.75 8785.24 2643.67 8797.83C2612.39 8803.9 2587.34 8809.32 2570.35 8812.99C2561.36 8815.28 2552.12 8816.97 2542.74 8818.05C2551.04 8814.77 2559.76 8812.12 2568.76 8810.15C2585.75 8805.64 2610.31 8799.76 2642.08 8792.78C2704.04 8778.9 2790.8 8762.73 2887.58 8748.86C2970.11 8736.93 3053.39 8728.16 3137.11 8722.58C3169.24 8720.55 3195.39 8719.63 3213.36 8719.36C3222.59 8718.76 3231.89 8718.85 3241.1 8719.64V8719.64Z" fill="#008949"/>
<path d="M2193.54 9511.6C2191.72 9509.23 2190.14 9506.73 2188.81 9504.11L2176.69 9481.64C2166.52 9462.1 2152.46 9433.45 2135.5 9397.95C2102.06 9326.85 2059.29 9227.31 2014.34 9117.02C1969.39 9006.74 1927.23 8906.87 1895.48 8834.79L1857.44 8750.34L1847.26 8727.33C1845.92 8724.66 1844.94 8721.85 1844.36 8718.97C1846.3 8721.34 1847.89 8723.93 1849.08 8726.68C1852.35 8732.65 1856.23 8740.03 1861.2 8749.04C1871.25 8768.58 1885.43 8797.13 1902.39 8832.73C1935.95 8903.83 1978.48 9003.26 2023.55 9113.66C2068.62 9224.05 2110.66 9323.7 2142.41 9395.35L2180.21 9480.12C2184.33 9489.35 2187.6 9496.95 2190.26 9503.24C2191.73 9505.9 2192.83 9508.71 2193.54 9511.6Z" fill="#008949"/>
<path d="M3182.87 9264.04C3179.82 9265.41 3176.53 9266.43 3173.11 9267.08L3144.33 9274.58L3038.73 9301.33C2949.14 9324.33 2826.22 9356.15 2690.28 9392.53C2554.34 9428.91 2430.38 9459.72 2340.54 9479.99C2295.48 9490.63 2258.76 9498.84 2233.37 9504.21L2203.81 9510.19C2200.52 9511.11 2197.04 9511.59 2193.53 9511.6C2196.62 9510.3 2199.9 9509.28 2203.29 9508.56L2231.94 9501.07L2337.93 9474.31C2427.26 9451.31 2550.44 9419.49 2686.38 9383.11C2822.32 9346.73 2945.89 9315.82 3035.86 9294.74C3080.92 9284.61 3117.37 9275.9 3142.9 9270.63L3172.32 9264.65C3175.76 9263.95 3179.34 9263.74 3182.87 9264.04V9264.04Z" fill="#008949"/>
<path d="M15870.1 5850.82C15870.1 5850.82 15618 5767.9 15465.4 6268.02C15312.8 6768.14 15277.8 7046.47 15277.8 7046.47C15277.8 7046.47 15230.6 7154.14 15139.3 7106.85C15048 7059.55 14898.9 6904.28 14778.2 6959.83C14652.9 7017.49 14641.7 7153.24 14715.4 7335.57C14789.1 7517.91 14933.2 7922.43 14946.5 7959.46C14959.8 7996.49 14948.4 8053.75 14879.9 8029.9C14811.5 8006.05 14385 7744.82 14252.3 7924.85C14119.6 8104.87 14421.5 8584.06 14453.4 8636.89C14485.4 8689.72 14478.6 8716.18 14451.1 8736.11C14423.5 8756.03 14289.7 8656.41 14165 8586.27C14040.4 8516.13 13881.1 8453.64 13814.6 8563.13C13748 8672.61 13817.7 9061.53 14405.7 9604.52L14697.4 9840.79L15087.5 9748.62C15905.9 9507.11 16182.8 9192.55 16183.5 9068.68C16184.2 8944.81 16010.5 8936.45 15861.6 8947.93C15712.8 8959.4 15540.6 8992.91 15527.7 8964.73C15514.9 8936.55 15523 8910.09 15580.3 8876.28C15637.6 8842.47 16169.6 8542.4 16152.2 8329.87C16134.9 8117.35 15614.2 8176.01 15540.6 8168.87C15466.9 8161.72 15490.1 8106.18 15521.1 8079.61C15552.1 8053.05 15903.6 7754.18 16069.5 7623.27C16235.4 7492.35 16300 7368.38 16221.8 7266.74C16146.2 7168.93 15929.1 7245.81 15822.2 7250.34C15715.4 7254.87 15733.6 7141.56 15733.6 7141.56C15733.6 7141.56 15856.7 6882.04 15998.9 6379.71C16141.1 5877.38 15865.6 5849.21 15865.6 5849.21" fill="#66D4A0"/>
<path d="M14650.3 9912.84C14756.4 9544.35 14957.7 8891.78 15127 8330.88C15296.4 7769.98 15449.1 7262.42 15557.3 6894.22C15611.1 6710.58 15655.9 6561.25 15684.8 6458.3C15700 6407.08 15711.5 6367.74 15720.2 6339.77C15724 6326.48 15727.1 6316.32 15729.5 6308.87C15731.8 6301.43 15733 6298.81 15733 6298.81C15733 6298.81 15732.4 6302.33 15730.6 6309.38L15722.6 6340.57L15689.7 6459.11C15661.2 6562.35 15619 6710.68 15565.9 6896.03C15459.8 7264.53 15308.5 7772.7 15139 8333.6C14969.6 8894.49 14767.1 9546.46 14658.9 9914.66" fill="#008949"/>
<path d="M14976.2 7183.62C14982.2 7190.17 14987.4 7197.21 14991.7 7204.65C15001.3 7218.34 15014.4 7238.56 15029.9 7263.42C15061.4 7313.73 15103.4 7384.17 15147.8 7462.56L15260.1 7663.81L15294.4 7724.19C15298.9 7731.19 15302.5 7738.57 15305.1 7746.23C15298.9 7739.92 15293.6 7732.99 15289.3 7725.6C15279.8 7711.91 15266.7 7691.69 15251.4 7666.43C15220.4 7616.12 15179.8 7545.07 15135.7 7466.59L15022.1 7266.54L14986.8 7206.16C14982.1 7199.09 14978.5 7191.5 14976.2 7183.62V7183.62Z" fill="#008949"/>
<path d="M15343.7 7747.13C15342 7744.42 15508.6 7665.02 15714.8 7569.43C15920.9 7473.83 16090.4 7398.36 16091.9 7401.38C16093.4 7404.4 15926.9 7483.39 15720.8 7578.99C15514.7 7674.58 15345.9 7749.55 15343.7 7747.13Z" fill="#008949"/>
<path d="M15038.1 8598.04C15047.4 8594.54 15057.2 8592.1 15067.2 8590.8L15146 8576.31C15213.1 8564.13 15303.8 8547.43 15405.2 8524.08C15506.7 8500.74 15596.3 8479.2 15661.3 8462.19L15738.6 8442.07C15747.9 8439.14 15757.6 8437.05 15767.4 8435.83C15758.8 8439.98 15749.7 8443.35 15740.3 8445.89C15722.4 8451.63 15696.6 8459.88 15664 8469.24C15599.5 8487.96 15509.5 8512.01 15408.5 8534.45C15307.5 8556.89 15215.3 8573.09 15148.1 8583.45C15115.3 8588.48 15087.4 8592.51 15068.4 8594.72C15058.5 8596.7 15048.3 8597.81 15038.1 8598.04Z" fill="#008949"/>
<path d="M14574.3 8151.46C14581.9 8155.97 14588.7 8161.32 14594.6 8167.36L14646.3 8213.34C14689.4 8252.39 14748.5 8306.93 14813.1 8367.71C14877.7 8428.48 14936 8483.73 14977.4 8524.18L15026.2 8572.38C15032.5 8578.06 15038.1 8584.34 15042.8 8591.1C15035.3 8586.55 15028.6 8581.21 15022.7 8575.2L14970 8529.82C14926.7 8490.67 14867.5 8436.13 14803 8375.35C14738.4 8314.57 14680.3 8259.43 14638.7 8218.88L14589.9 8170.68C14583.8 8164.85 14578.6 8158.39 14574.3 8151.46V8151.46Z" fill="#008949"/>
<path d="M14192.9 8874.17C14202 8880.32 14210.5 8887.05 14218.4 8894.29L14285.2 8953.16C14340.9 9003.47 14417.4 9072.6 14500.8 9149.68C14584.3 9226.77 14660.2 9297.1 14714.2 9348.12L14778 9410.41C14786.3 9417.65 14793.7 9425.49 14800.3 9433.86C14790.9 9427.94 14782.3 9421.19 14774.6 9413.73L14707.8 9354.86C14652.1 9304.55 14575.6 9235.42 14492.1 9158.34C14408.7 9081.26 14333 9009.31 14278.5 8958.69L14214.5 8896.3C14206.4 8889.61 14199.1 8882.19 14192.9 8874.17V8874.17Z" fill="#008949"/>
<path d="M14789.4 9415.54C14801.1 9411.48 14813.2 9408.42 14825.6 9406.38L14924.7 9384.84C15008.6 9366.53 15124 9340.87 15251.3 9309.07C15378.5 9277.27 15491.8 9247.09 15573.9 9224.24L15671.4 9197.38C15682.9 9193.55 15694.7 9190.59 15706.8 9188.52C15695.7 9193.55 15684.3 9197.79 15672.5 9201.2C15649.7 9208.75 15616.8 9219.11 15575.9 9231.39C15494.2 9256.34 15381.3 9287.34 15253.9 9319.24C15126.5 9351.13 15011 9374.98 14926.5 9391.59C14884.4 9399.64 14850.1 9405.98 14825.9 9409.5C14814 9412.29 14801.7 9414.31 14789.4 9415.54V9415.54Z" fill="#008949"/>
<path d="M17673 9858.88H345.49C309.185 9858.88 279.754 9892.03 279.754 9932.94C279.754 9973.84 309.185 10007 345.49 10007H17673C17709.3 10007 17738.8 9973.84 17738.8 9932.94C17738.8 9892.03 17709.3 9858.88 17673 9858.88Z" fill="#0D8394"/>
<path d="M11062.5 2911.79C11066 3061.1 11018.2 3208 10925.1 3334.43C10850.1 3434.85 10748.5 3518.76 10628.4 3579.35C10442.9 3197.97 10497.8 2886.03 10662.6 2816.6C10797.1 2759.94 10994.1 2870.03 11062.5 2911.79Z" fill="#00B761"/>
<path d="M13039 7476.95C13039 7524.24 13022.5 7570.47 12991.8 7609.79C12961 7649.1 12917.3 7679.75 12866.1 7697.84C12814.9 7715.94 12758.6 7720.68 12704.3 7711.45C12650 7702.22 12600.1 7679.45 12561 7646.02C12521.8 7612.58 12495.1 7569.98 12484.3 7523.6C12473.5 7477.22 12479.1 7429.15 12500.3 7385.46C12521.4 7341.77 12557.3 7304.43 12603.4 7278.16C12649.4 7251.88 12703.6 7237.86 12759 7237.86C12833.2 7237.86 12904.4 7263.05 12956.9 7307.89C13009.5 7352.73 13039 7413.54 13039 7476.95V7476.95Z" fill="#151515"/>
<path d="M12245.4 7325.51C12245.4 7325.51 12415.9 7090.65 12747.9 7090.65V7848.57L12245.4 7325.51Z" fill="#008949"/>
<path d="M12790.8 7904.52C12782 7904.52 12773.4 7903.05 12765.3 7900.19C12757.2 7897.33 12749.9 7893.15 12743.7 7887.87C12737.5 7882.59 12732.6 7876.32 12729.3 7869.42C12725.9 7862.52 12724.2 7855.13 12724.2 7847.66V7099.6C12724.2 7092.13 12725.9 7084.74 12729.3 7077.84C12732.6 7070.95 12737.5 7064.68 12743.7 7059.4C12749.9 7054.12 12757.2 7049.93 12765.3 7047.07C12773.4 7044.22 12782 7042.75 12790.8 7042.75C12799.5 7042.73 12808.2 7044.19 12816.3 7047.04C12824.4 7049.9 12831.7 7054.08 12837.9 7059.36C12844.1 7064.64 12849 7070.92 12852.4 7077.82C12855.8 7084.72 12857.5 7092.13 12857.5 7099.6V7847.66C12857.5 7855.14 12855.8 7862.54 12852.4 7869.45C12849 7876.35 12844.1 7882.62 12837.9 7887.9C12831.7 7893.18 12824.4 7897.37 12816.3 7900.22C12808.2 7903.07 12799.5 7904.53 12790.8 7904.52V7904.52Z" fill="#008949"/>
<path d="M9676.6 7796.65C9676.6 7796.65 9945.3 7356.3 9864.1 7017.59C9782.9 6678.88 9551.56 6626.25 9551.56 6626.25H11360.8C11549.4 6626.25 11943.2 7339.7 11943.2 7339.7L9676.6 7796.65Z" fill="#008949"/>
<path d="M6432.48 9542C6927.23 9119.55 6927.23 8434.62 6432.48 8012.18C5937.73 7589.73 5135.58 7589.73 4640.83 8012.18C4146.08 8434.62 4146.09 9119.55 4640.83 9541.99C5135.58 9964.44 5937.73 9964.44 6432.48 9542Z" fill="#151515"/>
<path d="M6151.32 8782.8C6150.01 8886.6 6112.68 8987.73 6044.05 9073.42C5975.42 9159.11 5878.58 9225.49 5765.77 9264.18C5652.95 9302.87 5529.23 9312.13 5410.26 9290.79C5291.28 9269.44 5182.39 9218.45 5097.35 9144.27C5012.31 9070.08 4954.95 8976.03 4932.51 8874C4910.07 8771.98 4923.57 8666.56 4971.29 8571.09C5019.02 8475.61 5098.83 8394.37 5200.63 8337.62C5302.43 8280.88 5421.65 8251.18 5543.22 8252.29C5706.24 8253.8 5861.89 8310.54 5975.92 8410.02C6089.96 8509.51 6153.05 8643.6 6151.32 8782.8V8782.8Z" fill="#494949"/>
<path d="M5769.12 8779.17C5768.63 8818.4 5754.52 8856.62 5728.59 8889C5702.66 8921.38 5666.07 8946.46 5623.44 8961.09C5580.81 8975.71 5534.06 8979.21 5489.11 8971.15C5444.15 8963.09 5403 8943.82 5370.86 8915.79C5338.72 8887.76 5317.04 8852.22 5308.56 8813.67C5300.08 8775.12 5305.17 8735.28 5323.2 8699.21C5341.24 8663.13 5371.39 8632.42 5409.86 8610.98C5448.32 8589.53 5493.37 8578.31 5539.31 8578.72C5569.81 8579 5599.96 8584.4 5628.01 8594.63C5656.07 8604.85 5681.5 8619.69 5702.84 8638.31C5724.18 8656.92 5741.01 8678.94 5752.39 8703.11C5763.76 8727.28 5769.44 8753.13 5769.12 8779.17V8779.17Z" fill="white"/>
<path d="M5608.19 7581.71C4875.28 7575.26 4217.44 8138.78 4209.54 8764.88L6964.52 8736.1C6971.94 8110.3 6341.21 7588.45 5608.19 7581.71Z" fill="#00B761"/>
<path d="M11912.7 9786.13C12563.1 9565.82 12881.1 8937.04 12623.1 8381.71C12365.1 7826.39 11628.7 7554.81 10978.3 7775.13C10327.9 7995.45 10009.9 8624.23 10267.9 9179.55C10525.9 9734.87 11262.3 10006.5 11912.7 9786.13Z" fill="#151515"/>
<path d="M12037.3 8922.97C12004.2 9022.84 11937.1 9112.07 11844.6 9179.4C11752.1 9246.73 11638.2 9289.12 11517.5 9301.21C11396.8 9313.31 11274.5 9294.57 11166.3 9247.36C11058 9200.16 10968.6 9126.6 10909.3 9036C10850 8945.39 10823.5 8841.81 10833.1 8738.34C10842.7 8634.87 10888.1 8536.16 10963.4 8454.69C11038.7 8373.22 11140.6 8312.65 11256.3 8280.63C11371.9 8248.62 11496.1 8246.6 11613 8274.83C11690.7 8293.59 11763.3 8325.24 11826.7 8367.97C11890.1 8410.7 11943 8463.67 11982.4 8523.86C12021.8 8584.05 12046.9 8650.27 12056.3 8718.75C12065.8 8787.23 12059.3 8856.63 12037.3 8922.97V8922.97Z" fill="#494949"/>
<path d="M11669.2 8833.91C11656.7 8871.65 11631.3 8905.37 11596.4 8930.8C11561.4 8956.24 11518.4 8972.25 11472.7 8976.81C11427.1 8981.36 11380.9 8974.27 11340 8956.41C11299.1 8938.56 11265.3 8910.75 11242.9 8876.5C11220.5 8842.25 11210.5 8803.1 11214.2 8764C11217.9 8724.9 11235 8687.61 11263.5 8656.83C11292 8626.06 11330.5 8603.19 11374.2 8591.11C11417.9 8579.03 11464.9 8578.29 11509.1 8588.99C11568.3 8603.35 11618.5 8637.22 11648.5 8683.14C11678.5 8729.07 11686 8783.3 11669.2 8833.91Z" fill="white"/>
<path d="M8620.85 9106.51C9380.74 9106.51 9419.16 8590.5 9419.16 8199.46C9419.16 7572.45 9948.43 6968.28 11265.6 6968.28C12582.8 6968.28 12932.5 8118.65 12932.5 8702.29H10103.3V9203.11C10103.3 9203.11 7860.95 9106.51 8620.85 9106.51Z" fill="#00B761"/>
<path d="M6483.66 5802.31C6483.66 5802.31 6673.51 6036.87 6468.81 6498.85C6318.67 6837.67 6143.07 6891 5999.65 7012.96C5739.32 7235.35 5608.15 7581.71 5608.15 7581.71C5608.15 7581.71 6485.19 7634.43 6771.57 8240.41C7057.94 8846.39 6954.47 9203.52 6954.47 9203.52H7865.8C7865.8 9203.52 7213.97 8747.17 6930.43 8179.03C6646.88 7610.89 6762.61 6553.49 7017.28 6123.71C7271.96 5693.94 6909.92 4965.19 6468.81 4965.19L6483.66 5802.31Z" fill="#00B761"/>
<path d="M6468.79 4965.19C6468.79 4965.19 6573.68 4898.07 6900.24 5037.44C7226.8 5176.81 7912.21 5492.98 7912.21 5492.98C7912.21 5492.98 8136.13 5653.99 7879.8 5802.31C7623.48 5950.64 6605.38 6317.52 6889.87 7799.76C6908.49 7896.47 6950.44 7995.69 7007.01 8093.7C7326.26 8647.15 7995.41 8989.28 8717.6 8993.81L10102.8 9001.76V9203.01L7497.03 9203.62C7497.03 9203.62 6589 8174.1 6589 7390.11C6589 6606.12 7474.99 5438.84 6468.79 4965.19Z" fill="#008949"/>
<path d="M6370.81 5731.87C6324.33 5731.87 6279.76 5716.1 6246.89 5688.04C6214.03 5659.98 6195.56 5621.92 6195.56 5582.24V5177.51C6195.56 5137.83 6214.03 5099.77 6246.89 5071.71C6279.76 5043.64 6324.33 5027.88 6370.81 5027.88V5027.88V5731.87Z" fill="#151515"/>
<path d="M6423.56 5835.42C6395.71 5835.42 6369 5825.97 6349.31 5809.16C6329.62 5792.34 6318.56 5769.54 6318.56 5745.76V5038.25C6318.56 5026.47 6321.27 5014.81 6326.55 5003.94C6331.83 4993.06 6339.56 4983.17 6349.31 4974.85C6359.06 4966.52 6370.64 4959.92 6383.38 4955.41C6396.12 4950.91 6409.77 4948.59 6423.56 4948.59C6437.34 4948.59 6450.99 4950.91 6463.73 4955.41C6476.46 4959.92 6488.03 4966.53 6497.77 4974.85C6507.51 4983.18 6515.23 4993.07 6520.5 5003.94C6525.76 5014.82 6528.46 5026.48 6528.45 5038.25V5745.76C6528.46 5757.53 6525.76 5769.18 6520.5 5780.06C6515.23 5790.94 6507.51 5800.82 6497.77 5809.15C6488.03 5817.48 6476.46 5824.08 6463.73 5828.59C6450.99 5833.1 6437.34 5835.42 6423.56 5835.42Z" fill="#008949"/>
<path d="M7933.68 5507.68L6942.92 5051.83C6973.57 5003.28 7025.55 4967.11 7087.43 4951.27C7149.31 4935.44 7216.03 4941.24 7272.9 4967.41L7834.92 5226.02C7863.09 5238.97 7887.99 5256.53 7908.21 5277.7C7928.43 5298.87 7943.56 5323.24 7952.74 5349.4C7961.92 5375.57 7964.98 5403.03 7961.73 5430.2C7958.48 5457.38 7948.99 5483.74 7933.8 5507.78L7933.68 5507.68Z" fill="#00B761"/>
<path d="M7640.12 5460.08C7640.14 5495.67 7627.8 5530.47 7604.65 5560.08C7581.51 5589.68 7548.6 5612.76 7510.09 5626.39C7471.58 5640.02 7429.21 5643.59 7388.32 5636.65C7347.44 5629.71 7309.88 5612.57 7280.4 5587.4C7250.93 5562.24 7230.86 5530.17 7222.73 5495.26C7214.6 5460.35 7218.78 5424.16 7234.75 5391.28C7250.71 5358.4 7277.74 5330.3 7312.41 5310.54C7347.08 5290.78 7387.83 5280.24 7429.52 5280.26C7485.36 5280.29 7538.91 5299.24 7578.4 5332.96C7617.89 5366.67 7640.08 5412.4 7640.12 5460.08V5460.08Z" fill="#00B761"/>
<path d="M7429.49 5540.99C7481.82 5540.99 7524.24 5504.76 7524.24 5460.08C7524.24 5415.4 7481.82 5379.18 7429.49 5379.18C7377.16 5379.18 7334.74 5415.4 7334.74 5460.08C7334.74 5504.76 7377.16 5540.99 7429.49 5540.99Z" fill="#494949"/>
<path d="M12065.1 8365.89H11201.9C11193.5 8365.89 11185.3 8364.49 11177.5 8361.76C11169.8 8359.03 11162.8 8355.03 11156.9 8349.98C11151 8344.93 11146.3 8338.94 11143.1 8332.35C11139.9 8325.76 11138.2 8318.69 11138.2 8311.56V8311.56C11138.2 8304.42 11139.9 8297.35 11143.1 8290.76C11146.3 8284.17 11151 8278.18 11156.9 8273.13C11162.8 8268.09 11169.8 8264.09 11177.5 8261.35C11185.3 8258.62 11193.5 8257.22 11201.9 8257.22H12065.1C12082 8257.22 12098.2 8262.94 12110.1 8273.13C12122.1 8283.32 12128.8 8297.15 12128.8 8311.56C12128.8 8325.97 12122.1 8339.79 12110.1 8349.98C12098.2 8360.17 12082 8365.89 12065.1 8365.89Z" fill="#008949"/>
<path d="M12065.1 8145.42H11201.9C11193.5 8145.42 11185.3 8144.01 11177.5 8141.28C11169.8 8138.55 11162.8 8134.55 11156.9 8129.5C11151 8124.46 11146.3 8118.47 11143.1 8111.88C11139.9 8105.28 11138.2 8098.22 11138.2 8091.08V8091.08C11138.2 8083.95 11139.9 8076.88 11143.1 8070.29C11146.3 8063.69 11151 8057.7 11156.9 8052.66C11162.8 8047.61 11169.8 8043.61 11177.5 8040.88C11185.3 8038.15 11193.5 8036.74 11201.9 8036.74H12065.1C12082 8036.74 12098.2 8042.47 12110.1 8052.66C12122.1 8062.85 12128.8 8076.67 12128.8 8091.08C12128.8 8105.49 12122.1 8119.31 12110.1 8129.5C12098.2 8139.69 12082 8145.42 12065.1 8145.42Z" fill="#008949"/>
<path d="M12065.1 7934.91H11201.9C11193.5 7934.91 11185.3 7933.5 11177.5 7930.77C11169.8 7928.04 11162.8 7924.04 11156.9 7918.99C11151 7913.95 11146.3 7907.96 11143.1 7901.36C11139.9 7894.77 11138.2 7887.71 11138.2 7880.57V7880.57C11138.2 7873.43 11139.9 7866.37 11143.1 7859.77C11146.3 7853.18 11151 7847.19 11156.9 7842.15C11162.8 7837.1 11169.8 7833.1 11177.5 7830.37C11185.3 7827.64 11193.5 7826.23 11201.9 7826.23H12065.1C12082 7826.23 12098.2 7831.96 12110.1 7842.15C12122.1 7852.34 12128.8 7866.16 12128.8 7880.57C12128.8 7894.98 12122.1 7908.8 12110.1 7918.99C12098.2 7929.18 12082 7934.91 12065.1 7934.91Z" fill="#008949"/>
<path d="M11384.6 6787.76H9451.3C9451.3 6689.01 9497.24 6594.31 9579.02 6524.49C9660.79 6454.66 9771.7 6415.44 9887.35 6415.44H11634V6574.83C11634 6602.8 11627.6 6630.51 11615.1 6656.36C11602.6 6682.21 11584.2 6705.7 11561.1 6725.48C11537.9 6745.26 11510.4 6760.94 11480.1 6771.63C11449.8 6782.32 11417.4 6787.8 11384.6 6787.76Z" fill="#151515"/>
<path d="M9895.78 9380.72H7161.66C7134.4 9380.74 7107.41 9376.16 7082.22 9367.26C7057.04 9358.36 7034.15 9345.31 7014.88 9328.85C6995.61 9312.39 6980.32 9292.85 6969.9 9271.35C6959.47 9249.84 6954.11 9226.79 6954.13 9203.52H10103.3C10103.3 9226.79 10098 9249.84 10087.5 9271.35C10077.1 9292.85 10061.8 9312.39 10042.6 9328.85C10023.3 9345.31 10000.4 9358.36 9975.22 9367.26C9950.03 9376.16 9923.03 9380.74 9895.78 9380.72Z" fill="#008949"/>
<path d="M12870.4 8877.08H10095.5C10066.2 8877.08 10038.1 8867.14 10017.4 8849.44C9996.65 8831.73 9985 8807.73 9985 8782.69C9985 8757.66 9996.65 8733.65 10017.4 8715.95C10038.1 8698.25 10066.2 8688.3 10095.5 8688.3H12870.4C12885 8688.3 12899.3 8690.75 12912.7 8695.49C12926.2 8700.23 12938.3 8707.19 12948.6 8715.95C12958.9 8724.72 12967 8735.12 12972.6 8746.57C12978.1 8758.02 12981 8770.3 12981 8782.69C12981 8795.09 12978.1 8807.36 12972.6 8818.81C12967 8830.27 12958.9 8840.67 12948.6 8849.44C12938.3 8858.2 12926.2 8865.15 12912.7 8869.9C12899.3 8874.64 12885 8877.08 12870.4 8877.08V8877.08Z" fill="#008949"/>
<path d="M4189.17 8682.97H6966.42C6978.01 8682.97 6989.14 8686.91 6997.33 8693.91C7005.53 8700.91 7010.14 8710.4 7010.14 8720.31V8752C7010.14 8761.9 7005.53 8771.4 6997.33 8778.4C6989.14 8785.4 6978.01 8789.34 6966.42 8789.34H4177.98C4166.38 8789.34 4155.26 8785.4 4147.06 8778.4C4138.86 8771.4 4134.26 8761.9 4134.26 8752V8729.86C4134.26 8717.43 4140.04 8705.5 4150.34 8696.71C4160.64 8687.91 4174.61 8682.97 4189.17 8682.97V8682.97Z" fill="#008949"/>
<path d="M9979.76 2895.39C9979.76 2895.39 10015.1 3062.03 9995.91 3114.76C9976.7 3167.49 9955.37 3200.49 9979.76 3240.95C10004.2 3281.4 10046.3 3453.47 10056.1 3513.14C10065.9 3572.81 10182.9 3596.46 10238.2 3596.46C10293.5 3596.46 10332.5 3714.4 10332.5 3714.4C10332.5 3714.4 10582.8 3701.92 10817 3644.96C10785.3 3588.84 10764.3 3528.74 10754.9 3466.95C10733.5 3323.26 10792.1 3269.02 10779.6 3160.34C10765.5 3038.68 10669.4 2913 10535.5 2849.61C10370.3 2771.32 10153.8 2790.94 9979.76 2895.39Z" fill="#F9C29D"/>
<path d="M10628.5 3579.56C10594.6 3579.57 10562 3569.06 10536.5 3549.98C10511.1 3530.9 10494.7 3504.57 10490.4 3475.91L10404.1 2902.33H10852.8L10766.5 3475.91C10762.2 3504.56 10745.8 3530.9 10720.4 3549.97C10695 3569.05 10662.3 3579.57 10628.5 3579.56V3579.56Z" fill="#00B761"/>
<path d="M11062.6 2911.79C11065.3 2846.26 11052.6 2780.93 11025.1 2719.7C10997.5 2658.48 10955.9 2602.61 10902.5 2555.43C10849.2 2508.26 10785.3 2470.74 10714.6 2445.11C10643.9 2419.48 10567.9 2406.28 10491.1 2406.28C10414.3 2406.28 10338.3 2419.48 10267.6 2445.11C10196.9 2470.74 10133 2508.26 10079.6 2555.43C10026.3 2602.61 9984.61 2658.48 9957.1 2719.7C9929.59 2780.93 9916.81 2846.26 9919.51 2911.79H11062.6Z" fill="#00B761"/>
<path d="M9712.22 2919.44H10491.8C10508.8 2919.44 10510.8 2905.65 10506.2 2891.66C10476.6 2802.91 10444.2 2606.69 10143.9 2523.47C10143.9 2523.47 10008.4 2593.91 9897.83 2819.51C9897.83 2819.51 9776.68 2858.36 9704.44 2893.78C9701.33 2895.25 9698.88 2897.56 9697.48 2900.35C9696.07 2903.13 9695.79 2906.24 9696.68 2909.18C9697.57 2912.12 9699.58 2914.72 9702.4 2916.58C9705.21 2918.44 9708.66 2919.44 9712.22 2919.44V2919.44Z" fill="#00B761"/>
<path d="M10034.4 5873.45L8573.04 6770.95C8479.4 6828.46 8409.24 6909.6 8372.43 7002.94C8335.63 7096.29 8334.03 7197.14 8367.87 7291.29L8913.51 8811.67L9315.61 8777.56L9009.2 7298.34C9009.2 7298.34 10526.2 6670.93 10826.6 6543.63C11127 6416.34 11258.5 6168.39 11119.7 5847.39L10034.4 5873.45Z" fill="#0D8394"/>
<path d="M10901.4 3818.95C10901.4 3818.95 10897.1 3626.45 10801.7 3619.1C10706.4 3611.76 10296.7 3672.74 10194.8 3776.38C10194.8 3776.38 10181.8 3785.64 10194.8 3818.95C10194.8 3818.95 9941.19 4030.27 9897.82 4194.69C9854.45 4359.12 9886.97 4574.16 9915.14 4748.14C9943.31 4922.13 10034.4 5192.31 10025.7 5427.38C10019.6 5576.7 10003.9 5725.62 9978.54 5873.46H11155.5C11155.5 5873.46 11027.6 5386.62 11071 5086.85C11114.4 4787.08 11198.9 4479.77 11155.5 4242.79C11112.1 4005.81 10901.4 3818.95 10901.4 3818.95Z" fill="#00B761"/>
<path d="M8077.51 5172.08C8077.51 5172.08 7811.52 5186.67 7754.25 5182.15C7696.97 5177.62 7542.12 5155.78 7410.36 5178.42C7278.6 5201.06 7199.53 5235.88 7176.31 5347.58C7154.63 5452.03 7163.82 5502.54 7211.67 5479.2C7259.51 5455.85 7254.8 5373.74 7254.8 5373.74C7254.8 5373.74 7309.13 5266.97 7481.42 5283.18C7553.08 5289.82 7613.06 5379.38 7606.82 5403.93C7586.66 5481.91 7523.61 5527.6 7493.91 5547.02C7464.22 5566.44 7425.44 5609.21 7483.54 5615.85C7541.64 5622.49 7669.98 5527.4 7733.5 5509.89C7775.93 5498.22 7794.43 5468.33 7844.75 5454.44C7895.08 5440.56 8104.02 5404.13 8104.02 5404.13L8077.51 5172.08Z" fill="#F9C29D"/>
<path d="M8988.13 8863.3C8960.79 8868.73 8919.54 8877.19 8870.28 8888.76C8724.26 8922.67 8650.61 8949.14 8584.38 8967.25C8315.68 9040.91 8156.34 8981.84 8124.76 9044.23C8112.98 9068.28 8118.16 9112.86 8219.04 9202.21H9354.17C9354.17 9202.21 9280.51 8963.53 9285.35 8867.12L8988.13 8863.3Z" fill="#151515"/>
<path d="M8964.12 8807.35L8988.16 8863.6L9284.43 8867.72L9272.88 8781.18L8964.12 8807.35Z" fill="#F9C29D"/>
<path d="M11045.8 3816.93H12343.3C12421.5 3816.93 12496.4 3843.44 12551.7 3890.62C12606.9 3937.8 12638 4001.78 12638 4068.5V5658.42C12638 5725.14 12606.9 5789.12 12551.7 5836.3C12496.4 5883.48 12421.5 5909.99 12343.3 5909.99H11344.1C11264.9 5909.99 11188.9 5883.11 11132.8 5835.27C11076.8 5787.43 11045.3 5722.55 11045.3 5654.89V3816.93H11045.8Z" fill="#151515"/>
<path d="M11091.3 5506.97L10991.8 5396.28C10890.4 5287.81 10764.9 5178.53 10643.7 5072.87C10236.7 4718.56 9816.01 4352.27 10246.5 3950.47C10399.7 3807.38 10941.8 3819.65 11048.7 3823.38L11042.9 3939.2C10803.1 3930.65 10428.2 3952.68 10346.8 4028.66C10026.3 4327.92 10281.8 4592.17 10740.5 4991.66C10864.4 5099.33 10992.3 5210.83 11098.9 5324.84L11199.2 5436.84L11091.3 5506.97Z" fill="#151515"/>
<path d="M8178.19 5083.53L9425.63 4884.89L10316.2 4048.48C10316.2 4048.48 10524.3 3863.42 10749.8 4015.17C10975.2 4166.92 10780.1 4448.97 10780.1 4448.97L9668.17 5295.96L8169.59 5460.08L8104.66 5400.91L8077.43 5172.08L8178.19 5083.53Z" fill="#008949"/>
<path d="M12120.8 4717.45L12100.2 4707.39L11901.8 4776.52L11900.6 4774.91L11921.6 4764.85L12040.5 4705.78V4670.76L11919.2 4729.22L11804.3 4787.69L11726.8 4749.65H11726.1L11722.2 4747.74L11891.3 4664.12L11923 4648.52V4612.5L11916 4616.02L11684.8 4726.71L11612.2 4692.9L11610.7 4693.6L11562.7 4716.75C11553.7 4721.14 11546.2 4727.5 11541 4735.17C11535.8 4742.84 11533 4751.55 11533 4760.42V5046.8C11533.2 5055.59 11536 5064.19 11541.4 5071.69C11546.7 5079.2 11554.4 5085.34 11563.4 5089.47L11687.2 5150.65C11690.3 5152.26 11693.9 5153.1 11697.6 5153.1C11701.2 5153.1 11704.8 5152.26 11707.9 5150.65C11711 5149 11713.5 5146.73 11715.3 5144.05C11717.2 5141.37 11718.2 5138.35 11718.3 5135.25V4988.34C11718.2 4985.46 11719.4 4982.66 11721.6 4980.49C11722.4 4979.87 11723.2 4979.36 11724.2 4978.98C11725.7 4978.61 11727.2 4978.55 11728.7 4978.79C11730.2 4979.04 11731.6 4979.59 11732.8 4980.39L11821.2 5023.96L11824.2 5025.47C11826.5 5026.5 11828.9 5027.34 11831.3 5027.99L11834.4 5028.69L11838 5029.19H11841.8C11844.3 5029.2 11846.8 5029 11849.2 5028.59L11852.5 5027.89H11853.2L11856.1 5026.98C11858.3 5026.17 11860.4 5025.19 11862.4 5024.06C11892.2 5009.37 11918.5 4996.29 11948.7 4981.6C11948.7 4981.6 11955.5 4977.67 11960.5 4979.38C11961.2 4979.62 11961.9 4979.96 11962.5 4980.39C11963 4980.79 11963.4 4981.22 11963.8 4981.7C11965.1 4983.32 11965.7 4985.27 11965.5 4987.23C11965.5 4995.79 11965.5 5004.24 11965.5 5012.79C11965.5 5036.14 11965.5 5099.53 11965.5 5134.85C11965.6 5138.03 11966.6 5141.14 11968.4 5143.89C11970.3 5146.65 11972.9 5148.95 11976.1 5150.58C11979.3 5152.22 11982.9 5153.13 11986.7 5153.23C11990.4 5153.33 11994.1 5152.61 11997.4 5151.15L12121.9 5089.77C12130.7 5085.7 12138 5079.62 12143 5072.21C12148 5064.8 12150.4 5056.35 12150.1 5047.81V4761.22C12150.2 4752.37 12147.5 4743.66 12142.3 4735.97C12137.2 4728.28 12129.7 4721.9 12120.8 4717.45V4717.45Z" fill="url(#paint0_linear_3206_11567)"/>
<path d="M11919 4834.28V4905.42C11920.4 4905.77 11921.8 4906.21 11923 4906.73C11930.6 4908.93 11938.7 4909.45 11946.6 4908.24C11971.6 4904.41 11987.3 4882.78 11993.8 4872.92C11993.8 4872.11 11995.3 4870.4 11996.6 4868.49V4796.94L11919 4834.28Z" fill="white"/>
<path d="M11610.1 4763.23V4830.55C11608.7 4830.91 11607.4 4831.34 11606.1 4831.86C11598.5 4834.01 11590.4 4834.53 11582.5 4833.37C11557.6 4829.55 11541.9 4807.91 11535.4 4798.05C11535.4 4797.25 11533.9 4795.54 11532.6 4793.62V4725.2L11610.1 4763.23Z" fill="#11AFC5"/>
<path d="M11687.2 4791.21V4868.39C11685.9 4868.74 11684.6 4869.17 11683.3 4869.7C11675.7 4871.84 11667.6 4872.36 11659.8 4871.21C11634.7 4867.38 11619.1 4845.75 11612.6 4835.89L11609.8 4831.46V4757.7L11687.2 4791.21Z" fill="white"/>
<path d="M11764.6 4839.41V4905.22L11760.6 4906.53C11753 4908.73 11744.9 4909.25 11737.1 4908.04C11712.1 4904.31 11696.4 4882.58 11689.9 4872.82C11689.9 4872.01 11688.4 4870.2 11687.1 4868.39V4801.27L11764.6 4839.41Z" fill="#11AFC5"/>
<path d="M11841.8 4873.72V4942.45C11840.5 4942.8 11839.2 4943.23 11837.9 4943.76C11830.3 4945.9 11822.2 4946.42 11814.3 4945.27C11789.2 4941.44 11773.7 4919.81 11767.2 4909.95L11764.4 4905.52V4837.09L11841.8 4873.72Z" fill="white"/>
<path d="M12073.6 4755.48V4830.75L12077.6 4832.16C12085.2 4834.26 12093.3 4834.75 12101.1 4833.57C12126.1 4829.85 12141.8 4808.21 12148.3 4798.35L12150.9 4794.02V4725.29L12073.6 4755.48Z" fill="white"/>
<path d="M11996.2 4801.37V4868.39L12000.1 4869.7C12007.7 4871.9 12015.8 4872.42 12023.7 4871.21C12048.8 4867.49 12064.3 4845.75 12070.8 4835.99C12070.8 4835.08 12072.5 4833.37 12073.7 4831.46V4763.84L11996.2 4801.37Z" fill="#11AFC5"/>
<path d="M11841.8 4877.55V4942.65L11845.7 4944.06C11853.3 4946.16 11861.4 4946.64 11869.2 4945.47C11894.4 4941.75 11909.9 4920.11 11916.4 4910.25L11919.2 4905.82V4839.51L11841.8 4877.55Z" fill="#11AFC5"/>
<path d="M12150.8 4725.3L12076.4 4688.67L11841.8 4803.49L11807.2 4786.48L12040.5 4670.96L11959.5 4631.01L11726.1 4746.33L11688.8 4728.12L11923.1 4613L11841.7 4572.85L11606.9 4688.57L11532.9 4725.2L11542.9 4730.13L11690.7 4802.98L11841.8 4877.55L11917.7 4840.11L11986.6 4806.1L12025.8 4786.88L12073.6 4763.33" fill="white"/>
</g>
<defs>
<linearGradient id="paint0_linear_3206_11567" x1="11533" y1="4883.59" x2="12150.6" y2="4883.59" gradientUnits="userSpaceOnUse">
<stop stop-color="#00CC66"/>
<stop offset="1" stop-color="#0099CC"/>
</linearGradient>
<clipPath id="clip0_3206_11567">
<rect width="17459" height="10007" fill="white" transform="translate(273)"/>
</clipPath>
</defs>
</svg>
