<svg width="18352" height="12897" viewBox="0 0 18352 12897" fill="none" xmlns="http://www.w3.org/2000/svg">
<path d="M5692.94 12896.5V12146.5H5842.09V12238.2H5848.83C5855.46 12223.5 5865.05 12208.6 5877.6 12193.4C5890.38 12178 5906.95 12165.2 5927.31 12155.1C5947.91 12144.7 5973.48 12139.4 6004.02 12139.4C6043.79 12139.4 6080.49 12149.9 6114.1 12170.7C6147.72 12191.3 6174.59 12222.4 6194.72 12264.1C6214.84 12305.5 6224.9 12357.5 6224.9 12420C6224.9 12480.8 6215.08 12532.2 6195.43 12574.1C6176.01 12615.8 6149.5 12647.4 6115.88 12668.9C6082.5 12690.2 6045.09 12700.9 6003.66 12700.9C5974.31 12700.9 5949.33 12696 5928.74 12686.3C5908.38 12676.6 5891.68 12664.4 5878.66 12649.7C5865.64 12634.8 5855.7 12619.8 5848.83 12604.6H5844.22V12896.5H5692.94ZM5841.02 12419.3C5841.02 12451.7 5845.52 12480 5854.52 12504.1C5863.51 12528.3 5876.53 12547.1 5893.58 12560.6C5910.62 12573.9 5931.34 12580.5 5955.72 12580.5C5980.34 12580.5 6001.18 12573.7 6018.22 12560.3C6035.27 12546.5 6048.17 12527.6 6056.93 12503.4C6065.93 12479.1 6070.43 12451 6070.43 12419.3C6070.43 12387.8 6066.05 12360.1 6057.29 12336.2C6048.53 12312.3 6035.62 12293.6 6018.58 12280.1C6001.53 12266.6 5980.58 12259.8 5955.72 12259.8C5931.1 12259.8 5910.27 12266.3 5893.22 12279.4C5876.42 12292.4 5863.51 12310.8 5854.52 12334.8C5845.52 12358.7 5841.02 12386.8 5841.02 12419.3ZM6675.54 12459.8V12146.5H6826.82V12692H6681.58V12592.9H6675.89C6663.58 12624.9 6643.11 12650.6 6614.46 12670C6586.05 12689.4 6551.37 12699.1 6510.41 12699.1C6473.95 12699.1 6441.87 12690.8 6414.18 12674.2C6386.48 12657.7 6364.81 12634.1 6349.19 12603.6C6333.8 12573 6325.99 12536.5 6325.75 12493.8V12146.5H6477.03V12466.9C6477.27 12499.1 6485.91 12524.5 6502.95 12543.2C6520 12561.9 6542.84 12571.3 6571.49 12571.3C6589.72 12571.3 6606.77 12567.1 6622.63 12558.8C6638.49 12550.3 6651.27 12537.8 6660.98 12521.2C6670.92 12504.6 6675.78 12484.1 6675.54 12459.8ZM6950.66 12692V11964.7H7101.94V12238.2H7106.56C7113.19 12223.5 7122.78 12208.6 7135.32 12193.4C7148.11 12178 7164.68 12165.2 7185.04 12155.1C7205.63 12144.7 7231.2 12139.4 7261.74 12139.4C7301.52 12139.4 7338.21 12149.9 7371.83 12170.7C7405.45 12191.3 7432.32 12222.4 7452.44 12264.1C7472.56 12305.5 7482.62 12357.5 7482.62 12420C7482.62 12480.8 7472.8 12532.2 7453.15 12574.1C7433.74 12615.8 7407.22 12647.4 7373.6 12668.9C7340.22 12690.2 7302.82 12700.9 7261.39 12700.9C7232.03 12700.9 7207.06 12696 7186.46 12686.3C7166.1 12676.6 7149.41 12664.4 7136.39 12649.7C7123.37 12634.8 7113.42 12619.8 7106.56 12604.6H7099.81V12692H6950.66ZM7098.75 12419.3C7098.75 12451.7 7103.24 12480 7112.24 12504.1C7121.24 12528.3 7134.26 12547.1 7151.3 12560.6C7168.35 12573.9 7189.06 12580.5 7213.45 12580.5C7238.07 12580.5 7258.9 12573.7 7275.95 12560.3C7292.99 12546.5 7305.9 12527.6 7314.65 12503.4C7323.65 12479.1 7328.15 12451 7328.15 12419.3C7328.15 12387.8 7323.77 12360.1 7315.01 12336.2C7306.25 12312.3 7293.35 12293.6 7276.3 12280.1C7259.26 12266.6 7238.31 12259.8 7213.45 12259.8C7188.83 12259.8 7167.99 12266.3 7150.95 12279.4C7134.14 12292.4 7121.24 12310.8 7112.24 12334.8C7103.24 12358.7 7098.75 12386.8 7098.75 12419.3ZM7734.84 11964.7V12692H7583.56V11964.7H7734.84ZM7856.03 12692V12146.5H8007.3V12692H7856.03ZM7932.02 12076.2C7909.53 12076.2 7890.23 12068.8 7874.14 12053.9C7858.27 12038.7 7850.34 12020.6 7850.34 11999.5C7850.34 11978.7 7858.27 11960.8 7874.14 11945.9C7890.23 11930.8 7909.53 11923.2 7932.02 11923.2C7954.51 11923.2 7973.69 11930.8 7989.55 11945.9C8005.65 11960.8 8013.7 11978.7 8013.7 11999.5C8013.7 12020.6 8005.65 12038.7 7989.55 12053.9C7973.69 12068.8 7954.51 12076.2 7932.02 12076.2ZM8374.94 12702.7C8319.06 12702.7 8271.01 12690.8 8230.76 12667.1C8190.75 12643.2 8159.97 12610.1 8138.43 12567.7C8117.12 12525.3 8106.47 12476.6 8106.47 12421.4C8106.47 12365.5 8117.24 12316.5 8138.78 12274.4C8160.57 12232 8191.46 12199 8231.47 12175.3C8271.48 12151.4 8319.06 12139.4 8374.23 12139.4C8421.81 12139.4 8463.48 12148.1 8499.23 12165.4C8534.97 12182.6 8563.26 12206.9 8584.1 12238.2C8604.93 12269.4 8616.41 12306.1 8618.54 12348.2H8475.79C8471.76 12321 8461.11 12299.1 8443.83 12282.6C8426.78 12265.7 8404.41 12257.3 8376.71 12257.3C8353.27 12257.3 8332.8 12263.7 8315.28 12276.5C8297.99 12289.1 8284.5 12307.4 8274.79 12331.6C8265.09 12355.7 8260.23 12384.9 8260.23 12419.3C8260.23 12454.1 8264.97 12483.7 8274.44 12508.1C8284.14 12532.4 8297.76 12551 8315.28 12563.8C8332.8 12576.6 8353.27 12583 8376.71 12583C8393.99 12583 8409.5 12579.4 8423.23 12572.3C8437.2 12565.2 8448.68 12554.9 8457.68 12541.4C8466.91 12527.7 8472.95 12511.2 8475.79 12492.1H8618.54C8616.18 12533.7 8604.81 12570.4 8584.45 12602.2C8564.33 12633.6 8536.51 12658.3 8501 12676C8465.49 12693.8 8423.47 12702.7 8374.94 12702.7ZM8946.85 12692V12146.5H9091.02V12242.8H9097.41C9108.78 12210.8 9127.72 12185.6 9154.23 12167.1C9180.75 12148.7 9212.47 12139.4 9249.4 12139.4C9286.81 12139.4 9318.65 12148.8 9344.93 12167.5C9371.21 12186 9388.73 12211.1 9397.49 12242.8H9403.17C9414.29 12211.5 9434.42 12186.6 9463.54 12167.9C9492.89 12148.9 9527.58 12139.4 9567.58 12139.4C9618.48 12139.4 9659.8 12155.7 9691.52 12188.1C9723.48 12220.3 9739.46 12266 9739.46 12325.2V12692H9588.54V12355C9588.54 12324.7 9580.49 12302 9564.39 12286.8C9548.29 12271.7 9528.17 12264.1 9504.02 12264.1C9476.56 12264.1 9455.13 12272.8 9439.74 12290.4C9424.36 12307.6 9416.66 12330.5 9416.66 12358.9V12692H9270V12351.8C9270 12325 9262.31 12303.7 9246.92 12287.9C9231.77 12272 9211.76 12264.1 9186.9 12264.1C9170.09 12264.1 9154.94 12268.3 9141.45 12276.9C9128.19 12285.2 9117.66 12296.9 9109.84 12312C9102.03 12326.9 9098.12 12344.5 9098.12 12364.6V12692H8946.85ZM10014.5 12702.3C9979.69 12702.3 9948.68 12696.3 9921.46 12684.2C9894.23 12671.9 9872.69 12653.8 9856.82 12629.9C9841.2 12605.7 9833.39 12575.6 9833.39 12539.7C9833.39 12509.4 9838.95 12483.9 9850.08 12463.3C9861.2 12442.7 9876.36 12426.1 9895.53 12413.6C9914.71 12401 9936.49 12391.6 9960.87 12385.2C9985.49 12378.8 10011.3 12374.3 10038.3 12371.7C10070 12368.4 10095.6 12365.3 10115 12362.5C10134.4 12359.4 10148.5 12354.9 10157.3 12349C10166 12343 10170.4 12334.3 10170.4 12322.7V12320.6C10170.4 12298.1 10163.3 12280.7 10149.1 12268.3C10135.1 12256 10115.2 12249.9 10089.4 12249.9C10062.2 12249.9 10040.5 12255.9 10024.4 12268C10008.3 12279.8 9997.69 12294.7 9992.48 12312.7L9852.56 12301.4C9859.67 12268.2 9873.63 12239.6 9894.47 12215.4C9915.3 12191.1 9942.17 12172.4 9975.08 12159.3C10008.2 12146.1 10046.6 12139.4 10090.1 12139.4C10120.4 12139.4 10149.4 12143 10177.1 12150.1C10205.1 12157.2 10229.8 12168.2 10251.4 12183.1C10273.1 12198 10290.3 12217.2 10302.8 12240.7C10315.4 12263.9 10321.7 12291.7 10321.7 12324.1V12692H10178.2V12616.4H10173.9C10165.2 12633.4 10153.5 12648.4 10138.8 12661.5C10124.1 12674.2 10106.5 12684.3 10085.9 12691.6C10065.3 12698.7 10041.5 12702.3 10014.5 12702.3ZM10057.8 12597.9C10080.1 12597.9 10099.7 12593.5 10116.8 12584.8C10133.8 12575.8 10147.2 12563.7 10156.9 12548.5C10166.6 12533.4 10171.5 12516.2 10171.5 12497V12439.2C10166.7 12442.2 10160.2 12445.1 10151.9 12447.7C10143.9 12450 10134.8 12452.3 10124.6 12454.4C10114.4 12456.3 10104.2 12458.1 10094 12459.8C10083.9 12461.2 10074.6 12462.5 10066.3 12463.7C10048.6 12466.3 10033.1 12470.4 10019.8 12476.1C10006.6 12481.8 9996.27 12489.5 9988.93 12499.2C9981.59 12508.6 9977.92 12520.5 9977.92 12534.7C9977.92 12555.3 9985.38 12571 10000.3 12581.9C10015.4 12592.6 10034.6 12597.9 10057.8 12597.9ZM10439 12692V12146.5H10585.7V12241.7H10591.4C10601.3 12207.9 10618 12182.3 10641.4 12165C10664.9 12147.5 10691.9 12138.7 10722.4 12138.7C10730 12138.7 10738.2 12139.2 10746.9 12140.2C10755.7 12141.1 10763.4 12142.4 10770 12144.1V12278.3C10762.9 12276.2 10753.1 12274.3 10740.5 12272.6C10728 12271 10716.5 12270.1 10706.1 12270.1C10683.8 12270.1 10663.9 12275 10646.4 12284.7C10629.1 12294.2 10615.4 12307.4 10605.2 12324.5C10595.3 12341.5 10590.3 12361.2 10590.3 12383.4V12692H10439ZM10985.3 12535L10985.6 12353.6H11007.7L11182.4 12146.5H11356L11121.3 12420.7H11085.4L10985.3 12535ZM10848.2 12692V11964.7H10999.5V12692H10848.2ZM11189.1 12692L11028.6 12454.4L11129.5 12347.5L11366.3 12692H11189.1ZM11656.4 12702.7C11600.3 12702.7 11552 12691.3 11511.5 12668.6C11471.2 12645.6 11440.2 12613.2 11418.4 12571.3C11396.7 12529.1 11385.8 12479.3 11385.8 12421.8C11385.8 12365.7 11396.7 12316.4 11418.4 12274C11440.2 12231.7 11470.9 12198.6 11510.4 12175C11550.2 12151.3 11596.8 12139.4 11650.3 12139.4C11686.3 12139.4 11719.8 12145.2 11750.8 12156.8C11782.1 12168.2 11809.3 12185.4 11832.5 12208.3C11855.9 12231.3 11874.2 12260.2 11887.2 12295C11900.2 12329.5 11906.7 12370 11906.7 12416.4V12458H11446.1V12364.2H11764.3C11764.3 12342.4 11759.6 12323.2 11750.1 12306.3C11740.6 12289.5 11727.5 12276.4 11710.7 12266.9C11694.1 12257.2 11674.8 12252.4 11652.8 12252.4C11629.8 12252.4 11609.5 12257.7 11591.7 12268.3C11574.2 12278.8 11560.5 12292.9 11550.5 12310.6C11540.6 12328.1 11535.5 12347.7 11535.3 12369.2V12458.3C11535.3 12485.3 11540.2 12508.6 11550.2 12528.3C11560.4 12547.9 11574.7 12563.1 11593.2 12573.7C11611.6 12584.4 11633.5 12589.7 11658.8 12589.7C11675.7 12589.7 11691 12587.4 11705 12582.6C11719 12577.9 11730.9 12570.8 11740.9 12561.3C11750.8 12551.8 11758.4 12540.2 11763.6 12526.5L11903.5 12535.8C11896.4 12569.4 11881.9 12598.7 11859.8 12623.8C11838.1 12648.7 11809.9 12668.1 11775.3 12682.1C11741 12695.8 11701.3 12702.7 11656.4 12702.7ZM12295.6 12146.5V12260.2H11967.1V12146.5H12295.6ZM12041.7 12015.9H12192.9V12524.4C12192.9 12538.4 12195.1 12549.2 12199.3 12557.1C12203.6 12564.6 12209.5 12570 12217.1 12573C12224.9 12576.1 12233.9 12577.7 12244.1 12577.7C12251.2 12577.7 12258.3 12577.1 12265.4 12575.9C12272.5 12574.5 12277.9 12573.4 12281.7 12572.7L12305.5 12685.3C12297.9 12687.6 12287.3 12690.3 12273.6 12693.4C12259.8 12696.7 12243.1 12698.7 12223.5 12699.5C12187 12700.9 12155.1 12696 12127.6 12684.9C12100.4 12673.8 12079.2 12656.5 12064 12633.1C12048.9 12609.6 12041.4 12580 12041.7 12544.3V12015.9ZM12841.1 12302.1L12702.6 12310.6C12700.2 12298.8 12695.2 12288.1 12687.3 12278.6C12679.5 12268.9 12669.2 12261.2 12656.5 12255.6C12643.9 12249.6 12628.9 12246.7 12611.4 12246.7C12587.9 12246.7 12568.1 12251.7 12552 12261.6C12535.9 12271.3 12527.9 12284.3 12527.9 12300.7C12527.9 12313.7 12533.1 12324.7 12543.5 12333.7C12553.9 12342.7 12571.8 12349.9 12597.1 12355.4L12695.9 12375.2C12748.9 12386.1 12788.4 12403.6 12814.5 12427.8C12840.5 12451.9 12853.5 12483.7 12853.5 12523C12853.5 12558.7 12843 12590.1 12821.9 12617.1C12801.1 12644.1 12772.5 12665.1 12736 12680.3C12699.8 12695.2 12658 12702.7 12610.6 12702.7C12538.4 12702.7 12480.9 12687.6 12438.1 12657.6C12395.4 12627.3 12370.5 12586.1 12363.1 12534L12511.9 12526.2C12516.4 12548.2 12527.3 12565 12544.6 12576.6C12561.9 12588 12584 12593.6 12611 12593.6C12637.5 12593.6 12658.8 12588.5 12674.9 12578.4C12691.3 12567.9 12699.5 12554.6 12699.8 12538.2C12699.5 12524.5 12693.7 12513.3 12682.4 12504.5C12671 12495.5 12653.5 12488.6 12629.8 12483.9L12535.4 12465.1C12482.1 12454.4 12442.4 12436 12416.4 12409.7C12390.6 12383.4 12377.7 12349.9 12377.7 12309.2C12377.7 12274.1 12387.2 12244 12406.1 12218.6C12425.3 12193.3 12452.1 12173.8 12486.7 12160C12521.5 12146.3 12562.2 12139.4 12608.9 12139.4C12677.8 12139.4 12732 12154 12771.5 12183.1C12811.3 12212.2 12834.5 12251.9 12841.1 12302.1Z" fill="#00B761"/>
<path d="M1795.96 11343L1587.86 10615.7H1755.83L1876.21 11121.1H1882.25L2015.06 10615.7H2158.88L2291.34 11122.1H2297.73L2418.12 10615.7H2586.08L2377.99 11343H2228.13L2089.64 10867.5H2083.95L1945.81 11343H1795.96ZM2855.53 11353.7C2799.42 11353.7 2751.12 11342.3 2710.64 11319.6C2670.39 11296.6 2639.38 11264.2 2617.6 11222.3C2595.82 11180.1 2584.93 11130.3 2584.93 11072.8C2584.93 11016.7 2595.82 10967.4 2617.6 10925C2639.38 10882.7 2670.04 10849.6 2709.58 10826C2749.35 10802.3 2795.99 10790.4 2849.49 10790.4C2885.47 10790.4 2918.97 10796.2 2949.99 10807.8C2981.24 10819.2 3008.46 10836.4 3031.66 10859.3C3055.1 10882.3 3073.33 10911.2 3086.35 10946C3099.37 10980.5 3105.88 11021 3105.88 11067.4V11109H2645.3V11015.2H2963.48C2963.48 10993.4 2958.75 10974.2 2949.28 10957.3C2939.81 10940.5 2926.67 10927.4 2909.86 10917.9C2893.29 10908.2 2873.99 10903.4 2851.98 10903.4C2829.01 10903.4 2808.65 10908.7 2790.9 10919.3C2773.38 10929.8 2759.65 10943.9 2749.7 10961.6C2739.76 10979.1 2734.67 10998.7 2734.43 11020.2V11109.3C2734.43 11136.3 2739.4 11159.6 2749.35 11179.3C2759.53 11198.9 2773.85 11214.1 2792.32 11224.7C2810.78 11235.4 2832.68 11240.7 2858.01 11240.7C2874.82 11240.7 2890.21 11238.4 2904.18 11233.6C2918.15 11228.9 2930.1 11221.8 2940.04 11212.3C2949.99 11202.8 2957.56 11191.2 2962.77 11177.5L3102.69 11186.8C3095.58 11220.4 3081.02 11249.7 3059.01 11274.8C3037.23 11299.7 3009.05 11319.1 2974.49 11333.1C2940.16 11346.8 2900.51 11353.7 2855.53 11353.7ZM3591.59 11353.3C3556.79 11353.3 3525.77 11347.3 3498.55 11335.2C3471.32 11322.9 3449.78 11304.8 3433.92 11280.9C3418.29 11256.7 3410.48 11226.6 3410.48 11190.7C3410.48 11160.4 3416.04 11134.9 3427.17 11114.3C3438.3 11093.7 3453.45 11077.1 3472.63 11064.6C3491.8 11052 3513.58 11042.6 3537.97 11036.2C3562.59 11029.8 3588.39 11025.3 3615.38 11022.7C3647.1 11019.4 3672.67 11016.3 3692.09 11013.5C3711.5 11010.4 3725.59 11005.9 3734.34 11000C3743.1 10994 3747.48 10985.3 3747.48 10973.7V10971.6C3747.48 10949.1 3740.38 10931.7 3726.18 10919.3C3712.21 10907 3692.32 10900.9 3666.52 10900.9C3639.29 10900.9 3617.63 10906.9 3601.53 10919C3585.43 10930.8 3574.78 10945.7 3569.57 10963.7L3429.66 10952.4C3436.76 10919.2 3450.73 10890.6 3471.56 10866.4C3492.39 10842.1 3519.26 10823.4 3552.17 10810.3C3585.32 10797.1 3623.67 10790.4 3667.23 10790.4C3697.53 10790.4 3726.53 10794 3754.23 10801.1C3782.17 10808.2 3806.91 10819.2 3828.45 10834.1C3850.23 10849 3867.39 10868.2 3879.94 10891.7C3892.49 10914.9 3898.76 10942.7 3898.76 10975.1V11343H3755.3V11267.4H3751.03C3742.28 11284.4 3730.56 11299.4 3715.88 11312.5C3701.2 11325.2 3683.56 11335.3 3662.97 11342.6C3642.37 11349.7 3618.58 11353.3 3591.59 11353.3ZM3634.91 11248.9C3657.17 11248.9 3676.82 11244.5 3693.86 11235.8C3710.91 11226.8 3724.28 11214.7 3733.99 11199.5C3743.7 11184.4 3748.55 11167.2 3748.55 11148V11090.2C3743.81 11093.2 3737.3 11096.1 3729.02 11098.7C3720.97 11101 3711.85 11103.3 3701.67 11105.4C3691.49 11107.3 3681.31 11109.1 3671.13 11110.8C3660.95 11112.2 3651.72 11113.5 3643.44 11114.7C3625.68 11117.3 3610.17 11121.4 3596.92 11127.1C3583.66 11132.8 3573.36 11140.5 3566.02 11150.2C3558.68 11159.6 3555.01 11171.5 3555.01 11185.7C3555.01 11206.3 3562.47 11222 3577.38 11232.9C3592.54 11243.6 3611.71 11248.9 3634.91 11248.9ZM4016.13 11343V10797.5H4162.79V10892.7H4168.47C4178.41 10858.9 4195.1 10833.3 4218.54 10816C4241.98 10798.5 4268.97 10789.7 4299.51 10789.7C4307.08 10789.7 4315.25 10790.2 4324.01 10791.2C4332.77 10792.1 4340.46 10793.4 4347.09 10795.1V10929.3C4339.99 10927.2 4330.17 10925.3 4317.62 10923.6C4305.07 10922 4293.59 10921.1 4283.17 10921.1C4260.92 10921.1 4241.03 10926 4223.51 10935.7C4206.23 10945.2 4192.5 10958.4 4182.32 10975.5C4172.38 10992.5 4167.41 11012.2 4167.41 11034.4V11343H4016.13ZM4648.5 11353.7C4592.39 11353.7 4544.09 11342.3 4503.61 11319.6C4463.36 11296.6 4432.35 11264.2 4410.57 11222.3C4388.79 11180.1 4377.9 11130.3 4377.9 11072.8C4377.9 11016.7 4388.79 10967.4 4410.57 10925C4432.35 10882.7 4463.01 10849.6 4502.54 10826C4542.32 10802.3 4588.96 10790.4 4642.46 10790.4C4678.44 10790.4 4711.94 10796.2 4742.96 10807.8C4774.21 10819.2 4801.43 10836.4 4824.63 10859.3C4848.07 10882.3 4866.3 10911.2 4879.32 10946C4892.34 10980.5 4898.85 11021 4898.85 11067.4V11109H4438.27V11015.2H4756.45C4756.45 10993.4 4751.72 10974.2 4742.25 10957.3C4732.78 10940.5 4719.64 10927.4 4702.83 10917.9C4686.26 10908.2 4666.96 10903.4 4644.94 10903.4C4621.98 10903.4 4601.62 10908.7 4583.87 10919.3C4566.35 10929.8 4552.62 10943.9 4542.67 10961.6C4532.73 10979.1 4527.64 10998.7 4527.4 11020.2V11109.3C4527.4 11136.3 4532.37 11159.6 4542.32 11179.3C4552.5 11198.9 4566.82 11214.1 4585.29 11224.7C4603.75 11235.4 4625.65 11240.7 4650.98 11240.7C4667.79 11240.7 4683.18 11238.4 4697.15 11233.6C4711.11 11228.9 4723.07 11221.8 4733.01 11212.3C4742.96 11202.8 4750.53 11191.2 4755.74 11177.5L4895.65 11186.8C4888.55 11220.4 4873.99 11249.7 4851.98 11274.8C4830.2 11299.7 4802.02 11319.1 4767.46 11333.1C4733.13 11346.8 4693.48 11353.7 4648.5 11353.7ZM5475.47 11353.7C5420.31 11353.7 5372.6 11341.9 5332.36 11318.5C5292.35 11294.8 5261.45 11261.9 5239.67 11219.8C5217.89 11177.4 5207 11128.3 5207 11072.4C5207 11016.1 5217.89 10966.8 5239.67 10924.7C5261.45 10882.3 5292.35 10849.4 5332.36 10826C5372.6 10802.3 5420.31 10790.4 5475.47 10790.4C5530.63 10790.4 5578.21 10802.3 5618.22 10826C5658.47 10849.4 5689.48 10882.3 5711.26 10924.7C5733.04 10966.8 5743.93 11016.1 5743.93 11072.4C5743.93 11128.3 5733.04 11177.4 5711.26 11219.8C5689.48 11261.9 5658.47 11294.8 5618.22 11318.5C5578.21 11341.9 5530.63 11353.7 5475.47 11353.7ZM5476.18 11236.5C5501.27 11236.5 5522.22 11229.4 5539.03 11215.2C5555.84 11200.7 5568.51 11181.1 5577.03 11156.2C5585.79 11131.4 5590.17 11103.1 5590.17 11071.3C5590.17 11039.6 5585.79 11011.3 5577.03 10986.5C5568.51 10961.6 5555.84 10942 5539.03 10927.5C5522.22 10913.1 5501.27 10905.9 5476.18 10905.9C5450.85 10905.9 5429.54 10913.1 5412.26 10927.5C5395.21 10942 5382.31 10961.6 5373.55 10986.5C5365.03 11011.3 5360.76 11039.6 5360.76 11071.3C5360.76 11103.1 5365.03 11131.4 5373.55 11156.2C5382.31 11181.1 5395.21 11200.7 5412.26 11215.2C5429.54 11229.4 5450.85 11236.5 5476.18 11236.5ZM5993.58 11027.7V11343H5842.3V10797.5H5986.48V10893.8H5992.87C6004.94 10862.1 6025.18 10837 6053.59 10818.5C6082 10799.8 6116.45 10790.4 6156.93 10790.4C6194.81 10790.4 6227.83 10798.7 6256.01 10815.3C6284.18 10831.9 6306.08 10855.5 6321.7 10886.3C6337.33 10916.9 6345.14 10953.3 6345.14 10995.7V11343H6193.86V11022.7C6194.1 10989.3 6185.58 10963.3 6168.29 10944.6C6151.01 10925.6 6127.22 10916.2 6096.92 10916.2C6076.56 10916.2 6058.56 10920.5 6042.94 10929.3C6027.55 10938.1 6015.48 10950.8 6006.72 10967.6C5998.19 10984.2 5993.81 11004.2 5993.58 11027.7ZM6712.95 11353.7C6656.84 11353.7 6608.55 11342.3 6568.06 11319.6C6527.82 11296.6 6496.8 11264.2 6475.02 11222.3C6453.24 11180.1 6442.35 11130.3 6442.35 11072.8C6442.35 11016.7 6453.24 10967.4 6475.02 10925C6496.8 10882.7 6527.46 10849.6 6567 10826C6606.77 10802.3 6653.41 10790.4 6706.91 10790.4C6742.9 10790.4 6776.4 10796.2 6807.41 10807.8C6838.66 10819.2 6865.88 10836.4 6889.09 10859.3C6912.52 10882.3 6930.75 10911.2 6943.77 10946C6956.79 10980.5 6963.3 11021 6963.3 11067.4V11109H6502.72V11015.2H6820.9C6820.9 10993.4 6816.17 10974.2 6806.7 10957.3C6797.23 10940.5 6784.09 10927.4 6767.28 10917.9C6750.71 10908.2 6731.41 10903.4 6709.4 10903.4C6686.43 10903.4 6666.07 10908.7 6648.32 10919.3C6630.8 10929.8 6617.07 10943.9 6607.12 10961.6C6597.18 10979.1 6592.09 10998.7 6591.86 11020.2V11109.3C6591.86 11136.3 6596.83 11159.6 6606.77 11179.3C6616.95 11198.9 6631.27 11214.1 6649.74 11224.7C6668.2 11235.4 6690.1 11240.7 6715.43 11240.7C6732.24 11240.7 6747.63 11238.4 6761.6 11233.6C6775.57 11228.9 6787.52 11221.8 6797.47 11212.3C6807.41 11202.8 6814.98 11191.2 6820.19 11177.5L6960.11 11186.8C6953.01 11220.4 6938.45 11249.7 6916.43 11274.8C6894.65 11299.7 6866.48 11319.1 6831.91 11333.1C6797.58 11346.8 6757.93 11353.7 6712.95 11353.7ZM7583.6 10797.5V10911.2H7255.12V10797.5H7583.6ZM7329.69 10666.9H7480.97V11175.4C7480.97 11189.4 7483.1 11200.2 7487.36 11208.1C7491.62 11215.6 7497.54 11221 7505.12 11224C7512.93 11227.1 7521.93 11228.7 7532.11 11228.7C7539.21 11228.7 7546.31 11228.1 7553.41 11226.9C7560.52 11225.5 7565.96 11224.4 7569.75 11223.7L7593.54 11336.3C7585.97 11338.6 7575.31 11341.3 7561.58 11344.4C7547.85 11347.7 7531.16 11349.7 7511.51 11350.5C7475.05 11351.9 7443.09 11347 7415.63 11335.9C7388.4 11324.8 7367.22 11307.5 7352.06 11284.1C7336.91 11260.6 7329.46 11231 7329.69 11195.3V10666.9ZM7837.68 11353.3C7802.88 11353.3 7771.87 11347.3 7744.64 11335.2C7717.42 11322.9 7695.87 11304.8 7680.01 11280.9C7664.39 11256.7 7656.57 11226.6 7656.57 11190.7C7656.57 11160.4 7662.14 11134.9 7673.26 11114.3C7684.39 11093.7 7699.54 11077.1 7718.72 11064.6C7737.9 11052 7759.68 11042.6 7784.06 11036.2C7808.68 11029.8 7834.49 11025.3 7861.48 11022.7C7893.2 11019.4 7918.77 11016.3 7938.18 11013.5C7957.59 11010.4 7971.68 11005.9 7980.44 11000C7989.2 10994 7993.58 10985.3 7993.58 10973.7V10971.6C7993.58 10949.1 7986.48 10931.7 7972.27 10919.3C7958.3 10907 7938.42 10900.9 7912.61 10900.9C7885.39 10900.9 7863.72 10906.9 7847.63 10919C7831.53 10930.8 7820.87 10945.7 7815.67 10963.7L7675.75 10952.4C7682.85 10919.2 7696.82 10890.6 7717.65 10866.4C7738.49 10842.1 7765.36 10823.4 7798.26 10810.3C7831.41 10797.1 7869.76 10790.4 7913.32 10790.4C7943.62 10790.4 7972.63 10794 8000.32 10801.1C8028.26 10808.2 8053 10819.2 8074.54 10834.1C8096.32 10849 8113.49 10868.2 8126.03 10891.7C8138.58 10914.9 8144.86 10942.7 8144.86 10975.1V11343H8001.39V11267.4H7997.13C7988.37 11284.4 7976.65 11299.4 7961.97 11312.5C7947.29 11325.2 7929.66 11335.3 7909.06 11342.6C7888.46 11349.7 7864.67 11353.3 7837.68 11353.3ZM7881.01 11248.9C7903.26 11248.9 7922.91 11244.5 7939.96 11235.8C7957 11226.8 7970.38 11214.7 7980.08 11199.5C7989.79 11184.4 7994.64 11167.2 7994.64 11148V11090.2C7989.91 11093.2 7983.4 11096.1 7975.11 11098.7C7967.06 11101 7957.95 11103.3 7947.77 11105.4C7937.59 11107.3 7927.41 11109.1 7917.23 11110.8C7907.05 11112.2 7897.82 11113.5 7889.53 11114.7C7871.77 11117.3 7856.27 11121.4 7843.01 11127.1C7829.75 11132.8 7819.45 11140.5 7812.11 11150.2C7804.78 11159.6 7801.11 11171.5 7801.11 11185.7C7801.11 11206.3 7808.56 11222 7823.48 11232.9C7838.63 11243.6 7857.81 11248.9 7881.01 11248.9ZM8262.22 11547.5V10797.5H8411.37V10889.2H8418.12C8424.74 10874.5 8434.33 10859.6 8446.88 10844.4C8459.66 10829 8476.24 10816.2 8496.6 10806.1C8517.19 10795.7 8542.76 10790.4 8573.3 10790.4C8613.07 10790.4 8649.77 10800.9 8683.39 10821.7C8717 10842.3 8743.87 10873.4 8764 10915.1C8784.12 10956.5 8794.18 11008.5 8794.18 11071C8794.18 11131.8 8784.36 11183.2 8764.71 11225.1C8745.29 11266.8 8718.78 11298.4 8685.16 11319.9C8651.78 11341.2 8614.38 11351.9 8572.95 11351.9C8543.59 11351.9 8518.61 11347 8498.02 11337.3C8477.66 11327.6 8460.97 11315.4 8447.95 11300.7C8434.92 11285.8 8424.98 11270.8 8418.12 11255.6H8413.5V11547.5H8262.22ZM8410.3 11070.3C8410.3 11102.7 8414.8 11131 8423.8 11155.1C8432.79 11179.3 8445.81 11198.1 8462.86 11211.6C8479.91 11224.9 8500.62 11231.5 8525 11231.5C8549.63 11231.5 8570.46 11224.7 8587.5 11211.3C8604.55 11197.5 8617.45 11178.6 8626.21 11154.4C8635.21 11130.1 8639.71 11102 8639.71 11070.3C8639.71 11038.8 8635.33 11011.1 8626.57 10987.2C8617.81 10963.3 8604.91 10944.6 8587.86 10931.1C8570.81 10917.6 8549.86 10910.8 8525 10910.8C8500.38 10910.8 8479.55 10917.3 8462.5 10930.4C8445.7 10943.4 8432.79 10961.8 8423.8 10985.8C8414.8 11009.7 8410.3 11037.8 8410.3 11070.3ZM9282.02 11353.3C9247.22 11353.3 9216.2 11347.3 9188.98 11335.2C9161.75 11322.9 9140.21 11304.8 9124.35 11280.9C9108.72 11256.7 9100.91 11226.6 9100.91 11190.7C9100.91 11160.4 9106.47 11134.9 9117.6 11114.3C9128.73 11093.7 9143.88 11077.1 9163.06 11064.6C9182.23 11052 9204.01 11042.6 9228.4 11036.2C9253.02 11029.8 9278.82 11025.3 9305.81 11022.7C9337.53 11019.4 9363.1 11016.3 9382.52 11013.5C9401.93 11010.4 9416.01 11005.9 9424.77 11000C9433.53 10994 9437.91 10985.3 9437.91 10973.7V10971.6C9437.91 10949.1 9430.81 10931.7 9416.61 10919.3C9402.64 10907 9382.75 10900.9 9356.95 10900.9C9329.72 10900.9 9308.06 10906.9 9291.96 10919C9275.86 10930.8 9265.21 10945.7 9260 10963.7L9120.09 10952.4C9127.19 10919.2 9141.16 10890.6 9161.99 10866.4C9182.82 10842.1 9209.69 10823.4 9242.6 10810.3C9275.74 10797.1 9314.1 10790.4 9357.66 10790.4C9387.96 10790.4 9416.96 10794 9444.66 10801.1C9472.6 10808.2 9497.34 10819.2 9518.88 10834.1C9540.66 10849 9557.82 10868.2 9570.37 10891.7C9582.92 10914.9 9589.19 10942.7 9589.19 10975.1V11343H9445.73V11267.4H9441.46C9432.71 11284.4 9420.99 11299.4 9406.31 11312.5C9391.63 11325.2 9373.99 11335.3 9353.4 11342.6C9332.8 11349.7 9309.01 11353.3 9282.02 11353.3ZM9325.34 11248.9C9347.6 11248.9 9367.25 11244.5 9384.29 11235.8C9401.34 11226.8 9414.71 11214.7 9424.42 11199.5C9434.13 11184.4 9438.98 11167.2 9438.98 11148V11090.2C9434.24 11093.2 9427.73 11096.1 9419.45 11098.7C9411.4 11101 9402.28 11103.3 9392.1 11105.4C9381.92 11107.3 9371.74 11109.1 9361.56 11110.8C9351.38 11112.2 9342.15 11113.5 9333.87 11114.7C9316.11 11117.3 9300.6 11121.4 9287.35 11127.1C9274.09 11132.8 9263.79 11140.5 9256.45 11150.2C9249.11 11159.6 9245.44 11171.5 9245.44 11185.7C9245.44 11206.3 9252.9 11222 9267.81 11232.9C9282.97 11243.6 9302.14 11248.9 9325.34 11248.9ZM9814.16 11343L9665.72 10797.5H9818.77L9903.29 11164H9908.26L9996.33 10797.5H10146.5L10236 11161.9H10240.6L10323.7 10797.5H10476.4L10328.4 11343H10168.2L10074.5 11000H10067.7L9973.96 11343H9814.16ZM10712.7 11353.3C10677.9 11353.3 10646.9 11347.3 10619.6 11335.2C10592.4 11322.9 10570.9 11304.8 10555 11280.9C10539.4 11256.7 10531.6 11226.6 10531.6 11190.7C10531.6 11160.4 10537.1 11134.9 10548.3 11114.3C10559.4 11093.7 10574.5 11077.1 10593.7 11064.6C10612.9 11052 10634.7 11042.6 10659.1 11036.2C10683.7 11029.8 10709.5 11025.3 10736.5 11022.7C10768.2 11019.4 10793.8 11016.3 10813.2 11013.5C10832.6 11010.4 10846.7 11005.9 10855.4 11000C10864.2 10994 10868.6 10985.3 10868.6 10973.7V10971.6C10868.6 10949.1 10861.5 10931.7 10847.3 10919.3C10833.3 10907 10813.4 10900.9 10787.6 10900.9C10760.4 10900.9 10738.7 10906.9 10722.6 10919C10706.5 10930.8 10695.9 10945.7 10690.7 10963.7L10550.8 10952.4C10557.9 10919.2 10571.8 10890.6 10592.7 10866.4C10613.5 10842.1 10640.4 10823.4 10673.3 10810.3C10706.4 10797.1 10744.8 10790.4 10788.3 10790.4C10818.6 10790.4 10847.6 10794 10875.3 10801.1C10903.3 10808.2 10928 10819.2 10949.5 10834.1C10971.3 10849 10988.5 10868.2 11001 10891.7C11013.6 10914.9 11019.9 10942.7 11019.9 10975.1V11343H10876.4V11267.4H10872.1C10863.4 11284.4 10851.7 11299.4 10837 11312.5C10822.3 11325.2 10804.7 11335.3 10784.1 11342.6C10763.5 11349.7 10739.7 11353.3 10712.7 11353.3ZM10756 11248.9C10778.3 11248.9 10797.9 11244.5 10815 11235.8C10832 11226.8 10845.4 11214.7 10855.1 11199.5C10864.8 11184.4 10869.6 11167.2 10869.6 11148V11090.2C10864.9 11093.2 10858.4 11096.1 10850.1 11098.7C10842.1 11101 10832.9 11103.3 10822.8 11105.4C10812.6 11107.3 10802.4 11109.1 10792.2 11110.8C10782 11112.2 10772.8 11113.5 10764.5 11114.7C10746.8 11117.3 10731.3 11121.4 10718 11127.1C10704.8 11132.8 10694.5 11140.5 10687.1 11150.2C10679.8 11159.6 10676.1 11171.5 10676.1 11185.7C10676.1 11206.3 10683.6 11222 10698.5 11232.9C10713.6 11243.6 10732.8 11248.9 10756 11248.9ZM11211.1 11547.5C11191.9 11547.5 11173.9 11546 11157.1 11542.9C11140.5 11540.1 11126.8 11536.4 11115.9 11531.9L11150 11419C11167.8 11424.4 11183.7 11427.4 11197.9 11427.9C11212.4 11428.3 11224.8 11425 11235.2 11417.9C11245.9 11410.8 11254.5 11398.8 11261.2 11381.7L11270 11358.6L11074.4 10797.5H11233.5L11346.4 11198.1H11352.1L11466.1 10797.5H11626.2L11414.2 11401.9C11404 11431.3 11390.2 11456.9 11372.7 11478.7C11355.4 11500.7 11333.5 11517.6 11307 11529.4C11280.5 11541.5 11248.5 11547.5 11211.1 11547.5ZM12228.4 10797.5V10911.2H11891.7V10797.5H12228.4ZM11968.8 11343V10758.1C11968.8 10718.6 11976.5 10685.8 11991.9 10659.8C12007.5 10633.7 12028.8 10614.2 12055.8 10601.2C12082.8 10588.1 12113.5 10581.6 12147.8 10581.6C12171 10581.6 12192.2 10583.4 12211.4 10587C12230.8 10590.5 12245.2 10593.7 12254.7 10596.6L12227.7 10710.2C12221.8 10708.3 12214.4 10706.5 12205.7 10704.9C12197.1 10703.2 12188.4 10702.4 12179.4 10702.4C12157.1 10702.4 12141.6 10707.6 12132.9 10718C12124.1 10728.2 12119.7 10742.5 12119.7 10761V11343H11968.8ZM12320.8 11343V10797.5H12467.5V10892.7H12473.2C12483.1 10858.9 12499.8 10833.3 12523.2 10816C12546.7 10798.5 12573.7 10789.7 12604.2 10789.7C12611.8 10789.7 12619.9 10790.2 12628.7 10791.2C12637.5 10792.1 12645.2 10793.4 12651.8 10795.1V10929.3C12644.7 10927.2 12634.9 10925.3 12622.3 10923.6C12609.8 10922 12598.3 10921.1 12587.9 10921.1C12565.6 10921.1 12545.7 10926 12528.2 10935.7C12510.9 10945.2 12497.2 10958.4 12487 10975.5C12477.1 10992.5 12472.1 11012.2 12472.1 11034.4V11343H12320.8ZM12951.1 11353.7C12895.9 11353.7 12848.2 11341.9 12807.9 11318.5C12767.9 11294.8 12737 11261.9 12715.3 11219.8C12693.5 11177.4 12682.6 11128.3 12682.6 11072.4C12682.6 11016.1 12693.5 10966.8 12715.3 10924.7C12737 10882.3 12767.9 10849.4 12807.9 10826C12848.2 10802.3 12895.9 10790.4 12951.1 10790.4C13006.2 10790.4 13053.8 10802.3 13093.8 10826C13134.1 10849.4 13165.1 10882.3 13186.8 10924.7C13208.6 10966.8 13219.5 11016.1 13219.5 11072.4C13219.5 11128.3 13208.6 11177.4 13186.8 11219.8C13165.1 11261.9 13134.1 11294.8 13093.8 11318.5C13053.8 11341.9 13006.2 11353.7 12951.1 11353.7ZM12951.8 11236.5C12976.9 11236.5 12997.8 11229.4 13014.6 11215.2C13031.4 11200.7 13044.1 11181.1 13052.6 11156.2C13061.4 11131.4 13065.8 11103.1 13065.8 11071.3C13065.8 11039.6 13061.4 11011.3 13052.6 10986.5C13044.1 10961.6 13031.4 10942 13014.6 10927.5C12997.8 10913.1 12976.9 10905.9 12951.8 10905.9C12926.4 10905.9 12905.1 10913.1 12887.8 10927.5C12870.8 10942 12857.9 10961.6 12849.1 10986.5C12840.6 11011.3 12836.4 11039.6 12836.4 11071.3C12836.4 11103.1 12840.6 11131.4 12849.1 11156.2C12857.9 11181.1 12870.8 11200.7 12887.8 11215.2C12905.1 11229.4 12926.4 11236.5 12951.8 11236.5ZM13317.9 11343V10797.5H13462.1V10893.8H13468.5C13479.8 10861.8 13498.8 10836.6 13525.3 10818.1C13551.8 10799.7 13583.5 10790.4 13620.4 10790.4C13657.8 10790.4 13689.7 10799.8 13716 10818.5C13742.2 10837 13759.8 10862.1 13768.5 10893.8H13774.2C13785.3 10862.5 13805.5 10837.6 13834.6 10818.9C13863.9 10799.9 13898.6 10790.4 13938.6 10790.4C13989.5 10790.4 14030.8 10806.7 14062.6 10839.1C14094.5 10871.3 14110.5 10917 14110.5 10976.2V11343H13959.6V11006C13959.6 10975.7 13951.5 10953 13935.4 10937.8C13919.3 10922.7 13899.2 10915.1 13875.1 10915.1C13847.6 10915.1 13826.2 10923.8 13810.8 10941.4C13795.4 10958.6 13787.7 10981.5 13787.7 11009.9V11343H13641V11002.8C13641 10976 13633.3 10954.7 13618 10938.9C13602.8 10923 13582.8 10915.1 13557.9 10915.1C13541.1 10915.1 13526 10919.3 13512.5 10927.9C13499.2 10936.2 13488.7 10947.9 13480.9 10963C13473.1 10977.9 13469.2 10995.5 13469.2 11015.6V11343H13317.9ZM14554.8 11547.5C14535.7 11547.5 14517.7 11546 14500.9 11542.9C14484.3 11540.1 14470.6 11536.4 14459.7 11531.9L14493.8 11419C14511.5 11424.4 14527.5 11427.4 14541.7 11427.9C14556.1 11428.3 14568.6 11425 14579 11417.9C14589.6 11410.8 14598.3 11398.8 14604.9 11381.7L14613.8 11358.6L14418.1 10797.5H14577.2L14690.1 11198.1H14695.8L14809.8 10797.5H14970L14758 11401.9C14747.8 11431.3 14733.9 11456.9 14716.4 11478.7C14699.1 11500.7 14677.2 11517.6 14650.7 11529.4C14624.2 11541.5 14592.2 11547.5 14554.8 11547.5ZM15276.2 11353.7C15221.1 11353.7 15173.4 11341.9 15133.1 11318.5C15093.1 11294.8 15062.2 11261.9 15040.5 11219.8C15018.7 11177.4 15007.8 11128.3 15007.8 11072.4C15007.8 11016.1 15018.7 10966.8 15040.5 10924.7C15062.2 10882.3 15093.1 10849.4 15133.1 10826C15173.4 10802.3 15221.1 10790.4 15276.2 10790.4C15331.4 10790.4 15379 10802.3 15419 10826C15459.2 10849.4 15490.3 10882.3 15512 10924.7C15533.8 10966.8 15544.7 11016.1 15544.7 11072.4C15544.7 11128.3 15533.8 11177.4 15512 11219.8C15490.3 11261.9 15459.2 11294.8 15419 11318.5C15379 11341.9 15331.4 11353.7 15276.2 11353.7ZM15277 11236.5C15302.1 11236.5 15323 11229.4 15339.8 11215.2C15356.6 11200.7 15369.3 11181.1 15377.8 11156.2C15386.6 11131.4 15390.9 11103.1 15390.9 11071.3C15390.9 11039.6 15386.6 11011.3 15377.8 10986.5C15369.3 10961.6 15356.6 10942 15339.8 10927.5C15323 10913.1 15302.1 10905.9 15277 10905.9C15251.6 10905.9 15230.3 10913.1 15213 10927.5C15196 10942 15183.1 10961.6 15174.3 10986.5C15165.8 11011.3 15161.5 11039.6 15161.5 11071.3C15161.5 11103.1 15165.8 11131.4 15174.3 11156.2C15183.1 11181.1 15196 11200.7 15213 11215.2C15230.3 11229.4 15251.6 11236.5 15277 11236.5ZM15992.9 11110.8V10797.5H16144.1V11343H15998.9V11243.9H15993.2C15980.9 11275.9 15960.4 11301.6 15931.8 11321C15903.4 11340.4 15868.7 11350.1 15827.7 11350.1C15791.3 11350.1 15759.2 11341.8 15731.5 11325.2C15703.8 11308.7 15682.1 11285.1 15666.5 11254.6C15651.1 11224 15643.3 11187.5 15643.1 11144.8V10797.5H15794.4V11117.9C15794.6 11150.1 15803.2 11175.5 15820.3 11194.2C15837.3 11212.9 15860.2 11222.3 15888.8 11222.3C15907 11222.3 15924.1 11218.1 15940 11209.8C15955.8 11201.3 15968.6 11188.8 15978.3 11172.2C15988.3 11155.6 15993.1 11135.1 15992.9 11110.8ZM16265.2 11343V10797.5H16411.8V10892.7H16417.5C16427.4 10858.9 16444.1 10833.3 16467.6 10816C16491 10798.5 16518 10789.7 16548.5 10789.7C16556.1 10789.7 16564.3 10790.2 16573 10791.2C16581.8 10792.1 16589.5 10793.4 16596.1 10795.1V10929.3C16589 10927.2 16579.2 10925.3 16566.6 10923.6C16554.1 10922 16542.6 10921.1 16532.2 10921.1C16509.9 10921.1 16490.1 10926 16472.5 10935.7C16455.3 10945.2 16441.5 10958.4 16431.3 10975.5C16421.4 10992.5 16416.4 11012.2 16416.4 11034.4V11343H16265.2Z" fill="#00B761"/>
<g clip-path="url(#clip0_3206_11568)">
<path d="M1161.3 9957.46C783.026 9536.37 539.202 9016.21 317.453 7975.88C-25.7296 6365.84 322.542 4255.57 1772.37 4010.99C2714.2 3852.23 2788.54 4680.33 3806.05 4508.68C4987.54 4309.44 4687.01 2394.19 6235.96 1139.64C8257.93 -498.096 12472.4 -233.177 13300.8 1063.04C13907.3 2011.1 12430.6 3087.14 13120.8 4010.99C13899.9 5054.49 16199.6 4245.15 17215.8 5197.87C17825.1 5769.38 18028.5 7027.49 16360.7 10007L1161.3 9957.46Z" fill="#F5F5F9"/>
<path d="M8092.76 4078.87H4477.4V9916.41H8092.76V4078.87Z" fill="#E0E0E0"/>
<path d="M8092.73 4078.87H6397.77V9916.41H8092.73V4078.87Z" fill="#EBEBEB"/>
<path d="M5560.49 4627.95H5235.7V5299.97H5560.49V4627.95Z" fill="#F5F5F5"/>
<path d="M5560.49 7257.7H5235.7V7929.72H5560.49V7257.7Z" fill="#F5F5F5"/>
<path d="M6397.79 5563.9C6397.79 5569.66 5967.93 5573.82 5437.54 5573.82C4907.15 5573.82 4477.4 5569.36 4477.4 5563.9C4477.4 5558.44 4907.27 5553.19 5437.54 5553.19C5967.81 5553.19 6397.79 5558.05 6397.79 5563.9Z" fill="#F5F5F5"/>
<path d="M5560.49 5952.95H5235.7V6624.97H5560.49V5952.95Z" fill="#F5F5F5"/>
<path d="M6397.79 6888.79C6397.79 6894.15 5967.93 6898.72 5437.54 6898.72C4907.15 6898.72 4477.4 6893.75 4477.4 6888.79C4477.4 6883.83 4907.27 6878.08 5437.54 6878.08C5967.81 6878.08 6397.79 6882.94 6397.79 6888.79Z" fill="#F5F5F5"/>
<path d="M7082.56 4627.95H6757.77V5299.97H7082.56V4627.95Z" fill="#E0E0E0"/>
<path d="M7787.87 4627.95H7463.08V5299.97H7787.87V4627.95Z" fill="#E0E0E0"/>
<path d="M7082.56 5903.24H6757.77V6575.26H7082.56V5903.24Z" fill="#E0E0E0"/>
<path d="M7787.87 5903.24H7463.08V6575.26H7787.87V5903.24Z" fill="#E0E0E0"/>
<path d="M7082.56 7178.12H6757.77V7850.14H7082.56V7178.12Z" fill="#E0E0E0"/>
<path d="M7787.87 7178.12H7463.08V7850.14H7787.87V7178.12Z" fill="#E0E0E0"/>
<path d="M8364.41 3937.57H4205.61V4083.82H8364.41V3937.57Z" fill="#E0E0E0"/>
<path d="M8117.87 4097.81C8117.87 4103.57 7310.15 4107.74 6313.63 4107.74C5317.11 4107.74 4508.81 4103.27 4508.81 4097.81C4508.81 4092.36 5316.64 4087.89 6313.63 4087.89C7310.62 4087.89 8117.87 4091.86 8117.87 4097.81Z" fill="#EBEBEB"/>
<path d="M5338.25 6268.17H2101.79V9899.95H5338.25V6268.17Z" fill="#EBEBEB"/>
<path d="M5338.26 6268.17H3820.91V9899.95H5338.26V6268.17Z" fill="#E0E0E0"/>
<path d="M3071.46 6760.01H2780.25V7361.38H3071.46V6760.01Z" fill="#F5F5F5"/>
<path d="M3071.46 9114.21H2780.25V9715.59H3071.46V9114.21Z" fill="#F5F5F5"/>
<path d="M3820.9 7597.53C3820.9 7604.28 3436.05 7609.63 2961.06 7609.63C2486.06 7609.63 2101.79 7604.28 2101.79 7597.53C2101.79 7590.78 2486.64 7585.03 2961.06 7585.03C3435.47 7585.03 3820.9 7590.38 3820.9 7597.53Z" fill="#F5F5F5"/>
<path d="M3071.46 7945.89H2780.25V8547.27H3071.46V7945.89Z" fill="#F5F5F5"/>
<path d="M3820.9 8783.31C3820.9 8790.06 3436.05 8795.92 2961.06 8795.92C2486.06 8795.92 2101.79 8790.06 2101.79 8783.31C2101.79 8776.57 2486.64 8771.31 2961.06 8771.31C3435.47 8771.31 3820.9 8776.67 3820.9 8783.31Z" fill="#F5F5F5"/>
<path d="M4434.31 6760.01H4143.11V7361.38H4434.31V6760.01Z" fill="#F5F5F5"/>
<path d="M5065.49 6760.01H4774.29V7361.38H5065.49V6760.01Z" fill="#F5F5F5"/>
<path d="M4434.31 7901.14H4143.11V8502.52H4434.31V7901.14Z" fill="#F5F5F5"/>
<path d="M5065.49 7901.14H4774.29V8502.52H5065.49V7901.14Z" fill="#F5F5F5"/>
<path d="M4434.31 9042.68H4143.11V9644.05H4434.31V9042.68Z" fill="#F5F5F5"/>
<path d="M5065.49 9042.68H4774.29V9644.05H5065.49V9042.68Z" fill="#F5F5F5"/>
<path d="M5581.55 6141.57H1858.43V6272.54H5581.55V6141.57Z" fill="#E0E0E0"/>
<path d="M5360.75 6285.53C5360.75 6292.28 4637.7 6297.64 3745.2 6297.64C2852.7 6297.64 2129.65 6292.28 2129.65 6285.53C2129.65 6278.79 2852.7 6273.03 3745.2 6273.03C4637.7 6273.03 5360.75 6278.39 5360.75 6285.53Z" fill="#EBEBEB"/>
<path d="M11710.4 4078.87H8095.07V9916.41H11710.4V4078.87Z" fill="#E0E0E0"/>
<path d="M11710.4 4078.87H10015.5V9916.41H11710.4V4078.87Z" fill="#EBEBEB"/>
<path d="M9178.23 4627.95H8853.44V5299.97H9178.23V4627.95Z" fill="#F5F5F5"/>
<path d="M9178.23 7257.7H8853.44V7929.72H9178.23V7257.7Z" fill="#F5F5F5"/>
<path d="M10015.5 5563.9C10015.5 5569.66 9585.6 5573.82 9055.32 5573.82C8525.05 5573.82 8095.07 5569.36 8095.07 5563.9C8095.07 5558.44 8524.93 5553.19 9055.32 5553.19C9585.71 5553.19 10015.5 5558.05 10015.5 5563.9Z" fill="#F5F5F5"/>
<path d="M9178.23 5952.95H8853.44V6624.97H9178.23V5952.95Z" fill="#F5F5F5"/>
<path d="M10015.5 6888.79C10015.5 6894.15 9585.6 6898.72 9055.32 6898.72C8525.05 6898.72 8095.07 6893.75 8095.07 6888.79C8095.07 6883.83 8524.93 6878.08 9055.32 6878.08C9585.71 6878.08 10015.5 6882.94 10015.5 6888.79Z" fill="#F5F5F5"/>
<path d="M10700.2 4627.95H10375.4V5299.97H10700.2V4627.95Z" fill="#E0E0E0"/>
<path d="M11405.6 4627.95H11080.8V5299.97H11405.6V4627.95Z" fill="#E0E0E0"/>
<path d="M10700.2 5903.24H10375.4V6575.26H10700.2V5903.24Z" fill="#E0E0E0"/>
<path d="M11405.6 5903.24H11080.8V6575.26H11405.6V5903.24Z" fill="#E0E0E0"/>
<path d="M10700.2 7178.12H10375.4V7850.14H10700.2V7178.12Z" fill="#E0E0E0"/>
<path d="M11405.6 7178.12H11080.8V7850.14H11405.6V7178.12Z" fill="#E0E0E0"/>
<path d="M11982.1 3937.57H7823.31V4083.82H11982.1V3937.57Z" fill="#E0E0E0"/>
<path d="M11736.2 4097.81C11736.2 4103.57 10928.5 4107.74 9931.95 4107.74C8935.43 4107.74 8127.13 4103.27 8127.13 4097.81C8127.13 4092.36 8934.96 4087.89 9931.95 4087.89C10928.9 4087.89 11736.2 4091.86 11736.2 4097.81Z" fill="#EBEBEB"/>
<path d="M8955.91 6268.17H5719.46V9899.95H8955.91V6268.17Z" fill="#EBEBEB"/>
<path d="M8955.96 6268.17H7438.61V9899.95H8955.96V6268.17Z" fill="#E0E0E0"/>
<path d="M6689.2 6760.01H6398V7361.38H6689.2V6760.01Z" fill="#F5F5F5"/>
<path d="M6689.2 9114.21H6398V9715.59H6689.2V9114.21Z" fill="#F5F5F5"/>
<path d="M7438.56 7597.53C7438.56 7604.28 7053.72 7609.63 6578.72 7609.63C6103.73 7609.63 5719.46 7604.28 5719.46 7597.53C5719.46 7590.78 6104.31 7585.03 6578.72 7585.03C7053.13 7585.03 7438.56 7590.38 7438.56 7597.53Z" fill="#F5F5F5"/>
<path d="M6689.2 7945.89H6398V8547.27H6689.2V7945.89Z" fill="#F5F5F5"/>
<path d="M7438.56 8783.31C7438.56 8790.06 7053.72 8795.92 6578.72 8795.92C6103.73 8795.92 5719.46 8790.06 5719.46 8783.31C5719.46 8776.57 6104.31 8771.31 6578.72 8771.31C7053.13 8771.31 7438.56 8776.67 7438.56 8783.31Z" fill="#F5F5F5"/>
<path d="M8051.97 6760.01H7760.77V7361.38H8051.97V6760.01Z" fill="#F5F5F5"/>
<path d="M8683.15 6760.01H8391.95V7361.38H8683.15V6760.01Z" fill="#F5F5F5"/>
<path d="M8051.97 7901.14H7760.77V8502.52H8051.97V7901.14Z" fill="#F5F5F5"/>
<path d="M8683.15 7901.14H8391.95V8502.52H8683.15V7901.14Z" fill="#F5F5F5"/>
<path d="M8051.97 9042.68H7760.77V9644.05H8051.97V9042.68Z" fill="#F5F5F5"/>
<path d="M8683.15 9042.68H8391.95V9644.05H8683.15V9042.68Z" fill="#F5F5F5"/>
<path d="M9199.33 6141.57H5476.21V6272.54H9199.33V6141.57Z" fill="#E0E0E0"/>
<path d="M8978.56 6285.53C8978.56 6292.28 8255.52 6297.64 7362.9 6297.64C6470.29 6297.64 5747.36 6292.28 5747.36 6285.53C5747.36 6278.79 6470.41 6273.03 7362.9 6273.03C8255.4 6273.03 8978.56 6278.39 8978.56 6285.53Z" fill="#EBEBEB"/>
<path d="M15894.7 4078.87H12279.3V9916.41H15894.7V4078.87Z" fill="#E0E0E0"/>
<path d="M15894.7 4078.87H14199.7V9916.41H15894.7V4078.87Z" fill="#EBEBEB"/>
<path d="M13362.4 4627.95H13037.6V5299.97H13362.4V4627.95Z" fill="#F5F5F5"/>
<path d="M13362.4 7257.7H13037.6V7929.72H13362.4V7257.7Z" fill="#F5F5F5"/>
<path d="M14199.7 5563.9C14199.7 5569.66 13769.8 5573.82 13239.5 5573.82C12709.2 5573.82 12279.3 5569.36 12279.3 5563.9C12279.3 5558.44 12709.2 5553.19 13239.5 5553.19C13769.8 5553.19 14199.7 5558.05 14199.7 5563.9Z" fill="#F5F5F5"/>
<path d="M13362.4 5952.95H13037.6V6624.97H13362.4V5952.95Z" fill="#F5F5F5"/>
<path d="M14199.7 6888.79C14199.7 6894.15 13769.8 6898.72 13239.5 6898.72C12709.2 6898.72 12279.3 6893.75 12279.3 6888.79C12279.3 6883.83 12709.2 6878.08 13239.5 6878.08C13769.8 6878.08 14199.7 6882.94 14199.7 6888.79Z" fill="#F5F5F5"/>
<path d="M14884.5 4627.95H14559.7V5299.97H14884.5V4627.95Z" fill="#E0E0E0"/>
<path d="M15589.8 4627.95H15265V5299.97H15589.8V4627.95Z" fill="#E0E0E0"/>
<path d="M14884.5 5903.24H14559.7V6575.26H14884.5V5903.24Z" fill="#E0E0E0"/>
<path d="M15589.8 5903.24H15265V6575.26H15589.8V5903.24Z" fill="#E0E0E0"/>
<path d="M14884.5 7178.12H14559.7V7850.14H14884.5V7178.12Z" fill="#E0E0E0"/>
<path d="M15589.8 7178.12H15265V7850.14H15589.8V7178.12Z" fill="#E0E0E0"/>
<path d="M16166.3 3937.57H12007.5V4083.82H16166.3V3937.57Z" fill="#E0E0E0"/>
<path d="M15919.8 4097.81C15919.8 4103.57 15112 4107.74 14115.6 4107.74C13119.2 4107.74 12310.7 4103.27 12310.7 4097.81C12310.7 4092.36 13118.6 4087.89 14115.6 4087.89C15112.6 4087.89 15919.8 4091.86 15919.8 4097.81Z" fill="#EBEBEB"/>
<path d="M13140.2 6268.17H9903.73V9899.95H13140.2V6268.17Z" fill="#EBEBEB"/>
<path d="M13140.2 6268.17H11622.8V9899.95H13140.2V6268.17Z" fill="#E0E0E0"/>
<path d="M10873.5 6760.01H10582.3V7361.38H10873.5V6760.01Z" fill="#F5F5F5"/>
<path d="M10873.5 9114.21H10582.3V9715.59H10873.5V9114.21Z" fill="#F5F5F5"/>
<path d="M11622.8 7597.53C11622.8 7604.28 11238 7609.63 10763 7609.63C10288 7609.63 9903.73 7604.28 9903.73 7597.53C9903.73 7590.78 10288.6 7585.03 10763 7585.03C11237.4 7585.03 11622.8 7590.38 11622.8 7597.53Z" fill="#F5F5F5"/>
<path d="M10873.5 7945.89H10582.3V8547.27H10873.5V7945.89Z" fill="#F5F5F5"/>
<path d="M11622.8 8783.31C11622.8 8790.06 11238 8795.92 10763 8795.92C10288 8795.92 9903.73 8790.06 9903.73 8783.31C9903.73 8776.57 10288.6 8771.31 10763 8771.31C11237.4 8771.31 11622.8 8776.67 11622.8 8783.31Z" fill="#F5F5F5"/>
<path d="M12236.1 6760.01H11944.9V7361.38H12236.1V6760.01Z" fill="#F5F5F5"/>
<path d="M12867.4 6760.01H12576.2V7361.38H12867.4V6760.01Z" fill="#F5F5F5"/>
<path d="M12236.1 7901.14H11944.9V8502.52H12236.1V7901.14Z" fill="#F5F5F5"/>
<path d="M12867.4 7901.14H12576.2V8502.52H12867.4V7901.14Z" fill="#F5F5F5"/>
<path d="M12236.1 9042.68H11944.9V9644.05H12236.1V9042.68Z" fill="#F5F5F5"/>
<path d="M12867.4 9042.68H12576.2V9644.05H12867.4V9042.68Z" fill="#F5F5F5"/>
<path d="M13383.5 6141.57H9660.37V6272.54H13383.5V6141.57Z" fill="#E0E0E0"/>
<path d="M13162.7 6285.53C13162.7 6292.28 12439.6 6297.64 11547.1 6297.64C10654.6 6297.64 9931.47 6292.28 9931.47 6285.53C9931.47 6278.79 10654.5 6273.03 11547.1 6273.03C12439.7 6273.03 13162.7 6278.39 13162.7 6285.53Z" fill="#EBEBEB"/>
<path d="M13124 8895.53C12748.2 8379.59 12925.7 7742.49 13216.5 7218.7C13264.9 7131.09 13301 7033.06 13390 6973.13C13479 6913.2 13622.2 6902.49 13696.8 6974.22C13758.7 7033.76 13753.7 7123.05 13764.9 7202.43C13780 7308.31 13830 7408.41 13909.1 7491.16C13960.8 7544.84 14033.8 7592.96 14115.2 7586.12C14226.7 7576.99 14291 7474.79 14335.2 7386.19C14417.7 7220.29 14499.8 7054.92 14581.6 6890.08C14626.3 6801.58 14671.9 6711.49 14745.7 6638.86C14819.5 6566.23 14931.5 6514.93 15042.3 6527.73C15153.1 6540.53 15250.9 6633.5 15227.7 6727.66C15218.2 6767.35 15190.6 6800.98 15175.2 6838.99C15159.8 6876.99 15158.9 6924.71 15194.9 6949.91C15231 6975.12 15285.3 6965.59 15329.4 6951.01C15482.4 6900.11 15613 6812.89 15738.8 6722.8C15864.7 6632.71 15990 6540.43 16136.6 6478.62C16283.2 6416.8 16456.9 6389.32 16609.3 6436.45C16761.7 6483.58 16880.9 6620.1 16855.1 6757.92C16829.4 6895.74 16680.2 6991.59 16536.3 7058.56C16322.6 7157.67 16093.1 7230.01 15855.1 7273.37C15812.2 7281.11 15765.8 7289.55 15736.7 7317.73C15684.5 7368.33 15720.5 7451.08 15779.2 7495.53C15845.2 7546.43 15933 7569.75 16010.3 7606.85C16087.7 7643.96 16159.5 7707.17 16157.4 7783.47C16154.5 7889.34 16017.4 7952.14 15899.3 7983.1C15661.2 8043.32 15412.6 8068.19 15164.6 8056.62C15076.2 8052.36 14984.8 8044.32 14900.5 8066.54C14816.1 8088.77 14738.2 8155.84 14743.8 8231.35C14749.4 8306.86 14834.9 8362.02 14920.9 8378.49C15006.8 8394.96 15097.5 8384.35 15186.3 8388.42C15352 8395.56 15532.4 8470.67 15571.1 8609.38C15596.1 8700.37 15552.8 8797.9 15480.6 8870.33C15408.5 8942.76 15310.8 8989.4 15212.4 9031.27C14868 9175.93 14481.7 9252.73 14101.1 9229.11C13720.6 9205.5 13399.8 9119.97 13121.5 8897.42" fill="#66D4A0"/>
<path d="M12915.7 9287.55C13069.7 9051.55 13249.9 8828.61 13453.8 8621.78C13704.4 8369.55 13972 8129.86 14255.2 7903.92C14329.9 7843.6 14403.6 7783.67 14476.8 7725.33C14549.9 7666.98 14622 7608.44 14696.7 7555.26C14840.5 7453.54 14990.8 7358.61 15146.9 7270.9C15295.2 7186.46 15439.7 7110.75 15575.2 7040.9C15710.7 6971.05 15839 6908.34 15958.5 6855.26C16146.8 6770.7 16342.6 6698.91 16544.1 6640.55C16615.1 6620.01 16670.6 6606.61 16709.2 6596.2L16752.7 6585.38C16757.6 6583.91 16762.7 6582.88 16767.8 6582.3C16763.2 6584.23 16758.4 6585.79 16753.4 6586.97L16711.1 6598.18C16674.1 6608.99 16617.8 6624.27 16547.8 6645.31C16347.6 6706.02 16153 6779.28 15965.5 6864.49C15847.1 6918.17 15719.8 6981.47 15584.3 7051.62C15448.8 7121.77 15304.8 7197.67 15157.1 7282.8C15001.9 7370.52 14852.4 7465.35 14709.3 7566.87C14635 7619.95 14563.8 7677.5 14490.6 7736.34C14417.5 7795.18 14344.3 7855.4 14269.1 7914.94C13986.4 8140.36 13718.8 8379.06 13467.4 8629.92C13263.6 8836.3 13083 9058.54 12928.2 9293.71" fill="#008949"/>
<path d="M14702.6 7554.96C14703.8 7540.87 14706.9 7526.93 14711.7 7513.39C14718.4 7487 14730.1 7448.99 14744.9 7402.26C14774.9 7308.99 14821.1 7181 14873.2 7040.4C14925.3 6899.81 14968.9 6771.42 14997.2 6677.75C15011.4 6631.12 15022.3 6593.12 15029.7 6566.92C15032.4 6553.03 15036.9 6539.45 15043.2 6526.44C15043 6540.5 15041.1 6554.49 15037.5 6568.21C15032.7 6595.1 15023.6 6633.5 15011.9 6681.03C14987.4 6775.48 14945.3 6904.77 14893.5 7045.66C14841.7 7186.56 14795.3 7309.99 14759.8 7406.13C14744 7449.39 14730.8 7486.1 14720.1 7515.27C14716 7529.02 14710.2 7542.34 14702.6 7554.96V7554.96Z" fill="#008949"/>
<path d="M16146.1 7832.38C16127.1 7829.14 16108.4 7824.46 16090.4 7818.39C16055.4 7808.47 16003.5 7793.79 15938.8 7777.42C15810.5 7743.68 15631 7702.5 15432.3 7664.8C15233.6 7627.1 15050 7599.41 14917 7583.14C14850.8 7574.31 14796.9 7568.46 14759.7 7564.29C14740 7562.91 14720.5 7560.09 14701.4 7555.86C14720.9 7554.62 14740.4 7555.02 14759.7 7557.05C14797.3 7559.23 14850.7 7563.6 14918.3 7570.34C15052 7583.74 15235.7 7609.53 15435.9 7647.34C15606.8 7679.26 15775.7 7718.6 15941.9 7765.21C16005.7 7783.17 16056.8 7799.74 16091.5 7811.65C16110.6 7816.82 16128.9 7823.78 16146.1 7832.38V7832.38Z" fill="#008949"/>
<path d="M13481.7 8605.21C13480.3 8599.56 13479.5 8593.82 13479.4 8588.05L13477.4 8538.44C13475.9 8495.38 13475.4 8432.97 13475.4 8355.97C13476.9 8201.98 13487.1 7989.45 13501 7755.19C13515 7520.93 13527.8 7308.7 13532.9 7154.91L13538.5 6972.93L13540.1 6923.32C13540 6917.48 13540.8 6911.65 13542.3 6905.96C13543.9 6911.62 13544.5 6917.42 13544.3 6923.23C13545 6936.62 13545.6 6952.99 13546.5 6972.84C13548 7015.9 13548.4 7078.01 13548.5 7155.3C13547.5 7309.19 13536.8 7521.53 13522.9 7756.08C13508.9 7990.64 13496.3 8202.58 13491.1 8356.17L13485.5 8538.04C13485.5 8557.89 13484.3 8574.26 13483.8 8587.65C13483.8 8593.55 13483.1 8599.44 13481.7 8605.21V8605.21Z" fill="#008949"/>
<path d="M15503 8769.13C15496.2 8769.92 15489.2 8769.92 15482.4 8769.13L15423.3 8764.86L15206.6 8747.79C15023.1 8734.1 14770.7 8715.75 14491.1 8696.79C14211.6 8677.84 13958.2 8658.1 13775.8 8640.54C13684.3 8631.71 13610.4 8623.87 13559.5 8617.52L13500.5 8609.88C13493.7 8609.49 13486.9 8608.18 13480.5 8606.01C13487.3 8605.31 13494.3 8605.31 13501.1 8606.01L13560 8610.18L13776.9 8627.34C13960.1 8640.93 14212.9 8659.39 14492.4 8678.34C14771.9 8697.29 15025 8716.84 15207.7 8734.6C15299.2 8743.43 15372.9 8751.17 15423.7 8757.52L15482.7 8765.16C15489.7 8765.59 15496.5 8766.93 15503 8769.13V8769.13Z" fill="#008949"/>
<path d="M2748.73 4150.9C2748.73 4150.9 2465.8 4224.62 2726.8 4740.37C2987.8 5256.12 3176.26 5517.17 3176.26 5517.17C3176.26 5517.17 3220.46 5636.23 3104.07 5647.84C2987.68 5659.45 2737.18 5610.73 2676.89 5727.22C2614.03 5848.27 2710.94 5971.3 2917.59 6086C3124.25 6200.7 3566.59 6466.41 3606.7 6490.52C3646.82 6514.63 3682.62 6570.79 3604.61 6588.75C3526.59 6606.71 2953.75 6626.85 2980.22 6857.64C3006.69 7088.43 3644.14 7327.75 3714 7354.93C3783.85 7382.12 3798.08 7408.71 3789.68 7441.65C3781.29 7474.59 3587.58 7466.26 3425.36 7476.08C3263.14 7485.9 3076.08 7523.91 3104.42 7655.77C3132.76 7787.63 3498.95 8082.42 4432.26 8214.08L4869.82 8250.9L5133.62 7950.55C5650.36 7275.85 5641.97 6847.12 5546.69 6740.06C5451.41 6633 5293.51 6724.78 5174.09 6819.44C5054.67 6914.09 4932.22 7041.69 4898.05 7024.92C4863.88 7008.16 4851.4 6980.47 4874.14 6918.86C4896.88 6857.24 5120.32 6295.06 4938.28 6122.71C4756.23 5950.37 4353.31 6297.64 4284.15 6333.95C4215 6370.27 4191.56 6309.44 4197.62 6268.37C4203.69 6227.29 4272.03 5770.08 4313.08 5562.81C4354.13 5355.54 4313.08 5211.87 4164.73 5169.9C4022.34 5128.92 3895.34 5318.73 3807.06 5384.01C3718.78 5449.3 3644.84 5341.05 3644.84 5341.05C3644.84 5341.05 3547.23 5046.37 3275.39 4534.59C3003.54 4022.81 2742.43 4152.68 2742.43 4152.68" fill="#66D4A0"/>
<path d="M4886.45 8340.69C4688.2 7963.65 4350 7287.07 4055.18 6708.02C3760.36 6128.96 3494 5605.28 3297.96 5226.85L3067.05 4779.17C3039.88 4726.58 3018.54 4685.6 3004.08 4656.33L2987.98 4624.48L2982.74 4613.37C2985.32 4616.66 2987.62 4620.11 2989.62 4623.69C2993.93 4631.23 2999.65 4641.55 3006.88 4655.04L3072.42 4775.89C3130.14 4881.06 3209.8 5033.86 3308.81 5222.38C3507.06 5599.42 3775.29 6123.21 4069.76 6702.06C4364.22 7280.92 4701.26 7957.7 4897.76 8335.93" fill="#008949"/>
<path d="M3675.26 7707.76C3688.05 7707.97 3700.8 7709.04 3713.39 7710.94L3817.07 7723.54C3903.6 7734.55 4024.89 7750.72 4157.6 7769.18C4290.32 7787.63 4410.79 7805.3 4497.67 7818.79L4600.41 7834.96C4613.06 7836.55 4625.51 7839.1 4637.61 7842.6C4624.86 7842.48 4612.14 7841.42 4599.59 7839.43L4495.92 7826.93C4409.39 7815.81 4288.33 7799.64 4155.27 7781.18C4022.21 7762.73 3902.44 7745.37 3815.32 7732.07L3712.69 7715.4C3699.93 7714 3687.38 7711.44 3675.26 7707.76V7707.76Z" fill="#008949"/>
<path d="M4640.77 7813.83L4703.4 7742.69C4757.04 7682.66 4831.68 7600.8 4914.48 7510.51C4997.28 7420.22 5073.78 7338.66 5128.6 7280.62L5194.84 7211.66C5202.56 7202.98 5211.11 7194.85 5220.38 7187.35C5214.29 7196.93 5207.14 7206 5199.04 7214.44L5136.41 7285.58C5082.76 7345.11 5008.13 7427.66 4925.33 7517.66C4842.53 7607.65 4766.02 7689.61 4711.21 7747.65L4644.85 7816.51C4637.23 7825.23 4628.72 7833.36 4619.43 7840.82C4625.37 7831.19 4632.52 7822.14 4640.77 7813.83V7813.83Z" fill="#008949"/>
<path d="M6091.71 4355.79C6099 4345.83 6107.11 4336.31 6115.97 4327.31L6184.66 4252.2C6242.39 4188.8 6322.04 4100.89 6406.94 4001.67C6491.84 3902.45 6565.66 3811.07 6618.72 3744.59C6644.49 3712.64 6665.37 3686.05 6681.7 3665.71C6689.04 3655.79 6697.23 3646.34 6706.19 3637.43C6700.53 3648.11 6693.9 3658.39 6686.36 3668.19C6672.72 3687.54 6652.54 3715.12 6626.88 3748.96C6575.69 3817.02 6502.92 3909.3 6418.25 4008.52C6333.58 4107.74 6252.3 4195.15 6192.47 4257.36C6163.67 4288.52 6137.66 4313.32 6120.29 4330.99C6111.64 4339.96 6102.08 4348.26 6091.71 4355.79Z" fill="#008949"/>
<path d="M9937.39 6181.45C9937.39 6181.45 9285.02 7057.77 8622.38 7662.91C8358.7 7903.72 8093.27 8101.57 7866.91 8184.02C7645.33 8264.79 7457.57 8390.2 7302.23 8529.21C6900.12 8888.98 6714.46 9339.54 6714.46 9339.54L5019.73 7617.57C5019.73 7617.57 5078.04 5934.39 5280.96 5653C5577.53 5242.52 5720.86 4413.44 5835.14 4248.43C5919.58 4125.99 6160.98 3493.56 6184.19 3447.03C6194.22 3427.18 6274.45 3396.33 6378.83 3396.33C6462.45 3396.33 6604.61 3450.7 6640.41 3562.32C6821.64 4126.69 6603.56 4498.97 6606.01 4515.44C6669.91 4949.23 6477.72 5271.1 6612.54 5356.43C6617.55 5359.61 6626.88 5358.02 6640.06 5352.46C6873.3 5251.65 8323.6 3831.81 8502.26 3801.25C8690.48 3768.9 9937.39 6181.45 9937.39 6181.45Z" fill="#F9C29D"/>
<path d="M7302.16 8529.21C7302.16 8529.21 7235.92 8976.4 7169.8 10007L3386.16 9956.5C4363.32 8557.49 5020.13 7350.17 5020.13 7350.17C5020.13 7350.17 7198.95 7797.56 7302.16 8529.21Z" fill="#00B761"/>
<path d="M6171.91 3473.22L6034.65 3845.6C6034.65 3845.6 6154.65 3878.54 6231.74 3852.94C6308.83 3827.34 6371.57 3493.26 6171.91 3473.22Z" fill="#FFEDE1"/>
<path d="M6639.87 6502.03C6639.87 6502.03 6523.83 5821.58 6416.77 5688.92C6309.71 5556.26 6218.52 5290.45 6383.77 5092.9C6549.02 4895.35 6605.35 4515.44 6605.35 4515.44C6669.25 4949.23 6477.06 5271.1 6611.88 5356.43C6616.89 5359.61 6626.22 5358.02 6639.4 5352.46L6639.87 6502.03Z" fill="#E2B596"/>
<path d="M11419.1 3214.75L10894.3 3731.39L10379.3 4238.51C10365.3 4250.16 10348.4 4259.05 10329.9 4264.53C10311.4 4270.02 10291.7 4271.98 10272.2 4270.26C10148.6 4262.42 9995.73 4142.66 9876.66 4076.38L9865 4069.74C9707.91 3982.42 9685.64 3824.66 9815.67 3719.19L10602.7 3080.11L10836 2890.6C10966 2785.03 11200.9 2770.14 11357.9 2857.46L11369.5 2864.11C11526.8 2951.12 11549.6 3108.88 11419.1 3214.75Z" fill="#F9C29D"/>
<path d="M10894.3 3730.7L10379.3 4237.82C10365.3 4249.47 10348.4 4258.35 10329.9 4263.84C10311.4 4269.33 10291.7 4271.28 10272.2 4269.57L10602.3 3078.92C10603 3086.56 10659.1 3620.47 10894.3 3730.7Z" fill="#EFA26F"/>
<path d="M10709.9 6606.02C10710 6617.43 10706.1 6628.62 10698.7 6638.15C10691.3 6647.68 10680.8 6655.13 10668.4 6659.56C10656 6663.98 10642.4 6665.18 10629.2 6663C10616.1 6660.82 10603.9 6655.36 10594.4 6647.32C10584.9 6639.27 10578.4 6629 10575.7 6617.81C10573.1 6606.61 10574.4 6595 10579.5 6584.45C10584.6 6573.89 10593.3 6564.86 10604.5 6558.51C10615.6 6552.16 10628.7 6548.77 10642.2 6548.77V6548.77C10651 6548.74 10659.8 6550.2 10668 6553.06C10676.2 6555.93 10683.7 6560.14 10690 6565.45C10696.3 6570.77 10701.3 6577.09 10704.7 6584.05C10708.1 6591.01 10709.9 6598.47 10709.9 6606.02V6606.02Z" fill="#E0E0E0"/>
<path d="M10642.2 6731.43C10634.3 6689.9 10634.3 6647.55 10642.2 6606.02C10650.1 6647.55 10650.1 6689.9 10642.2 6731.43Z" fill="#E0E0E0"/>
<path d="M10349 728.669L9734.84 726.783C9714.85 726.977 9695.11 730.532 9676.74 737.244C9658.37 743.956 9641.74 753.692 9627.81 765.893C9613.89 778.093 9602.93 792.517 9595.58 808.333C9588.23 824.15 9584.63 841.047 9584.98 858.052V858.052V952.51C9585.28 969.483 9581.63 986.337 9574.25 1002.11C9566.87 1017.88 9555.91 1032.25 9541.99 1044.41C9528.07 1056.57 9511.46 1066.27 9493.12 1072.96C9474.78 1079.65 9455.08 1083.19 9435.13 1083.38L8237.55 1078.42C8197.22 1077.54 8158.95 1063.09 8131.13 1038.24C8103.3 1013.39 8088.18 980.175 8089.09 945.863V851.801C8089.63 834.82 8086.23 817.915 8079.07 802.057C8071.91 786.198 8061.15 771.699 8047.38 759.391C8033.62 747.084 8017.14 737.21 7998.88 730.337C7980.62 723.464 7960.94 719.727 7940.98 719.342H7724.42L7186.45 716.464C7123.17 716.033 7060.41 726.215 7001.76 746.429C6943.1 766.643 6889.71 796.493 6844.62 834.273C6799.53 872.052 6763.64 917.021 6738.99 966.608C6714.34 1016.2 6701.41 1069.43 6700.96 1123.27V1124.06L6668.19 7677.49C6668 7786.15 6718.55 7890.43 6808.72 7967.39C6898.89 8044.35 7021.29 8087.68 7149.01 8087.87H7149.95L10311.6 8100.27C10439.4 8101.09 10562.4 8058.69 10653.4 7982.4C10744.5 7906.11 10796.2 7802.18 10797.1 7693.46L10830 1139.05C10830.1 1030.37 10779.5 926.11 10689.3 849.163C10599.1 772.217 10476.7 728.879 10349 728.669Z" fill="#FAFAFA"/>
<path d="M6878.91 5900.16C6905.96 5883.09 8228.09 5390.66 8228.09 5390.66L6683.68 4739.38L6678.32 5788.83L6878.91 5900.16Z" fill="#EBEBEB"/>
<path d="M6959.59 4719.24L8086.38 4235.14L6875.62 3667.6L6688.92 3707.18L6684.37 4625.37L6959.59 4719.24Z" fill="#00B761"/>
<path d="M6959.59 4719.24L8086.38 4235.14L6875.62 3667.6L6688.92 3707.18L6684.37 4625.37L6959.59 4719.24Z" fill="#66D4A0"/>
<path d="M6729.56 3601.71L10202.4 2230.48L6761.75 1279.95L6729.56 3601.71Z" fill="#EBEBEB"/>
<path d="M6689.22 7172.66L8276.2 6484.17L10638.6 7659.14L10075.8 8076.37H8059.75L6689.22 7368.23V7172.66Z" fill="#EBEBEB"/>
<path d="M8588.62 6409.66L10551.1 7393.43L10770 7372.49V6426.62L9694.42 5945.4L8588.62 6409.66Z" fill="#EBEBEB"/>
<path d="M8911.21 5470.44L10761.5 6350.32V5200.06L10092.1 4957.56L8911.21 5470.44Z" fill="#EBEBEB"/>
<path d="M6934.9 5955.33L8020.29 6458.77L9337.63 5882L8290.96 5432.04L6934.9 5955.33Z" fill="#EBEBEB"/>
<path d="M8564.23 4228.69L10101.9 4872.83L10815 4565.05L10819.6 4133.34L9780.94 3707.18L8564.23 4228.69Z" fill="#EBEBEB"/>
<path d="M6991.85 4790.58L8529.37 5434.72L9242.51 5126.93L9247.06 4695.22L8208.2 4269.07L6991.85 4790.58Z" fill="#EBEBEB"/>
<path d="M7204.7 3632.87L8457.9 4163.4L9626.56 3632.87L8415.68 3165.84L7204.7 3632.87Z" fill="#EBEBEB"/>
<path d="M9626.53 7022.74C9618.44 7020 9610.64 7016.68 9603.2 7012.82L9538.6 6981.96L9289.61 6860.32L8368.31 6403.9L8349.3 6393.98L8369.01 6385.45L9578.71 5866.43V5890.14L8676.19 5483.33L8647.73 5470.53L8676.42 5457.74L9929.39 4901.5V4928.39L9779.77 4864.4L6971.66 3659.46L6945.19 3648.25L6972.12 3637.33L8463.35 3036.16L8876.31 2871.45L8985 2829.18L9013.22 2818.66C9016.42 2817.47 9019.74 2816.51 9023.13 2815.79C9020.41 2817.7 9017.39 2819.27 9014.15 2820.45L8987.1 2832.46L8879.57 2879.59L8469.3 3050.44L6984.72 3661.25V3638.33L9795.28 4837.51L9945.49 4901.5L9976.39 4914.8L9945.72 4928.39L8691.11 5483.24V5457.64L9592.59 5866.43L9619.18 5878.43L9592.36 5889.94L8379.5 6404.3V6386.24L9295.33 6851.69L9540.23 6978L9603.32 7011.33C9611.48 7014.47 9619.26 7018.29 9626.53 7022.74V7022.74Z" fill="#00B761"/>
<path d="M9357.12 2193.77C9357.12 1999.89 9116.77 1877.65 8871.51 1974.59C8816.2 1996.47 8770.88 2033.22 8742.53 2079.17C8680.84 2180.18 8708.13 2295.57 8763.87 2391.42L8954.78 2800.31C8960.83 2813.4 8971.38 2824.64 8985.05 2832.56C8998.71 2840.48 9014.86 2844.71 9031.4 2844.71C9047.94 2844.71 9064.09 2840.48 9077.75 2832.56C9091.42 2824.64 9101.97 2813.4 9108.02 2800.31L9294.61 2389.33C9359.69 2263.62 9357.12 2193.77 9357.12 2193.77ZM9127.73 2362.45C8962.83 2443.51 8795.83 2293.79 8886.21 2145.95C8898.1 2126.44 8916.2 2110.17 8938.45 2099.02C9103.47 2017.95 9270.47 2167.68 9180.09 2315.51C9167.94 2335.16 9149.45 2351.44 9126.8 2362.45H9127.73Z" fill="#008949"/>
<path d="M8990.86 4310.55L8985.38 4082.14L9689.89 4370.48V4607.91L8990.86 4310.55Z" fill="#F5F5F5"/>
<path d="M9689.85 4370.47L10564.9 4002.96V4258.75L9689.85 4607.91V4370.47Z" fill="#E0E0E0"/>
<path d="M8985.38 4082.14L9844.06 3718.99L10564.9 4002.96L9689.88 4370.47L8985.38 4082.14Z" fill="#F5F5F5"/>
<path d="M9077.28 4180.86V4291.59L9146.08 4317.79V4211.82L9077.28 4180.86Z" fill="#FAFAFA"/>
<path d="M9187.48 4221.74V4332.67L9256.52 4358.87V4253L9187.48 4221.74Z" fill="#FAFAFA"/>
<path d="M6774.11 2868.97V2571.6L7608.06 2913.12V3194.01L6774.11 2868.97Z" fill="#E0E0E0"/>
<path d="M7608.08 2913.12L8644.13 2477.94V2780.86L7608.08 3194.02V2913.12Z" fill="#F5F5F5"/>
<path d="M6774.11 2571.6L7790.45 2141.98L8644.12 2477.94L7608.06 2913.12L6774.11 2571.6Z" fill="#FAFAFA"/>
<path d="M6883 2688.39V2819.66L6964.51 2850.71V2725.2L6883 2688.39Z" fill="#FAFAFA"/>
<path d="M7013.39 2737.1V2868.17L7095.02 2899.43V2773.91L7013.39 2737.1Z" fill="#FAFAFA"/>
<path d="M9288.04 5354.25V5588.51L9586.36 5712.43V5470.44L9288.04 5354.25Z" fill="#E0E0E0"/>
<path d="M9964.95 5317.04L9585.24 5470.43V5712.43L9964.95 5533.24V5317.04Z" fill="#E0E0E0"/>
<path d="M9288.04 5354.25L9664.38 5200.06L9964.91 5317.04L9585.19 5470.43L9288.04 5354.25Z" fill="#F5F5F5"/>
<path d="M9393.66 5522.43V5633.16L9462.46 5659.55V5553.58L9393.66 5522.43Z" fill="#FAFAFA"/>
<path d="M6887.23 5233V5467.06L7184.27 5591.09V5348.99L6887.23 5233Z" fill="#E0E0E0"/>
<path d="M7564.18 5195.79L7184.23 5349.19V5591.19L7564.18 5411.99V5195.79Z" fill="#E0E0E0"/>
<path d="M6887.23 5233L7263.69 5078.81L7564.22 5195.79L7184.27 5349.19L6887.23 5233Z" fill="#F5F5F5"/>
<path d="M6992.77 5401.18V5511.91L7061.58 5538.3V5432.43L6992.77 5401.18Z" fill="#FAFAFA"/>
<path d="M8119.39 3686.45V3920.91L8416.54 4044.83V3802.83L8119.39 3686.45Z" fill="#F5F5F5"/>
<path d="M8796.41 3649.44L8416.58 3802.83V4044.83L8796.41 3865.64V3649.44Z" fill="#E0E0E0"/>
<path d="M8119.39 3686.45L8495.84 3532.46L8796.37 3649.44L8416.54 3802.83L8119.39 3686.45Z" fill="#F5F5F5"/>
<path d="M8225 3854.82V3965.55L8293.81 3991.95V3885.78L8225 3854.82Z" fill="#E0E0E0"/>
<path d="M7789.02 5694.38V5928.93L8085.94 6052.46V5810.76L7789.02 5694.38Z" fill="#E0E0E0"/>
<path d="M8466.16 5657.17L8086.45 5810.76V6052.66L8466.16 5873.67V5657.17Z" fill="#EBEBEB"/>
<path d="M7789.02 5694.38L8165.47 5540.39L8466.12 5657.17L8086.4 5810.76L7789.02 5694.38Z" fill="#F5F5F5"/>
<path d="M7894.56 5862.55V5973.48L7963.36 5999.68V5893.81L7894.56 5862.55Z" fill="#FAFAFA"/>
<path d="M9016.01 6260.83V6554.72L9641.68 6866.07V6562.76L9016.01 6260.83Z" fill="#F5F5F5"/>
<path d="M10118.7 6345.86L9642.42 6562.76V6866.07L10118.7 6641.44V6345.86Z" fill="#E0E0E0"/>
<path d="M9016.01 6260.33L9488.21 6067.15L10118.7 6345.86L9642.38 6562.76L9016.01 6260.33Z" fill="#FAFAFA"/>
<path d="M9252.56 6532.3V6671.21L9339.09 6714.96V6577.64L9252.56 6532.3Z" fill="#FAFAFA"/>
<path d="M7509.36 6865.28V7159.17L8135.73 7471.32V7167.5L7509.36 6865.28Z" fill="#E0E0E0"/>
<path d="M8883.19 6825.2L8135.77 7167.51V7471.02L8885.29 7119.78L8883.19 6825.2Z" fill="#FAFAFA"/>
<path d="M7509.36 6865.28L8299.93 6541.62L8885.25 6826.29L8135.73 7167.51L7509.36 6865.28Z" fill="#F5F5F5"/>
<path d="M7745.9 7137.05V7276.05L7832.21 7319.91V7182.39L7745.9 7137.05Z" fill="#FAFAFA"/>
<path d="M9880.31 5766.61V6940.19L10271.2 7111.05V5922.68L9880.31 5766.61Z" fill="#F5F5F5"/>
<path d="M10169.2 5654.09L9880.31 5766.61L10271.2 5922.68L10534.2 5797.37L10169.2 5654.09Z" fill="#FAFAFA"/>
<path d="M10271.2 5922.68V7111.05L10509.1 7002.8L10534.2 5797.37L10271.2 5922.68Z" fill="#E0E0E0"/>
<path d="M8228.12 4815.98V5989.56L8619.16 6160.51V4972.15L8228.12 4815.98Z" fill="#F5F5F5"/>
<path d="M8516.76 4703.36L8228.12 4815.98L8619.15 4972.15L8882.02 4846.83L8516.76 4703.36Z" fill="#FAFAFA"/>
<path d="M8619.14 4972.15V6160.51L8856.81 6061.39L8882 4846.83L8619.14 4972.15Z" fill="#E0E0E0"/>
<path d="M8405.52 7047.84V7341.64L9032.12 7653.49V7350.17L8405.52 7047.84Z" fill="#E0E0E0"/>
<path d="M9508.2 7133.38L9032.16 7350.17V7653.49L9508.2 7428.95V7133.38Z" fill="#FAFAFA"/>
<path d="M8405.52 7047.85L8883.2 6825.2L9508.17 7133.37L9032.12 7350.17L8405.52 7047.85Z" fill="#F5F5F5"/>
<path d="M8642.03 7319.51V7458.62L8728.56 7502.47V7364.95L8642.03 7319.51Z" fill="#FAFAFA"/>
<path d="M9798.69 3544.46L8657.9 3109.88L10246.5 2426.35L10767.7 3083.48L9798.69 3544.46Z" fill="#EBEBEB"/>
<path d="M10814 3943.63L10821.9 3191.14L9937.41 3616.59L10814 3943.63Z" fill="#66D4A0"/>
<path d="M10142.1 4697.31C10142 4708.69 10137.9 4719.78 10130.4 4729.2C10122.9 4738.61 10112.2 4745.92 10099.9 4750.21C10087.5 4754.5 10073.9 4755.57 10060.8 4753.29C10047.7 4751.01 10035.6 4745.48 10026.2 4737.4C10016.8 4729.32 10010.4 4719.05 10007.8 4707.88C10005.3 4696.71 10006.6 4685.14 10011.8 4674.64C10016.9 4664.13 10025.6 4655.16 10036.7 4648.85C10047.9 4642.53 10061 4639.16 10074.3 4639.16C10092.3 4639.35 10109.5 4645.55 10122.2 4656.43C10134.9 4667.3 10142 4681.99 10142.1 4697.31Z" fill="#E0E0E0"/>
<path d="M10074.3 4822.82C10066.4 4781.26 10066.4 4738.87 10074.3 4697.31C10082.2 4738.87 10082.2 4781.26 10074.3 4822.82Z" fill="#E0E0E0"/>
<path d="M8295.88 4557.11C8295.97 4568.73 8292 4580.11 8284.48 4589.8C8276.96 4599.5 8266.22 4607.08 8253.63 4611.58C8241.04 4616.07 8227.16 4617.28 8213.76 4615.06C8200.35 4612.83 8188.03 4607.27 8178.35 4599.08C8168.67 4590.88 8162.06 4580.42 8159.38 4569.03C8156.7 4557.64 8158.05 4545.83 8163.27 4535.09C8168.49 4524.35 8177.34 4515.18 8188.7 4508.73C8200.06 4502.28 8213.42 4498.85 8227.07 4498.87C8244.95 4498.6 8262.23 4504.37 8275.12 4514.91C8288.02 4525.45 8295.48 4539.91 8295.88 4555.12V4557.11Z" fill="#E0E0E0"/>
<path d="M8228.09 4683.22C8220.17 4641.69 8220.17 4599.34 8228.09 4557.8C8236.12 4599.33 8236.12 4641.69 8228.09 4683.22V4683.22Z" fill="#E0E0E0"/>
<path d="M7391.53 5355.74C7391.64 5367.16 7387.77 5378.35 7380.39 5387.9C7373.02 5397.44 7362.48 5404.91 7350.11 5409.35C7337.74 5413.79 7324.1 5415 7310.91 5412.83C7297.73 5410.66 7285.61 5405.21 7276.07 5397.17C7266.54 5389.13 7260.02 5378.86 7257.36 5367.66C7254.7 5356.47 7256.01 5344.85 7261.12 5334.29C7266.23 5323.72 7274.91 5314.69 7286.07 5308.33C7297.22 5301.98 7310.35 5298.58 7323.77 5298.58C7341.66 5298.53 7358.84 5304.52 7371.54 5315.24C7384.25 5325.95 7391.43 5340.52 7391.53 5355.74V5355.74Z" fill="#E0E0E0"/>
<path d="M7324.41 5481.25C7316.5 5439.68 7316.5 5397.3 7324.41 5355.74C7332.33 5397.3 7332.33 5439.68 7324.41 5481.25V5481.25Z" fill="#E0E0E0"/>
<path d="M7459.09 4739.38C7458.94 4754.36 7451.81 4768.68 7439.28 4779.2C7426.75 4789.73 7409.82 4795.6 7392.21 4795.54C7374.6 4795.47 7357.74 4789.47 7345.32 4778.85C7332.89 4768.24 7325.91 4753.86 7325.91 4738.88C7325.91 4723.9 7332.89 4709.53 7345.32 4698.91C7357.74 4688.29 7374.6 4682.29 7392.21 4682.23C7409.82 4682.16 7426.75 4688.03 7439.28 4698.56C7451.81 4709.08 7458.94 4723.4 7459.09 4738.39V4739.38Z" fill="#E0E0E0"/>
<path d="M7391.46 4864.89C7383.54 4823.32 7383.54 4780.94 7391.46 4739.38C7399.37 4780.94 7399.37 4823.32 7391.46 4864.89V4864.89Z" fill="#E0E0E0"/>
<path d="M9129.37 4683.22C9129.73 4694.82 9126.04 4706.24 9118.76 4716.05C9111.48 4725.86 9100.94 4733.61 9088.47 4738.31C9076 4743.02 9062.17 4744.46 9048.74 4742.46C9035.31 4740.46 9022.87 4735.12 9013.02 4727.1C9003.17 4719.08 8996.34 4708.75 8993.4 4697.42C8990.46 4686.09 8991.54 4674.27 8996.51 4663.47C9001.48 4652.66 9010.11 4643.36 9021.3 4636.73C9032.5 4630.11 9045.76 4626.47 9059.39 4626.27H9061.96C9079.75 4626.29 9096.8 4632.29 9109.43 4642.95C9122.05 4653.61 9129.21 4668.08 9129.37 4683.22V4683.22Z" fill="#E0E0E0"/>
<path d="M9061.69 4808.24C9053.65 4766.68 9053.65 4724.28 9061.69 4682.72C9069.6 4724.29 9069.6 4766.67 9061.69 4808.24V4808.24Z" fill="#E0E0E0"/>
<path d="M10198.3 5111.36C10198.4 5122.78 10194.5 5133.97 10187.2 5143.52C10179.8 5153.06 10169.3 5160.53 10156.9 5164.97C10144.5 5169.41 10130.9 5170.62 10117.7 5168.45C10104.5 5166.28 10092.4 5160.83 10082.8 5152.79C10073.3 5144.75 10066.8 5134.48 10064.1 5123.28C10061.5 5112.09 10062.8 5100.47 10067.9 5089.91C10073 5079.34 10081.7 5070.31 10092.8 5063.95C10104 5057.6 10117.1 5054.2 10130.5 5054.2C10148.4 5054.15 10165.6 5060.14 10178.3 5070.85C10191 5081.57 10198.2 5096.14 10198.3 5111.36V5111.36Z" fill="#E0E0E0"/>
<path d="M10130.6 5236.87C10122.7 5195.3 10122.7 5152.92 10130.6 5111.36C10138.5 5152.92 10138.5 5195.3 10130.6 5236.87V5236.87Z" fill="#E0E0E0"/>
<path d="M10241.3 5447.91C10241.4 5459.3 10237.5 5470.46 10230.1 5479.96C10222.7 5489.47 10212.2 5496.89 10199.8 5501.29C10187.5 5505.69 10173.9 5506.87 10160.7 5504.69C10147.6 5502.5 10135.5 5497.04 10126 5489.01C10116.5 5480.97 10110 5470.72 10107.4 5459.54C10104.7 5448.37 10106.1 5436.79 10111.2 5426.26C10116.3 5415.72 10125 5406.72 10136.1 5400.38C10147.2 5394.04 10160.3 5390.66 10173.7 5390.66C10191.6 5390.63 10208.8 5396.65 10221.4 5407.38C10234.1 5418.11 10241.3 5432.69 10241.3 5447.91V5447.91Z" fill="#E0E0E0"/>
<path d="M10173.5 5573.42C10165.6 5531.86 10165.6 5489.48 10173.5 5447.91C10181.4 5489.48 10181.4 5531.86 10173.5 5573.42V5573.42Z" fill="#E0E0E0"/>
<path d="M8343.81 6146.13C8343.66 6161.14 8336.52 6175.48 8323.97 6186.02C8311.41 6196.57 8294.46 6202.45 8276.82 6202.39C8259.18 6202.32 8242.28 6196.31 8229.84 6185.67C8217.39 6175.04 8210.4 6160.64 8210.4 6145.63C8210.4 6130.62 8217.39 6116.22 8229.84 6105.59C8242.28 6094.95 8259.18 6088.94 8276.82 6088.88C8294.46 6088.81 8311.41 6094.69 8323.97 6105.24C8336.52 6115.78 8343.66 6130.13 8343.81 6145.14V6146.13Z" fill="#E0E0E0"/>
<path d="M8276.15 6271.64C8268.11 6230.08 8268.11 6187.69 8276.15 6146.13C8284.06 6187.69 8284.06 6230.08 8276.15 6271.64V6271.64Z" fill="#E0E0E0"/>
<path d="M10499.6 7200.85C10536.9 7200.85 10567.2 7175.21 10567.2 7143.59C10567.2 7111.98 10536.9 7086.34 10499.6 7086.34C10462.2 7086.34 10431.9 7111.98 10431.9 7143.59C10431.9 7175.21 10462.2 7200.85 10499.6 7200.85Z" fill="#E0E0E0"/>
<path d="M10500 7269.11C10492 7227.65 10492 7185.35 10500 7143.89C10507.9 7185.36 10507.9 7227.64 10500 7269.11V7269.11Z" fill="#E0E0E0"/>
<path d="M9274.59 7768.98C9274.92 7780.57 9271.18 7791.98 9263.87 7801.77C9256.56 7811.55 9246 7819.27 9233.53 7823.94C9221.06 7828.61 9207.24 7830.03 9193.82 7828.01C9180.4 7825.99 9167.99 7820.62 9158.16 7812.59C9148.33 7804.56 9141.52 7794.23 9138.6 7782.91C9135.68 7771.58 9136.78 7759.78 9141.75 7748.98C9146.73 7738.19 9155.36 7728.9 9166.55 7722.28C9177.75 7715.67 9191 7712.03 9204.62 7711.83H9206.95C9215.81 7711.81 9224.58 7713.26 9232.77 7716.12C9240.96 7718.98 9248.41 7723.18 9254.69 7728.49C9260.97 7733.8 9265.96 7740.1 9269.37 7747.05C9272.79 7754 9274.56 7761.45 9274.59 7768.98V7768.98Z" fill="#E0E0E0"/>
<path d="M9205.47 7894.79C9197.51 7853.13 9197.51 7810.64 9205.47 7768.98C9213.42 7810.64 9213.42 7853.13 9205.47 7894.79Z" fill="#E0E0E0"/>
<path d="M8752.96 7596.54C8753.05 7607.95 8749.15 7619.14 8741.76 7628.67C8734.38 7638.2 8723.83 7645.65 8711.45 7650.08C8699.08 7654.5 8685.44 7655.7 8672.27 7653.52C8659.1 7651.34 8646.98 7645.88 8637.46 7637.84C8627.93 7629.79 8621.43 7619.52 8618.78 7608.33C8616.13 7597.13 8617.44 7585.52 8622.56 7574.96C8627.67 7564.41 8636.36 7555.38 8647.51 7549.03C8658.66 7542.68 8671.78 7539.29 8685.2 7539.29C8694.07 7539.26 8702.85 7540.72 8711.06 7543.58C8719.26 7546.45 8726.72 7550.66 8733.01 7555.97C8739.31 7561.29 8744.31 7567.61 8747.73 7574.57C8751.15 7581.53 8752.93 7588.99 8752.96 7596.54V7596.54Z" fill="#E0E0E0"/>
<path d="M8685.15 7721.95C8677.23 7680.42 8677.23 7638.07 8685.15 7596.54C8693.42 7638.04 8693.42 7680.44 8685.15 7721.95V7721.95Z" fill="#E0E0E0"/>
<path d="M9947.95 7471.32C9948.02 7482.91 9944.04 7494.26 9936.52 7503.92C9929 7513.59 9918.28 7521.14 9905.72 7525.62C9893.15 7530.09 9879.3 7531.29 9865.93 7529.07C9852.56 7526.84 9840.27 7521.29 9830.61 7513.12C9820.96 7504.94 9814.37 7494.51 9811.68 7483.15C9809 7471.78 9810.34 7460 9815.54 7449.28C9820.74 7438.57 9829.56 7429.41 9840.88 7422.96C9852.2 7416.52 9865.52 7413.08 9879.14 7413.08C9897.03 7412.78 9914.32 7418.54 9927.23 7429.09C9940.13 7439.64 9947.58 7454.12 9947.95 7469.34V7471.32Z" fill="#E0E0E0"/>
<path d="M9880.27 7596.54C9872.36 7554.97 9872.36 7512.59 9880.27 7471.02C9888.19 7512.59 9888.19 7554.97 9880.27 7596.54V7596.54Z" fill="#E0E0E0"/>
<path d="M8861.37 6426.43C8898.72 6426.43 8929 6400.79 8929 6369.18C8929 6337.56 8898.72 6311.93 8861.37 6311.93C8824.01 6311.93 8793.73 6337.56 8793.73 6369.18C8793.73 6400.79 8824.01 6426.43 8861.37 6426.43Z" fill="#E0E0E0"/>
<path d="M8861.54 6494.69C8853.63 6453.12 8853.63 6410.74 8861.54 6369.18C8869.46 6410.74 8869.46 6453.12 8861.54 6494.69V6494.69Z" fill="#E0E0E0"/>
<path d="M9099.74 5810.76C9099.85 5822.19 9095.97 5833.39 9088.59 5842.93C9081.21 5852.48 9070.67 5859.95 9058.29 5864.38C9045.91 5868.82 9032.26 5870.03 9019.08 5867.85C9005.9 5865.68 8993.77 5860.21 8984.24 5852.16C8974.71 5844.11 8968.21 5833.83 8965.56 5822.63C8962.91 5811.43 8964.23 5799.81 8969.36 5789.25C8974.49 5778.68 8983.19 5769.66 8994.36 5763.31C9005.53 5756.97 9018.67 5753.59 9032.1 5753.61C9049.97 5753.58 9067.12 5759.59 9079.8 5770.3C9092.47 5781.01 9099.64 5795.56 9099.74 5810.76V5810.76Z" fill="#E0E0E0"/>
<path d="M9032.12 5936.27C9024.2 5894.71 9024.2 5852.33 9032.12 5810.76C9040.04 5852.33 9040.04 5894.71 9032.12 5936.27V5936.27Z" fill="#E0E0E0"/>
<path d="M7459.09 5873.87C7458.94 5888.87 7451.8 5903.22 7439.25 5913.76C7426.69 5924.31 7409.74 5930.19 7392.1 5930.12C7374.46 5930.06 7357.57 5924.05 7345.12 5913.41C7332.67 5902.78 7325.68 5888.38 7325.68 5873.37C7325.68 5858.36 7332.67 5843.96 7345.12 5833.33C7357.57 5822.69 7374.46 5816.68 7392.1 5816.62C7409.74 5816.55 7426.69 5822.43 7439.25 5832.98C7451.8 5843.52 7458.94 5857.87 7459.09 5872.87V5873.87Z" fill="#E0E0E0"/>
<path d="M7391.46 5999.08C7383.54 5957.55 7383.54 5915.2 7391.46 5873.67C7399.38 5915.2 7399.38 5957.55 7391.46 5999.08V5999.08Z" fill="#E0E0E0"/>
<path d="M10584.3 5355.73C10584.4 5367.13 10580.5 5378.3 10573.1 5387.81C10565.8 5397.33 10555.2 5404.77 10542.9 5409.18C10530.5 5413.6 10516.9 5414.8 10503.8 5412.62C10490.6 5410.44 10478.5 5405 10469 5396.96C10459.5 5388.93 10453 5378.68 10450.4 5367.5C10447.7 5356.33 10449 5344.74 10454.1 5334.2C10459.2 5323.66 10467.9 5314.65 10479 5308.31C10490.2 5301.97 10503.3 5298.58 10516.7 5298.58C10525.5 5298.56 10534.3 5300.02 10542.5 5302.87C10550.7 5305.73 10558.1 5309.93 10564.4 5315.24C10570.7 5320.55 10575.7 5326.85 10579.1 5333.8C10582.5 5340.75 10584.3 5348.2 10584.3 5355.73V5355.73Z" fill="#E0E0E0"/>
<path d="M10516.7 5481.25C10508.8 5439.68 10508.8 5397.3 10516.7 5355.74C10524.6 5397.3 10524.6 5439.68 10516.7 5481.25V5481.25Z" fill="#E0E0E0"/>
<path d="M10402.9 4499.86C10403 4511.26 10399.1 4522.42 10391.7 4531.94C10384.3 4541.45 10373.8 4548.89 10361.4 4553.31C10349.1 4557.72 10335.5 4558.92 10322.3 4556.75C10309.2 4554.57 10297.1 4549.12 10287.6 4541.09C10278.1 4533.06 10271.6 4522.8 10268.9 4511.63C10266.3 4500.46 10267.6 4488.86 10272.7 4478.32C10277.8 4467.79 10286.5 4458.78 10297.6 4452.43C10308.7 4446.09 10321.8 4442.71 10335.2 4442.71C10353.1 4442.68 10370.2 4448.68 10382.9 4459.39C10395.6 4470.11 10402.8 4484.66 10402.9 4499.86V4499.86Z" fill="#E0E0E0"/>
<path d="M10335.2 4625.17C10327.3 4583.61 10327.3 4541.23 10335.2 4499.66C10343.1 4541.23 10343.1 4583.61 10335.2 4625.17Z" fill="#E0E0E0"/>
<path d="M8964.82 3800.75C9002.18 3800.75 9032.46 3775.12 9032.46 3743.5C9032.46 3711.88 9002.18 3686.25 8964.82 3686.25C8927.46 3686.25 8897.18 3711.88 8897.18 3743.5C8897.18 3775.12 8927.46 3800.75 8964.82 3800.75Z" fill="#E0E0E0"/>
<path d="M8964.83 3868.72C8956.68 3827.2 8956.68 3784.82 8964.83 3743.3C8972.87 3784.83 8972.87 3827.19 8964.83 3868.72Z" fill="#E0E0E0"/>
<path d="M7738.52 4822.82C7738.37 4837.83 7731.23 4852.18 7718.68 4862.72C7706.12 4873.26 7689.17 4879.15 7671.53 4879.08C7653.89 4879.01 7636.99 4873.01 7624.55 4862.37C7612.1 4851.73 7605.11 4837.34 7605.11 4822.33C7605.11 4807.32 7612.1 4792.92 7624.55 4782.28C7636.99 4771.65 7653.89 4765.64 7671.53 4765.57C7689.17 4765.51 7706.12 4771.39 7718.68 4781.93C7731.23 4792.48 7738.37 4806.82 7738.52 4821.83V4822.82Z" fill="#E0E0E0"/>
<path d="M7670.93 4948.34C7663.01 4906.77 7663.01 4864.39 7670.93 4822.82C7679.19 4864.36 7679.19 4906.79 7670.93 4948.34V4948.34Z" fill="#E0E0E0"/>
<path d="M8533.81 3335.21C8533.9 3346.82 8529.94 3358.2 8522.41 3367.9C8514.89 3377.6 8504.15 3385.18 8491.56 3389.67C8478.97 3394.17 8465.09 3395.38 8451.69 3393.16C8438.28 3390.93 8425.96 3385.37 8416.28 3377.17C8406.6 3368.98 8400 3358.52 8397.31 3347.13C8394.63 3335.74 8395.98 3323.92 8401.2 3313.19C8406.42 3302.45 8415.27 3293.28 8426.63 3286.83C8437.99 3280.38 8451.35 3276.94 8465 3276.96C8482.89 3276.7 8500.16 3282.47 8513.06 3293.01C8525.95 3303.55 8533.41 3318.01 8533.81 3333.22V3335.21Z" fill="#E0E0E0"/>
<path d="M8465.98 3461.41C8458.07 3419.88 8458.07 3377.53 8465.98 3336C8474.02 3377.52 8474.02 3419.89 8465.98 3461.41Z" fill="#E0E0E0"/>
<path d="M9913.75 3209.3C9913.6 3224.54 9906.35 3239.11 9893.6 3249.82C9880.84 3260.54 9863.62 3266.51 9845.7 3266.45C9827.78 3266.38 9810.62 3260.28 9797.98 3249.47C9785.34 3238.67 9778.24 3224.05 9778.24 3208.8C9778.24 3193.55 9785.34 3178.93 9797.98 3168.12C9810.62 3157.32 9827.78 3151.22 9845.7 3151.15C9863.62 3151.09 9880.84 3157.06 9893.6 3167.77C9906.35 3178.49 9913.6 3193.06 9913.75 3208.3V3209.3Z" fill="#E0E0E0"/>
<path d="M9846.13 3335.21C9838.22 3293.64 9838.22 3251.26 9846.13 3209.69C9854.05 3251.26 9854.05 3293.64 9846.13 3335.21V3335.21Z" fill="#E0E0E0"/>
<path d="M10295.3 3157.01C10295.4 3168.63 10291.5 3180.01 10284 3189.7C10276.4 3199.4 10265.7 3206.98 10253.1 3211.47C10240.5 3215.97 10226.6 3217.18 10213.2 3214.96C10199.8 3212.73 10187.5 3207.17 10177.8 3198.97C10168.1 3190.78 10161.5 3180.32 10158.8 3168.93C10156.2 3157.54 10157.5 3145.72 10162.7 3134.99C10168 3124.25 10176.8 3115.08 10188.2 3108.63C10199.5 3102.18 10212.9 3098.74 10226.5 3098.76H10227.6C10236.5 3098.74 10245.2 3100.2 10253.4 3103.06C10261.7 3105.92 10269.1 3110.13 10275.4 3115.45C10281.7 3120.77 10286.7 3127.08 10290.1 3134.04C10293.5 3141 10295.3 3148.47 10295.3 3156.01V3157.01Z" fill="#E0E0E0"/>
<path d="M10227.6 3282.42C10219.7 3240.89 10219.7 3198.54 10227.6 3157.01C10235.5 3198.54 10235.5 3240.89 10227.6 3282.42Z" fill="#E0E0E0"/>
<path d="M10142.1 2734.92C10142.2 2746.34 10138.3 2757.52 10130.9 2767.06C10123.5 2776.59 10113 2784.04 10100.6 2788.46C10088.2 2792.89 10074.6 2794.08 10061.4 2791.91C10048.2 2789.73 10036.1 2784.27 10026.6 2776.22C10017.1 2768.17 10010.6 2757.9 10007.9 2746.71C10005.3 2735.52 10006.6 2723.91 10011.7 2713.35C10016.8 2702.79 10025.5 2693.77 10036.6 2687.41C10047.8 2681.06 10060.9 2677.67 10074.3 2677.67C10092.1 2677.92 10109.1 2684.02 10121.7 2694.69C10134.4 2705.37 10141.7 2719.78 10142.1 2734.92V2734.92Z" fill="#E0E0E0"/>
<path d="M10074.3 2860.24C10066.4 2818.67 10066.4 2776.29 10074.3 2734.72C10082.2 2776.29 10082.2 2818.67 10074.3 2860.24Z" fill="#E0E0E0"/>
<path d="M8016.97 3707.19C8016.81 3723.9 8008.88 3739.89 7994.9 3751.64C7980.93 3763.4 7962.04 3769.96 7942.39 3769.89C7922.74 3769.83 7903.92 3763.14 7890.05 3751.29C7876.18 3739.45 7868.4 3723.41 7868.4 3706.69C7868.4 3689.97 7876.18 3673.93 7890.05 3662.09C7903.92 3650.24 7922.74 3643.55 7942.39 3643.49C7962.04 3643.42 7980.93 3649.98 7994.9 3661.74C8008.88 3673.49 8016.81 3689.47 8016.97 3706.19C8017.02 3706.52 8017.02 3706.86 8016.97 3707.19Z" fill="#E0E0E0"/>
<path d="M7949.16 3832.7C7941.24 3791.13 7941.24 3748.75 7949.16 3707.18C7957.08 3748.75 7957.08 3791.13 7949.16 3832.7Z" fill="#E0E0E0"/>
<path d="M9590.36 3165.84C9590.68 3177.43 9586.95 3188.84 9579.64 3198.62C9572.33 3208.41 9561.77 3216.12 9549.3 3220.8C9536.82 3225.47 9523 3226.88 9509.58 3224.86C9496.16 3222.84 9483.75 3217.48 9473.92 3209.45C9464.09 3201.42 9457.28 3191.09 9454.36 3179.76C9451.44 3168.44 9452.54 3156.63 9457.52 3145.84C9462.5 3135.04 9471.13 3125.75 9482.32 3119.14C9493.51 3112.52 9506.76 3108.89 9520.39 3108.69H9522.72C9531.57 3108.66 9540.34 3110.12 9548.53 3112.98C9556.72 3115.83 9564.17 3120.04 9570.45 3125.34C9576.73 3130.65 9581.72 3136.96 9585.14 3143.91C9588.56 3150.85 9590.33 3158.31 9590.36 3165.84V3165.84Z" fill="#E0E0E0"/>
<path d="M9522.12 3291.35C9514.21 3249.78 9514.21 3207.4 9522.12 3165.84C9530.04 3207.4 9530.04 3249.78 9522.12 3291.35V3291.35Z" fill="#E0E0E0"/>
<path d="M7689.46 1877.26C7689.75 1888.85 7686 1900.25 7678.68 1910.02C7671.35 1919.79 7660.78 1927.49 7648.31 1932.15C7635.83 1936.8 7622.02 1938.2 7608.6 1936.17C7595.19 1934.14 7582.79 1928.77 7572.97 1920.73C7563.15 1912.7 7556.36 1902.37 7553.45 1891.05C7550.54 1879.72 7551.64 1867.92 7556.63 1857.13C7561.61 1846.35 7570.24 1837.06 7581.43 1830.45C7592.62 1823.84 7605.86 1820.21 7619.48 1820.01H7621.82C7639.7 1819.98 7656.87 1826 7669.56 1836.73C7682.24 1847.46 7689.39 1862.04 7689.46 1877.26V1877.26Z" fill="#E0E0E0"/>
<path d="M7622.74 2002.57C7616.81 1982.08 7614.81 1960.9 7616.8 1939.87C7614.81 1918.86 7616.82 1897.72 7622.74 1877.26C7628.72 1897.71 7630.72 1918.86 7628.67 1939.87C7630.73 1960.9 7628.72 1982.09 7622.74 2002.57Z" fill="#E0E0E0"/>
<path d="M8465.97 2190.5C8466.04 2201.89 8462.13 2213.05 8454.74 2222.55C8447.35 2232.05 8436.81 2239.47 8424.46 2243.88C8412.11 2248.28 8398.5 2249.46 8385.35 2247.27C8372.21 2245.09 8360.13 2239.63 8350.63 2231.59C8341.14 2223.56 8334.66 2213.3 8332.02 2202.13C8329.38 2190.96 8330.7 2179.37 8335.81 2168.84C8340.92 2158.31 8349.59 2149.3 8360.72 2142.97C8371.85 2136.63 8384.94 2133.25 8398.33 2133.25V2133.25C8416.22 2133.22 8433.39 2139.23 8446.07 2149.97C8458.75 2160.7 8465.91 2175.28 8465.97 2190.5V2190.5Z" fill="#E0E0E0"/>
<path d="M8398.38 2316.01C8392.58 2295.5 8390.57 2274.34 8392.45 2253.3C8390.57 2232.23 8392.57 2211.04 8398.38 2190.5C8404.25 2211.03 8406.25 2232.23 8404.32 2253.3C8406.25 2274.34 8404.25 2295.51 8398.38 2316.01V2316.01Z" fill="#E0E0E0"/>
<path d="M7232.68 3180.03C7232.78 3191.62 7228.82 3202.98 7221.31 3212.66C7213.81 3222.34 7203.1 3229.9 7190.53 3234.39C7177.97 3238.88 7164.12 3240.1 7150.74 3237.89C7137.36 3235.67 7125.06 3230.13 7115.39 3221.96C7105.72 3213.79 7099.12 3203.36 7096.43 3191.99C7093.74 3180.62 7095.07 3168.83 7100.26 3158.11C7105.46 3147.39 7114.28 3138.23 7125.6 3131.78C7136.93 3125.33 7150.25 3121.88 7163.88 3121.88C7172.73 3121.71 7181.54 3123.03 7189.8 3125.76C7198.05 3128.49 7205.6 3132.59 7211.99 3137.8C7218.38 3143.02 7223.5 3149.26 7227.05 3156.17C7230.6 3163.07 7232.52 3170.51 7232.68 3178.04V3180.03Z" fill="#E0E0E0"/>
<path d="M7163.85 3306.33C7155.94 3264.77 7155.94 3222.38 7163.85 3180.82C7171.77 3222.38 7171.77 3264.77 7163.85 3306.33Z" fill="#E0E0E0"/>
<path d="M7299.48 2247.75C7299.78 2259.33 7296.03 2270.74 7288.71 2280.51C7281.38 2290.28 7270.81 2297.98 7258.34 2302.64C7245.86 2307.29 7232.04 2308.69 7218.63 2306.66C7205.22 2304.63 7192.82 2299.26 7183 2291.22C7173.18 2283.19 7166.39 2272.86 7163.48 2261.53C7160.57 2250.21 7161.67 2238.41 7166.65 2227.62C7171.63 2216.84 7180.27 2207.55 7191.46 2200.94C7202.65 2194.33 7215.89 2190.7 7229.51 2190.5H7231.73C7240.59 2190.47 7249.38 2191.93 7257.59 2194.79C7265.79 2197.66 7273.25 2201.87 7279.54 2207.18C7285.83 2212.5 7290.83 2218.82 7294.26 2225.78C7297.68 2232.74 7299.45 2240.2 7299.48 2247.75V2247.75Z" fill="#E0E0E0"/>
<path d="M7232.61 2373.16C7226.68 2352.7 7224.68 2331.56 7226.67 2310.55C7224.68 2289.48 7226.69 2268.28 7232.61 2247.75C7238.51 2268.28 7240.56 2289.48 7238.66 2310.55C7240.5 2331.57 7238.46 2352.69 7232.61 2373.16V2373.16Z" fill="#E0E0E0"/>
<path d="M10212 4915.49L10770 4665.46L10767.7 5116.42L10212 4915.49Z" fill="#EBEBEB"/>
<path d="M7894.57 6514.44L6672.15 7047.85V6052.66L6807.55 6001.66L7894.57 6514.44Z" fill="#EBEBEB"/>
<path d="M9720.43 7047.85C9720.52 7060.99 9716.03 7073.86 9707.51 7084.83C9698.99 7095.8 9686.84 7104.37 9672.59 7109.45C9658.34 7114.54 9642.64 7115.91 9627.48 7113.39C9612.31 7110.88 9598.37 7104.59 9587.41 7095.32C9576.45 7086.05 9568.97 7074.23 9565.92 7061.34C9562.88 7048.45 9564.39 7035.08 9570.28 7022.93C9576.18 7010.78 9586.18 7000.39 9599.02 6993.08C9611.86 6985.77 9626.96 6981.86 9642.41 6981.86V6981.86C9652.63 6981.84 9662.75 6983.52 9672.2 6986.83C9681.65 6990.13 9690.24 6994.98 9697.48 7001.11C9704.73 7007.23 9710.48 7014.52 9714.42 7022.53C9718.36 7030.55 9720.4 7039.15 9720.43 7047.85V7047.85Z" fill="#00B761"/>
<path d="M10434.1 2340.82L10823.4 2440.93V2959.56L10434.1 2340.82Z" fill="#EBEBEB"/>
<path d="M10827.3 1648.06L10825 1082.5C10808.9 984.714 10751.9 895.141 10664.5 830.221C10577.1 765.301 10465 729.39 10349 729.077L9734.85 727.191C9714.86 727.385 9695.11 730.94 9676.74 737.652C9658.37 744.364 9641.75 754.101 9627.82 766.301C9613.89 778.501 9602.93 792.925 9595.58 808.741C9588.23 824.558 9584.63 841.455 9584.99 858.46V858.46V952.522C9585.28 969.494 9581.63 986.348 9574.25 1002.12C9566.88 1017.89 9555.91 1032.27 9541.99 1044.42C9528.07 1056.58 9511.46 1066.28 9493.13 1072.97C9474.79 1079.66 9455.08 1083.2 9435.13 1083.39L8237.55 1078.43C8197.23 1077.55 8158.96 1063.1 8131.13 1038.25C8103.3 1013.41 8088.19 980.186 8089.1 945.874V851.813C8089.64 834.832 8086.23 817.926 8079.08 802.068C8071.92 786.21 8061.15 771.71 8047.39 759.403C8033.63 747.095 8017.14 737.221 7998.88 730.348C7980.62 723.475 7960.95 719.739 7940.99 719.353H7724.42L7186.45 716.476C7065.68 716.248 6949.18 754.514 6859.91 823.733C6805.92 911.543 6747.03 1037.06 6774.08 1131.91L10824.3 2246.56L10827.3 1648.06Z" fill="#00B761"/>
<path d="M10827.3 1648.06L10825 1082.5C10808.9 984.714 10751.9 895.141 10664.5 830.221C10577.1 765.301 10465 729.39 10349 729.077L9734.85 727.191C9714.86 727.385 9695.11 730.94 9676.74 737.652C9658.37 744.364 9641.75 754.101 9627.82 766.301C9613.89 778.501 9602.93 792.925 9595.58 808.741C9588.23 824.558 9584.63 841.455 9584.99 858.46V858.46V952.522C9585.28 969.494 9581.63 986.348 9574.25 1002.12C9566.88 1017.89 9555.91 1032.27 9541.99 1044.42C9528.07 1056.58 9511.46 1066.28 9493.13 1072.97C9474.79 1079.66 9455.08 1083.2 9435.13 1083.39L8237.55 1078.43C8197.23 1077.55 8158.96 1063.1 8131.13 1038.25C8103.3 1013.41 8088.19 980.186 8089.1 945.874V851.813C8089.64 834.832 8086.23 817.926 8079.08 802.068C8071.92 786.21 8061.15 771.71 8047.39 759.403C8033.63 747.095 8017.14 737.221 7998.88 730.348C7980.62 723.475 7960.95 719.739 7940.99 719.353H7724.42L7186.45 716.476C7065.68 716.248 6949.18 754.514 6859.91 823.733C6805.92 911.543 6747.03 1037.06 6774.08 1131.91L10824.3 2246.56L10827.3 1648.06Z" fill="#66D4A0"/>
<path d="M10349 728.679H10365.5C10381.9 728.945 10398.2 730.105 10414.4 732.152C10478.5 738.887 10540.2 757.151 10595.4 785.731C10636.4 806.42 10673.4 832.318 10705.2 862.528C10744.2 898.314 10775.3 939.749 10797 984.867C10821.7 1037.59 10833.6 1094.02 10832 1150.76V1343.35C10829.7 1887.78 10826.5 2675.39 10822.3 3648.64C10818.1 4621.9 10812.5 5780.7 10806.6 7067.59C10806.6 7228.33 10805.8 7391.12 10804.3 7555.96V7679.68C10804.9 7721.7 10798.5 7763.57 10785 7804.01C10771.4 7844.79 10750.5 7883.53 10722.9 7918.8C10694.8 7954.12 10660.7 7985.74 10621.9 8012.67C10542.2 8066.86 10444.7 8098.54 10342.9 8103.26C10317.4 8104.65 10292.2 8104.25 10267 8104.25H10039.5L9423.93 8101.97L8159.06 8096.71L7512.99 8094.13L7186.45 8092.04C7075.28 8096.89 6965.28 8070.81 6873.09 8017.73C6781.34 7963.75 6713.99 7884.75 6682.18 7793.79C6667.26 7748.9 6660.85 7702.28 6663.17 7655.67V7517.95C6664.1 7334.66 6665 7152.52 6665.85 6971.55C6667.72 6609.59 6669.51 6253.58 6671.22 5903.53C6674.83 5203.13 6678.22 4527.64 6681.71 3884.1C6685.21 3240.55 6688.36 2629.25 6691.39 2056.85C6692.95 1770.69 6694.46 1494.7 6695.94 1228.85V1129.63C6695.94 1113.06 6697.81 1096.39 6698.97 1080.02C6700.34 1063.6 6703.7 1047.34 6709 1031.5C6735.13 937.449 6799.07 854.126 6889.77 795.946C6980.47 737.767 7092.22 708.392 7205.69 712.903L7626.92 714.59H7928.86C7962.52 713.227 7995.79 721.2 8023.67 737.311C8051.64 753.599 8072.83 777.012 8084.19 804.186C8093.09 830.395 8096.29 857.765 8093.64 884.952V923.747C8092.59 936.663 8092.59 949.626 8093.64 962.542C8097.37 987.966 8109.92 1011.87 8129.68 1031.2C8148.85 1050.43 8174.7 1063.97 8203.5 1069.9C8217.77 1072.86 8232.43 1074.19 8247.11 1073.87H8466.24L9103.34 1076.75L9384.4 1078.13H9450.17C9471.28 1076.15 9491.6 1070.19 9509.65 1060.67C9527 1051.57 9542.03 1039.6 9553.85 1025.48C9565.66 1011.35 9574.03 995.346 9578.45 978.418C9581.83 962.046 9583.12 945.414 9582.3 928.807V879.991C9581.48 864.109 9582.42 848.197 9585.1 832.464C9588.11 817.103 9594.31 802.321 9603.41 788.807C9620.4 762.33 9647.76 741.756 9680.73 730.664C9711.75 722.457 9744.38 719.623 9776.71 722.329L10089.5 724.314L10282.3 725.504H9776.13C9744.26 722.75 9712.07 725.587 9681.55 733.839C9649.64 744.512 9623.07 764.249 9606.33 789.7C9597.61 802.961 9591.61 817.389 9588.6 832.365C9586.15 847.916 9585.33 863.622 9586.15 879.296V928.212C9587.03 945.095 9585.62 962.007 9581.95 978.616C9577.58 996.042 9569.13 1012.54 9557.11 1027.13C9545.09 1041.72 9529.74 1054.11 9511.98 1063.55C9493.29 1073.38 9472.25 1079.51 9450.4 1081.51C9427.08 1083 9406.32 1081.51 9383.93 1081.51H9102.88L8465.78 1079.33H8246.76C8231.31 1079.83 8215.85 1078.53 8200.81 1075.46C8171.39 1069.5 8144.76 1056.11 8124.43 1037.06C8103.81 1016.77 8090.74 991.736 8086.88 965.122C8085.37 951.934 8084.9 938.675 8085.48 925.434V886.539C8088.16 860.426 8085.12 834.115 8076.5 808.949C8065.91 783.702 8046.35 761.888 8020.52 746.539C7993.96 731.178 7962.2 723.682 7930.14 725.207H7628.21L7206.74 724.314C7095.61 718.53 6985.66 746.46 6896.45 803.141C6807.24 859.821 6744.54 941.579 6719.5 1033.88C6714.6 1049.36 6712.97 1065.73 6709.59 1081.61C6707.01 1097.75 6706.07 1114.05 6706.79 1130.32V1229.55C6705.54 1495.06 6704.26 1771.06 6702.94 2057.54C6700.37 2629.95 6697.46 3240.65 6694.43 3884.79C6691.39 4528.93 6688.01 5203.63 6684.63 5904.23C6682.84 6254.48 6680.74 6610.61 6678.33 6972.64C6678.33 7153.75 6677.52 7335.88 6675.88 7519.04V7656.96C6673.68 7702.78 6680.09 7748.6 6694.89 7792.7C6725.82 7881.24 6791.2 7958.21 6880.32 8010.98C6970.59 8062.61 7078.19 8087.79 7186.8 8082.72L7513.34 8083.91L8159.65 8086.39L9422.65 8091.45L10038.2 8094.03H10266C10291.2 8094.03 10316.5 8094.03 10341.3 8093.04C10440.7 8088.4 10536 8057.5 10613.8 8004.63C10651.8 7978.28 10685 7947.36 10712.5 7912.85C10739.4 7878.42 10759.9 7840.67 10773.3 7800.93C10786.4 7761.09 10792.5 7719.84 10791.5 7678.49V7554.57C10792.5 7389.73 10793.3 7226.87 10794.1 7066C10801.2 5779.41 10807.4 4620.51 10812.4 3647.26C10817.4 2674 10822.7 1886.39 10825.9 1341.96C10825.9 1274.03 10826.3 1209.83 10827.1 1149.37C10828.9 1093.06 10817.2 1037.02 10792.7 984.669C10753 902.207 10683.1 832.874 10593.3 787.021C10538.5 758.437 10477.2 739.948 10413.5 732.747C10397.3 730.52 10381 729.227 10364.6 728.878C10359.4 729.148 10354.2 729.082 10349 728.679V728.679Z" fill="#263238"/>
<path d="M10737.3 795.553C10686.9 752.271 10626.8 717.929 10560.7 694.512C10494.5 671.094 10423.5 659.067 10351.9 659.124H9827.09C9829.19 658.529 9831.06 657.934 9833.27 657.438H7860.75L7861.92 658.033H7201.49C7056.8 658.19 6918.08 707.143 6815.73 794.165C6713.38 881.187 6655.75 999.18 6655.48 1122.29L6653.96 7693.17C6654.15 7816.25 6711.7 7934.25 6813.99 8021.28C6916.28 8108.31 7054.97 8157.27 7199.63 8157.43L10349.4 8159.11C10421.1 8159.13 10492 8147.13 10558.2 8123.81C10624.4 8100.48 10684.5 8066.29 10735.2 8023.19C10785.8 7980.09 10826 7928.91 10853.4 7872.59C10880.8 7816.27 10894.9 7755.91 10894.9 7694.96L10896.5 1123.97C10896.8 1062.99 10882.9 1002.56 10855.6 946.186C10828.3 889.81 10788.1 838.609 10737.3 795.553V795.553ZM10766.8 7695.36C10766.7 7789.48 10722.6 7879.7 10644.4 7946.2C10566.1 8012.7 10459.9 8050.02 10349.3 8049.97L7199.63 8048.29C7089.01 8048.13 6982.98 8010.66 6904.78 7944.09C6826.58 7877.52 6782.6 7787.29 6782.48 7693.17L6783.99 1122.39C6784.18 1028.19 6828.26 937.904 6906.56 871.318C6984.87 804.732 7091.02 767.28 7201.73 767.176H7951.36C7974.38 768.026 7996.1 776.487 8011.89 790.757C8027.68 805.027 8036.3 823.978 8035.91 843.575V939.522C8035.1 988.091 8056.81 1034.98 8096.34 1070.02C8135.87 1105.07 8190.04 1125.45 8247.11 1126.75H9442.94C9499.86 1125.35 9553.83 1104.9 9593.13 1069.84C9632.43 1034.79 9653.9 987.959 9652.86 939.522V844.468C9652.32 824.871 9660.88 805.884 9676.69 791.62C9692.49 777.357 9714.27 768.966 9737.29 768.267H10351.3C10462 768.398 10568.1 805.935 10646.3 872.621C10724.5 939.308 10768.3 1029.68 10768.2 1123.87L10766.8 7695.36Z" fill="#00B761"/>
<path d="M11175.5 5165.73L11101.2 5185.57L10601.7 5319.92C10590.2 5323.07 10578.5 5325.72 10566.7 5327.86C10401.4 5358.32 10225.4 5295.91 10163.3 5180.42L10156 5166.82C10089.6 5042.99 10178.3 4903.29 10353.2 4856.26L10818.9 4731.05L10852.7 4721.92L10927 4702.07C11101.9 4655.04 11299.3 4717.85 11365.8 4841.58L11373 4855.17C11439.1 4978.9 11350.4 5118.7 11175.5 5165.73Z" fill="#F9C29D"/>
<path d="M10769.8 5173.87C10686.4 5196.19 10535.5 5235.88 10455 5244.01C10431.6 5246.4 10390 5237.56 10350.7 5207.2C10346.5 5200.26 10342.6 5192.92 10339 5185.18C10330.9 5168.76 10325.2 5151.57 10322 5133.98C10318.8 5113.69 10319.7 5093.09 10324.7 5073.06C10327.9 5063.08 10333.9 5053.92 10342.2 5046.37C10350.6 5038.81 10360.9 5033.09 10372.4 5029.7V5029.7C10471 4995.5 10572.3 4967.38 10675.6 4945.56C10717 4936.74 10760.9 4941.67 10798.2 4959.35L10851.8 5063.23C10874 5106.3 10838.2 5155.71 10769.8 5173.87Z" fill="#FFEDE1"/>
<path d="M10948.8 5662.63L10563.9 5736.84C10447.3 5759.37 10325.1 5710.05 10293.2 5627.7L10281.6 5596.84C10249.7 5513.99 10319.4 5428.17 10436.5 5405.25L10821.3 5331.03C10937.9 5308.51 11060.1 5357.82 11092 5440.17L11103.6 5471.03C11135.5 5553.88 11065.8 5640.1 10948.8 5662.63Z" fill="#F9C29D"/>
<path d="M10740.5 5649.23C10669.8 5662.63 10542.2 5686.24 10474.8 5688.92C10450.4 5689.91 10401.6 5675.33 10369.9 5629.39C10365.4 5617.19 10362.7 5604.55 10362.1 5591.78C10361.7 5575.93 10364.6 5560.14 10370.7 5545.15C10374.6 5537.44 10380.6 5530.62 10388.1 5525.21C10395.7 5519.8 10404.6 5515.96 10414.2 5513.99V5513.99C10498.5 5492.28 10584.5 5475.34 10671.4 5463.29C10720.2 5457.24 10767 5469.94 10789.3 5493.95L10819.1 5567.67C10833.1 5602.1 10798.3 5638.42 10740.5 5649.23Z" fill="#FFEDE1"/>
<path d="M11163.4 4643.53L11155 4645.52L10650 4737.29C10428.4 4777.68 10198.3 4692.65 10139.8 4548.77L10109.7 4474.86C10053.4 4335.95 10174.4 4191.48 10380.7 4144.55L10547.5 4114.19L10885.7 4052.77C11107.3 4012.39 11337.2 4097.42 11395.9 4241.29L11426 4315.21C11481.6 4451.64 11364.5 4593.92 11163.4 4643.53Z" fill="#F9C29D"/>
<path d="M10931.5 4543.61L10686.6 4621.8H10685C10679.3 4622.59 10661.7 4624.68 10637.8 4627.26C10610.7 4626.66 10592.2 4606.32 10603.8 4588.26C10615.7 4570.54 10623 4550.91 10625.4 4530.62C10627.8 4510.34 10625.2 4489.86 10617.7 4470.49L10611.9 4455.41C10611.9 4455.24 10611.9 4455.08 10611.9 4454.91L10592.9 4405.3C10576.8 4365.69 10545.4 4331.88 10503.9 4309.35C10513.8 4299.3 10527.4 4292.32 10542.5 4289.51H10544.1L10813.3 4260.74C10839.3 4256.11 10866.5 4258.39 10890.9 4267.26C10915.4 4276.13 10936.2 4291.16 10950.3 4310.35L10996.3 4430.01C11014.2 4477.43 10998.5 4530.81 10931.5 4543.61Z" fill="#FFEDE1"/>
<path d="M10402.1 8225.4L10160.4 7459.41C10160.4 7459.41 10513.6 7705.08 10585.9 7867.61C10658.2 8030.13 10616.6 8329.28 10402.1 8225.4Z" fill="#EFA26F"/>
<path d="M14259.6 9163.93L11386.3 9819.97C11227.8 9786.04 10403.2 9603.97 10025.9 9414.06C9945.93 9373.78 9568.08 8955.86 9271.28 8614.24C9085.85 8400.92 8932.03 8217.36 8902.18 8173.8C8885.63 8144.95 8872.24 8114.85 8862.17 8083.91V8083.91C8805.38 7929.42 8720.6 7625.91 8655.76 7384.3V7383.11L8654.94 7379.94C8652.14 7369.32 8649.23 7358.9 8646.54 7348.49C8646.54 7347.39 8646.54 7346.4 8645.73 7345.31C8634.06 7303.34 8624.04 7263.75 8614.59 7227.73C8591.27 7137.74 8573.54 7069.87 8566.89 7043.28L8563.63 7030.98C8567.59 7028.1 8689.34 6944.36 8903.81 6996.35C8955.59 7008.95 9014.25 7054.59 9074.42 7117.7C9116.16 7162.21 9155.09 7208.58 9191.04 7256.61C9338.92 7451.38 9477.23 7693.18 9529.24 7754.2C9613.79 7853.42 10354.3 8203.97 10400.6 8225.79L10402.8 8226.89L10161.2 7461L9452.86 6722.3L9161.19 6417.8L9015.06 6265.49C8883.08 6172.96 8758.95 6072.6 8643.63 5965.15C8564.39 5892.22 8493.48 5813.05 8431.84 5728.71C8418.32 5709.46 8405.84 5690.21 8394.76 5671.06C8354.17 5601.01 8331.32 5532.15 8337.73 5471.13C8349.39 5361.99 8440.01 5320.91 8514.88 5306.03C8522.69 5304.44 8530.27 5303.25 8538.2 5302.16C8545.58 5301.16 8553.02 5300.5 8560.48 5300.17C8573.99 5299.69 8587.53 5300.52 8600.83 5302.65V5302.65C8621.81 5305.92 8641.71 5313.03 8659.14 5323.49L8848.76 5425.79C8920.37 5464.48 9003.87 5509.63 9084.1 5553.19C9227.2 5630.78 9360.14 5703.31 9397.23 5724.94C9597.82 5842.12 10164.9 6243.76 10164.9 6243.76L10650.4 6148.21C10724.8 6132.88 10802.9 6137.74 10873.9 6162.1C11080.6 6236.12 11527 6396.46 11583.2 6422.56C11586.9 6434.46 11904.2 6466.51 12153 6502.83C12326.3 6514.04 12680 6613.16 12680 6613.16C12754.6 6637.87 12814.3 6665.85 12850 6697.4C13003.3 6832.64 13718.6 8150.09 14067.7 8802.47C14179.5 9012.12 14253.9 9153.11 14259.6 9163.93Z" fill="#F9C29D"/>
<path d="M10164.5 6243.66C10164.5 6243.66 10772.3 6656.72 10838.2 6666.44C10904.1 6676.16 11144.1 6656.52 11153.1 6594.6C11162 6532.69 10164.5 6243.66 10164.5 6243.66Z" fill="#E2B596"/>
<path d="M12682.2 6614.05L12679.5 6613.16C12679.5 6613.16 12325.8 6513.94 12152.5 6502.83C11924.2 6469.49 11638 6439.72 11589.8 6425.83C11649.1 6453.22 12064.7 6643.22 12198.7 6634.19C12316.3 6625.96 12586.6 6617.03 12682.2 6614.05Z" fill="#E2B596"/>
<path d="M8582.62 5627.9C8530.6 5590.89 8437.31 5523.52 8399.52 5482.54C8388.79 5470.93 8381.45 5444.64 8395.33 5411.5C8400.22 5406.54 8405.7 5401.58 8411.65 5396.71C8424.28 5385.86 8438.24 5376.18 8453.29 5367.84C8471.43 5358.31 8491.06 5350.99 8511.6 5346.11C8521.57 5344.02 8531.97 5343.83 8542.05 5345.54C8552.13 5347.26 8561.64 5350.84 8569.91 5356.03V5356.03C8638.02 5396.09 8702.36 5440.61 8762.33 5489.19C8773.88 5498.34 8782.84 5509.61 8788.52 5522.14C8794.19 5534.67 8796.45 5548.14 8795.1 5561.52L8717.55 5630.97C8684.78 5659.05 8625.07 5658.26 8582.62 5627.9Z" fill="#FFEDE1"/>
<path d="M12716.6 9179.01L11957.7 9689.5L11386.3 9819.97C11227.8 9786.04 10403.2 9603.97 10025.9 9414.06C9945.93 9373.78 9568.08 8955.86 9271.28 8614.24C9310.7 8659.69 10037 9288.94 10204.2 9341.53C10371.5 9394.12 11261.9 9716.88 11463.7 9665.49C11659.1 9615.88 12653.3 9205.8 12715.1 9180.4L12716.6 9179.01Z" fill="#E2B596"/>
<path d="M15007 9956.5H11590.1L11448.4 9805.78C11590.1 9727.2 12133.3 9431.13 12714.1 9180.69L12716.9 9179.5C13215.8 8964.19 13742 8782.62 14064.6 8801.17L14067.4 8802.96L15007 9956.5Z" fill="#00B761"/>
<path d="M8562.69 7030.18L8655.28 7383.9C8655.28 7383.9 8762.93 7372.1 8812.14 7327.45C8861.35 7282.8 8734.47 6986.63 8562.69 7030.18Z" fill="#FFEDE1"/>
<path d="M17594.3 9858.87H266.744C230.439 9858.87 201.008 9892.03 201.008 9932.93C201.008 9973.83 230.439 10007 266.744 10007H17594.3C17630.6 10007 17660 9973.83 17660 9932.93C17660 9892.03 17630.6 9858.87 17594.3 9858.87Z" fill="#0D8394"/>
<path d="M3023.77 5807.69C3033.75 5809.8 3043.41 5812.86 3052.58 5816.82C3071.7 5823.17 3099.23 5832.99 3132.23 5845.49C3198.94 5870.1 3290.14 5907.6 3389.73 5949.87L3644.66 6059.01L3722.33 6091.36C3732.54 6094.63 3742.22 6099 3751.14 6104.36C3741.17 6102.35 3731.51 6099.39 3722.33 6095.53C3703.21 6089.18 3675.68 6079.15 3642.91 6066.36C3576.56 6040.56 3485.94 6002.75 3386.35 5960.49L3130.6 5853.43L3052.93 5821.28C3042.67 5817.65 3032.9 5813.09 3023.77 5807.69V5807.69Z" fill="#008949"/>
<path d="M3783.52 6082.23C3780.14 6080.74 3860.96 5917.62 3964.28 5717.5C4067.61 5517.37 4154.26 5356.23 4157.64 5357.42C4161.02 5358.62 4079.97 5522.03 3976.64 5722.16C3873.32 5922.29 3787.02 6084.41 3783.52 6082.23Z" fill="#008949"/>
<path d="M4188.3 6988.51C4193.92 6980.58 4200.49 6973.17 4207.9 6966.38L4266.21 6908.94C4314.14 6859.33 4379.68 6792.75 4448.95 6716.15C4518.22 6639.55 4578.28 6568.71 4622.13 6516.92L4672.86 6455.5C4678.78 6447.76 4685.45 6440.46 4692.81 6433.67C4688.83 6442.38 4683.62 6450.64 4677.3 6458.28C4666.57 6473.46 4650.36 6495.29 4629.95 6521.88C4588.9 6574.66 4530 6646.89 4460.5 6723.49C4390.99 6800.09 4324.17 6867.16 4274.6 6914.49C4249.41 6939.1 4229.01 6957.06 4214.54 6969.56C4206.68 6976.71 4197.88 6983.07 4188.3 6988.51V6988.51Z" fill="#008949"/>
<path d="M3437.48 6870.34C3447.15 6869.96 3456.83 6870.62 3466.29 6872.32L3547.11 6882.25C3615.21 6891.37 3709.09 6904.57 3812.42 6919.85C3915.75 6935.13 4009.51 6949.62 4077.38 6960.63L4157.38 6974.32C4167.3 6975.39 4177 6977.63 4186.19 6980.97C4176.52 6981.19 4166.85 6980.46 4157.38 6978.79L4076.8 6968.87C4008.69 6959.94 3914.93 6946.74 3811.25 6931.26C3707.58 6915.78 3614.05 6901.5 3546.52 6890.48L3466.64 6876.69C3456.67 6875.54 3446.88 6873.41 3437.48 6870.34V6870.34Z" fill="#008949"/>
</g>
<defs>
<clipPath id="clip0_3206_11568">
<rect width="17459" height="10007" fill="white" transform="translate(201)"/>
</clipPath>
</defs>
</svg>
